{
.appVersion = "1230";
DisplayStrings = (
"/Softsign-cy/Hardsign-cy"
);
classes = (
{
automatic = 1;

glyphs = (
{
glyphname = A;
lastChange = "2019-04-12 14:53:20 +0000";
layers = (
{
anchors = (
{
name = bottom;
position = "{247, 0}";
},
{
name = ogonek;
position = "{484, 0}";
},
{
name = top;
position = "{449, 708}";
}
);
background = {
anchors = (
{
name = bottom;
position = "{237, 0}";
},
{
name = ogonek;
position = "{554, 0}";
},
{
name = top;
position = "{471, 708}";
}
);
paths = (
{
closed = 1;
nodes = (
"-57 2 OFFCURVE",
"-36 3 OFFCURVE",
"-2 3 CURVE SMOOTH",
"33 3 OFFCURVE",
"75 2 OFFCURVE",
"112 0 CURVE",
"118 20 LINE",
"21 22 OFFCURVE",
"30 71 OFFCURVE",
"91 162 CURVE SMOOTH",
"391 614 LINE",
"371 601 LINE",
"419 104 LINE SMOOTH",
"425 45 OFFCURVE",
"415 24 OFFCURVE",
"336 20 CURVE",
"330 0 LINE",
"359 2 OFFCURVE",
"407 3 OFFCURVE",
"459 3 CURVE SMOOTH",
"497 3 OFFCURVE",
"539 2 OFFCURVE",
"565 0 CURVE",
"571 20 LINE",
"550 21 OFFCURVE",
"526 33 OFFCURVE",
"520 84 CURVE SMOOTH",
"452 713 LINE",
"447 713 OFFCURVE",
"441 713 OFFCURVE",
"436 713 CURVE",
"31 107 LINE SMOOTH",
"-9 48 OFFCURVE",
"-45 25 OFFCURVE",
"-72 20 CURVE",
"-78 0 LINE"
);
},
{
closed = 1;
nodes = (
"454 268 LINE",
"455 288 LINE",
"167 288 LINE",
"151 268 LINE"
);
}
);
};
hints = (
{
horizontal = 1;
place = "{713, -20}";
target = down;
type = TopGhost;
},
{
horizontal = 1;
place = "{268, 20}";
type = Stem;
},
{
horizontal = 1;
place = "{0, 20}";
type = Stem;
}
);
layerId = UUID0;
paths = (
{
closed = 1;
nodes = (
"-57 2 OFFCURVE",
"-36 3 OFFCURVE",
"-2 3 CURVE SMOOTH",
"33 3 OFFCURVE",
"75 2 OFFCURVE",
"112 0 CURVE",
"118 20 LINE",
"21 22 OFFCURVE",
"30 71 OFFCURVE",
"91 162 CURVE SMOOTH",
"393 614 LINE",
"371 601 LINE",
"425 104 LINE SMOOTH",
"431 45 OFFCURVE",
"421 24 OFFCURVE",
"342 20 CURVE",
"336 0 LINE",
"364 2 OFFCURVE",
"409 3 OFFCURVE",
"459 3 CURVE SMOOTH",
"497 3 OFFCURVE",
"539 2 OFFCURVE",
"575 0 CURVE",
"581 20 LINE",
"550 21 OFFCURVE",
"526 33 OFFCURVE",
"520 84 CURVE SMOOTH",
"452 713 LINE",
"447 713 OFFCURVE",
"441 713 OFFCURVE",
"436 713 CURVE",
"31 107 LINE SMOOTH",
"-9 48 OFFCURVE",
"-45 25 OFFCURVE",
"-72 20 CURVE",
"-78 0 LINE"
);
},
{
closed = 1;
nodes = (
"454 268 LINE",
"455 288 LINE",
"167 288 LINE",
"151 268 LINE"
);
}
);
width = 629;
},
{
anchors = (
{
name = bottom;
position = "{250, 0}";
},
{
name = ogonek;
position = "{512, 0}";
},
{
name = top;
position = "{460, 708}";
}
);
background = {
anchors = (
{
name = bottom;
position = "{280, 0}";
},
{
name = ogonek;
position = "{572, 0}";
},
{
name = top;
position = "{502, 708}";
}
);
paths = (
{
closed = 1;
nodes = (
"-71 2 OFFCURVE",
"-40 3 OFFCURVE",
"-14 3 CURVE SMOOTH",
"32 3 OFFCURVE",
"67 2 OFFCURVE",
"116 0 CURVE",
"122 20 LINE",
"43 23 OFFCURVE",
"27 89 OFFCURVE",
"147 258 CURVE SMOOTH",
"326 510 LINE",
"296 490 LINE",
"367 104 LINE SMOOTH",
"379 34 OFFCURVE",
"352 24 OFFCURVE",
"285 20 CURVE",
"279 0 LINE",
"316 2 OFFCURVE",
"380 3 OFFCURVE",
"448 3 CURVE SMOOTH",
"514 3 OFFCURVE",
"582 2 OFFCURVE",
"629 0 CURVE",
"635 20 LINE",
"617 21 OFFCURVE",
"603 39 OFFCURVE",
"594 84 CURVE SMOOTH",
"464 713 LINE",
"459 713 OFFCURVE",
"453 713 OFFCURVE",
"448 713 CURVE",
"53 160 LINE SMOOTH",
"-6 77 OFFCURVE",
"-52 35 OFFCURVE",
"-86 20 CURVE",
"-92 0 LINE"
);
},
{
closed = 1;
nodes = (
"408 218 LINE",
"409 238 LINE",
"121 238 LINE",
"105 218 LINE"
);
}
);
};
layerId = "DE547DD1-6B89-4C93-B672-7CF1D26AB89E";
paths = (
{
closed = 1;
nodes = (
"-71 2 OFFCURVE",
"-40 3 OFFCURVE",
"-14 3 CURVE SMOOTH",
"32 3 OFFCURVE",
"67 2 OFFCURVE",
"116 0 CURVE",
"122 20 LINE",
"43 23 OFFCURVE",
"26 89 OFFCURVE",
"146 258 CURVE SMOOTH",
"326 510 LINE",
"306 494 LINE",
"387 104 LINE SMOOTH",
"401 34 OFFCURVE",
"372 24 OFFCURVE",
"305 20 CURVE",
"299 0 LINE",
"332 2 OFFCURVE",
"388 3 OFFCURVE",
"448 3 CURVE SMOOTH",
"514 3 OFFCURVE",
"582 2 OFFCURVE",
"634 0 CURVE",
"640 20 LINE",
"617 21 OFFCURVE",
"603 39 OFFCURVE",
"594 84 CURVE SMOOTH",
"464 713 LINE",
"459 713 OFFCURVE",
"453 713 OFFCURVE",
"448 713 CURVE",
"53 160 LINE SMOOTH",
"-6 77 OFFCURVE",
"-52 35 OFFCURVE",
"-86 20 CURVE",
"-92 0 LINE"
);
},
{
closed = 1;
nodes = (
"408 218 LINE",
"409 238 LINE",
"121 238 LINE",
"105 218 LINE"
);
}
);
width = 679;
}
);
leftKerningGroup = A;
rightKerningGroup = A;
unicode = 0041;
},
{
color = 8;
glyphname = Aogonek;
lastChange = "2019-04-14 21:23:14 +0000";
layers = (
{
anchors = (
{
name = bottom;
position = "{247, 0}";
},
{
name = top;
position = "{449, 708}";
}
);
background = {
anchors = (
{
name = bottom;
position = "{247, 0}";
},
{
name = top;
position = "{449, 708}";
}
);
paths = (
{
closed = 1;
nodes = (
"-57 2 OFFCURVE",
"-36 3 OFFCURVE",
"-2 3 CURVE SMOOTH",
"33 3 OFFCURVE",
"75 2 OFFCURVE",
"112 0 CURVE",
"118 20 LINE",
"21 22 OFFCURVE",
"30 71 OFFCURVE",
"91 162 CURVE SMOOTH",
"393 614 LINE",
"371 601 LINE",
"425 104 LINE SMOOTH",
"431 45 OFFCURVE",
"421 24 OFFCURVE",
"342 20 CURVE",
"336 0 LINE",
"364 2 OFFCURVE",
"409 3 OFFCURVE",
"459 3 CURVE SMOOTH",
"497 3 OFFCURVE",
"539 2 OFFCURVE",
"565 0 CURVE",
"571 20 LINE",
"550 21 OFFCURVE",
"526 33 OFFCURVE",
"520 84 CURVE SMOOTH",
"452 713 LINE",
"447 713 OFFCURVE",
"441 713 OFFCURVE",
"436 713 CURVE",
"31 107 LINE SMOOTH",
"-9 48 OFFCURVE",
"-45 25 OFFCURVE",
"-72 20 CURVE",
"-78 0 LINE"
);
},
{
closed = 1;
nodes = (
"454 268 LINE",
"455 288 LINE",
"167 288 LINE",
"151 268 LINE"
);
},
{
closed = 0;
nodes = (
"-344 89 LINE",
"-338 24 OFFCURVE",
"-345 6 OFFCURVE",
"-400 -32 CURVE SMOOTH",
"-467 -78 OFFCURVE",
"-495 -103 OFFCURVE",
"-503 -134 CURVE SMOOTH",
"-512 -168 OFFCURVE",
"-495 -189 OFFCURVE",
"-447 -189 CURVE SMOOTH",
"-394 -189 OFFCURVE",
"-341 -163 OFFCURVE",
"-298 -120 CURVE",
"-309 -107 LINE",
"-331 -127 OFFCURVE",
"-362 -140 OFFCURVE",
"-389 -140 CURVE SMOOTH",
"-417 -140 OFFCURVE",
"-428 -126 OFFCURVE",
"-420 -97 CURVE SMOOTH",
"-404 -38 OFFCURVE",
"-326 2 OFFCURVE",
"-248 2 CURVE SMOOTH",
"-229 2 OFFCURVE",
"-213 1 OFFCURVE",
"-198 0 CURVE",
"-192 20 LINE",
"-221 21 OFFCURVE",
"-239 43 OFFCURVE",
"-244 84 CURVE SMOOTH"
);
}
);
};
hints = (
{
horizontal = 1;
place = "{713, -20}";
target = down;
type = TopGhost;
},
{
horizontal = 1;
place = "{268, 20}";
type = Stem;
},
{
horizontal = 1;
place = "{0, 20}";
type = Stem;
}
);
layerId = UUID0;
paths = (
{
closed = 1;
nodes = (
"382 -189 OFFCURVE",
"432 -163 OFFCURVE",
"472 -120 CURVE",
"461 -107 LINE",
"439 -127 OFFCURVE",
"408 -140 OFFCURVE",
"381 -140 CURVE SMOOTH",
"359 -140 OFFCURVE",
"347 -131 OFFCURVE",
"347 -113 CURVE SMOOTH",
"347 -48 OFFCURVE",
"440 2 OFFCURVE",
"522 2 CURVE SMOOTH",
"539 2 OFFCURVE",
"553 1 OFFCURVE",
"566 0 CURVE",
"572 20 LINE",
"543 21 OFFCURVE",
"525 43 OFFCURVE",
"520 84 CURVE SMOOTH",
"452 713 LINE",
"447 713 OFFCURVE",
"441 713 OFFCURVE",
"436 713 CURVE",
"31 107 LINE SMOOTH",
"-9 48 OFFCURVE",
"-45 25 OFFCURVE",
"-72 20 CURVE",
"-78 0 LINE",
"-57 2 OFFCURVE",
"-36 3 OFFCURVE",
"-2 3 CURVE SMOOTH",
"33 3 OFFCURVE",
"75 2 OFFCURVE",
"112 0 CURVE",
"118 20 LINE",
"20 22 OFFCURVE",
"30 72 OFFCURVE",
"91 162 CURVE SMOOTH",
"393 614 LINE",
"371 601 LINE",
"426 89 LINE SMOOTH",
"431 25 OFFCURVE",
"427 7 OFFCURVE",
"370 -32 CURVE SMOOTH",
"314 -69 OFFCURVE",
"265 -102 OFFCURVE",
"265 -146 CURVE SMOOTH",
"265 -174 OFFCURVE",
"294 -189 OFFCURVE",
"333 -189 CURVE SMOOTH"
);
},
{
closed = 1;
nodes = (
"454 268 LINE",
"455 288 LINE",
"167 288 LINE",
"151 268 LINE"
);
}
);
width = 620;
},
{
anchors = (
{
name = bottom;
position = "{250, 0}";
},
{
name = top;
position = "{460, 708}";
}
);
background = {
anchors = (
{
name = bottom;
position = "{250, 0}";
},
{
name = top;
position = "{460, 708}";
}
);
paths = (
{
closed = 1;
nodes = (
"-71 2 OFFCURVE",
"-40 3 OFFCURVE",
"-14 3 CURVE SMOOTH",
"32 3 OFFCURVE",
"67 2 OFFCURVE",
"116 0 CURVE",
"122 20 LINE",
"43 23 OFFCURVE",
"26 89 OFFCURVE",
"146 258 CURVE SMOOTH",
"326 510 LINE",
"306 494 LINE",
"387 104 LINE SMOOTH",
"401 34 OFFCURVE",
"372 24 OFFCURVE",
"305 20 CURVE",
"299 0 LINE",
"332 2 OFFCURVE",
"388 3 OFFCURVE",
"448 3 CURVE SMOOTH",
"514 3 OFFCURVE",
"582 2 OFFCURVE",
"629 0 CURVE",
"635 20 LINE",
"617 21 OFFCURVE",
"603 39 OFFCURVE",
"594 84 CURVE SMOOTH",
"464 713 LINE",
"459 713 OFFCURVE",
"453 713 OFFCURVE",
"448 713 CURVE",
"53 160 LINE SMOOTH",
"-6 77 OFFCURVE",
"-52 35 OFFCURVE",
"-86 20 CURVE",
"-92 0 LINE"
);
},
{
closed = 1;
nodes = (
"408 218 LINE",
"409 238 LINE",
"121 238 LINE",
"105 218 LINE"
);
},
{
closed = 0;
nodes = (
"-452 104 LINE SMOOTH",
"-437 24 OFFCURVE",
"-437 -11 OFFCURVE",
"-529 -47 CURVE SMOOTH",
"-607 -78 OFFCURVE",
"-646 -101 OFFCURVE",
"-655 -133 CURVE SMOOTH",
"-664 -164 OFFCURVE",
"-637 -189 OFFCURVE",
"-574 -189 CURVE SMOOTH",
"-500 -189 OFFCURVE",
"-434 -166 OFFCURVE",
"-380 -121 CURVE",
"-389 -106 LINE",
"-409 -121 OFFCURVE",
"-445 -133 OFFCURVE",
"-472 -133 CURVE SMOOTH",
"-499 -133 OFFCURVE",
"-508 -119 OFFCURVE",
"-502 -97 CURVE SMOOTH",
"-485 -33 OFFCURVE",
"-387 3 OFFCURVE",
"-294 3 CURVE SMOOTH",
"-264 3 OFFCURVE",
"-229 2 OFFCURVE",
"-189 0 CURVE",
"-184 20 LINE",
"-202 21 OFFCURVE",
"-215 42 OFFCURVE",
"-225 84 CURVE SMOOTH"
);
}
);
};
layerId = "DE547DD1-6B89-4C93-B672-7CF1D26AB89E";
paths = (
{
closed = 1;
nodes = (
"385 -189 OFFCURVE",
"448 -166 OFFCURVE",
"499 -121 CURVE",
"490 -106 LINE",
"470 -121 OFFCURVE",
"434 -133 OFFCURVE",
"407 -133 CURVE SMOOTH",
"385 -133 OFFCURVE",
"375 -124 OFFCURVE",
"375 -109 CURVE SMOOTH",
"375 -39 OFFCURVE",
"472 3 OFFCURVE",
"565 3 CURVE SMOOTH",
"583 3 OFFCURVE",
"605 2 OFFCURVE",
"630 0 CURVE",
"635 20 LINE",
"617 21 OFFCURVE",
"604 42 OFFCURVE",
"594 84 CURVE SMOOTH",
"464 713 LINE",
"459 713 OFFCURVE",
"453 713 OFFCURVE",
"448 713 CURVE",
"53 160 LINE SMOOTH",
"-6 77 OFFCURVE",
"-52 35 OFFCURVE",
"-86 20 CURVE",
"-92 0 LINE",
"-71 2 OFFCURVE",
"-40 3 OFFCURVE",
"-14 3 CURVE SMOOTH",
"32 3 OFFCURVE",
"67 2 OFFCURVE",
"116 0 CURVE",
"122 20 LINE",
"14 23 OFFCURVE",
"60 137 OFFCURVE",
"146 258 CURVE SMOOTH",
"326 510 LINE",
"306 494 LINE",
"387 104 LINE SMOOTH",
"405 18 OFFCURVE",
"404 -12 OFFCURVE",
"330 -47 CURVE SMOOTH",
"266 -77 OFFCURVE",
"222 -100 OFFCURVE",
"222 -139 CURVE SMOOTH",
"222 -170 OFFCURVE",
"263 -189 OFFCURVE",
"315 -189 CURVE SMOOTH"
);
},
{
closed = 1;
nodes = (
"408 218 LINE",
"409 238 LINE",
"121 238 LINE",
"105 218 LINE"
);
}
);
width = 674;
}
);
leftKerningGroup = A;
leftMetricsKey = A;
rightKerningGroup = A;
rightMetricsKey = A;
unicode = 0104;
},
{
glyphname = AE;
lastChange = "2019-04-09 16:41:11 +0000";
layers = (
{
anchors = (
{
name = top;
position = "{586, 708}";
}
);
background = {
paths = (
{
closed = 1;
nodes = (
"-59 2 OFFCURVE",
"-37 3 OFFCURVE",
"-8 3 CURVE SMOOTH",
"31 3 OFFCURVE",
"73 2 OFFCURVE",
"106 0 CURVE",
"112 20 LINE",
"25 22 OFFCURVE",
"35 90 OFFCURVE",
"138 206 CURVE SMOOTH",
"638 772 LINE",
"614 772 LINE",
"65 152 LINE SMOOTH",
"12 93 OFFCURVE",
"-48 37 OFFCURVE",
"-82 20 CURVE",
"-88 0 LINE"
);
},
{
closed = 1;
nodes = (
"670 346 LINE",
"675 366 LINE",
"265 366 LINE",
"250 346 LINE"
);
},
{
closed = 1;
nodes = (
"363 3 OFFCURVE",
"470 3 OFFCURVE",
"520 3 CURVE SMOOTH",
"615 3 OFFCURVE",
"679 2 OFFCURVE",
"731 0 CURVE",
"748 67 OFFCURVE",
"772 140 OFFCURVE",
"808 230 CURVE",
"785 230 LINE",
"699 68 OFFCURVE",
"642 23 OFFCURVE",
"524 23 CURVE SMOOTH",
"521 23 LINE SMOOTH",
"453 23 OFFCURVE",
"443 33 OFFCURVE",
"463 106 CURVE SMOOTH",
"601 602 LINE SMOOTH",
"621 675 OFFCURVE",
"637 685 OFFCURVE",
"705 685 CURVE SMOOTH",
"728 685 LINE SMOOTH",
"805 685 OFFCURVE",
"827 652 OFFCURVE",
"829 528 CURVE",
"852 528 LINE",
"860 598 OFFCURVE",
"872 655 OFFCURVE",
"889 708 CURVE",
"835 705 OFFCURVE",
"765 705 OFFCURVE",
"716 705 CURVE SMOOTH",
"662 705 OFFCURVE",
"545 705 OFFCURVE",
"457 708 CURVE",
"451 688 LINE",
"518 685 OFFCURVE",
"528 675 OFFCURVE",
"508 602 CURVE SMOOTH",
"370 106 LINE SMOOTH",
"350 33 OFFCURVE",
"338 23 OFFCURVE",
"285 20 CURVE",
"279 0 LINE"
);
},
{
closed = 1;
nodes = (
"691 234 LINE",
"704 300 OFFCURVE",
"711 327 OFFCURVE",
"719 356 CURVE SMOOTH",
"727 385 OFFCURVE",
"732 412 OFFCURVE",
"756 478 CURVE",
"733 478 LINE",
"716 438 OFFCURVE",
"698 366 OFFCURVE",
"628 366 CURVE",
"623 346 LINE",
"692 346 OFFCURVE",
"677 288 OFFCURVE",
"668 234 CURVE"
);
}
);
};
layerId = UUID0;
paths = (
{
closed = 1;
nodes = (
"-59 2 OFFCURVE",
"-37 3 OFFCURVE",
"-8 3 CURVE SMOOTH",
"31 3 OFFCURVE",
"73 2 OFFCURVE",
"106 0 CURVE",
"112 20 LINE",
"25 22 OFFCURVE",
"35 90 OFFCURVE",
"138 206 CURVE SMOOTH",
"638 772 LINE",
"614 772 LINE",
"65 152 LINE SMOOTH",
"11 91 OFFCURVE",
"-49 37 OFFCURVE",
"-82 20 CURVE",
"-88 0 LINE"
);
},
{
closed = 1;
nodes = (
"670 346 LINE",
"675 366 LINE",
"265 366 LINE",
"250 346 LINE"
);
},
{
closed = 1;
nodes = (
"363 3 OFFCURVE",
"470 3 OFFCURVE",
"520 3 CURVE SMOOTH",
"615 3 OFFCURVE",
"679 2 OFFCURVE",
"731 0 CURVE",
"748 67 OFFCURVE",
"772 140 OFFCURVE",
"808 230 CURVE",
"785 230 LINE",
"709 68 OFFCURVE",
"642 23 OFFCURVE",
"524 23 CURVE SMOOTH",
"521 23 LINE SMOOTH",
"453 23 OFFCURVE",
"443 33 OFFCURVE",
"463 106 CURVE SMOOTH",
"601 602 LINE SMOOTH",
"621 675 OFFCURVE",
"638 685 OFFCURVE",
"705 685 CURVE SMOOTH",
"728 685 LINE SMOOTH",
"805 685 OFFCURVE",
"827 652 OFFCURVE",
"829 528 CURVE",
"852 528 LINE",
"860 598 OFFCURVE",
"872 655 OFFCURVE",
"889 708 CURVE",
"835 705 OFFCURVE",
"765 705 OFFCURVE",
"716 705 CURVE SMOOTH",
"662 705 OFFCURVE",
"545 705 OFFCURVE",
"457 708 CURVE",
"451 688 LINE",
"528 685 OFFCURVE",
"525 663 OFFCURVE",
"508 602 CURVE SMOOTH",
"370 106 LINE SMOOTH",
"349 31 OFFCURVE",
"338 24 OFFCURVE",
"285 20 CURVE",
"279 0 LINE"
);
},
{
closed = 1;
nodes = (
"691 234 LINE",
"704 299 OFFCURVE",
"704 299 OFFCURVE",
"719 356 CURVE SMOOTH",
"730 398 OFFCURVE",
"736 423 OFFCURVE",
"756 478 CURVE",
"733 478 LINE",
"692 387 OFFCURVE",
"667 366 OFFCURVE",
"598 366 CURVE",
"593 346 LINE",
"661 346 OFFCURVE",
"677 322 OFFCURVE",
"668 234 CURVE"
);
}
);
width = 857;
},
{
anchors = (
{
name = top;
position = "{546, 708}";
}
);
background = {
anchors = (
{
name = top;
position = "{546, 708}";
}
);
paths = (
{
closed = 1;
nodes = (
"-73 2 OFFCURVE",
"-41 3 OFFCURVE",
"-14 3 CURVE SMOOTH",
"23 3 OFFCURVE",
"51 2 OFFCURVE",
"116 0 CURVE",
"122 20 LINE",
"29 24 OFFCURVE",
"45 121 OFFCURVE",
"162 258 CURVE SMOOTH",
"601 772 LINE",
"577 772 LINE",
"53 160 LINE SMOOTH",
"-9 87 OFFCURVE",
"-60 41 OFFCURVE",
"-99 20 CURVE",
"-105 0 LINE"
);
},
{
closed = 1;
nodes = (
"733 346 LINE",
"738 366 LINE",
"241 366 LINE",
"226 346 LINE"
);
},
{
closed = 1;
nodes = (
"302 2 OFFCURVE",
"412 3 OFFCURVE",
"553 3 CURVE SMOOTH",
"659 3 OFFCURVE",
"732 2 OFFCURVE",
"786 0 CURVE",
"808 81 OFFCURVE",
"837 172 OFFCURVE",
"875 280 CURVE",
"852 280 LINE",
"762 118 OFFCURVE",
"664 23 OFFCURVE",
"587 23 CURVE SMOOTH",
"584 23 LINE SMOOTH",
"523 23 OFFCURVE",
"516 35 OFFCURVE",
"536 106 CURVE SMOOTH",
"674 602 LINE SMOOTH",
"694 673 OFFCURVE",
"707 685 OFFCURVE",
"758 685 CURVE SMOOTH",
"767 685 LINE SMOOTH",
"847 685 OFFCURVE",
"889 594 OFFCURVE",
"875 468 CURVE",
"898 468 LINE",
"910 546 OFFCURVE",
"927 626 OFFCURVE",
"949 708 CURVE",
"904 706 OFFCURVE",
"844 705 OFFCURVE",
"759 705 CURVE SMOOTH",
"613 705 OFFCURVE",
"500 706 OFFCURVE",
"430 708 CURVE",
"424 688 LINE",
"484 685 OFFCURVE",
"491 673 OFFCURVE",
"471 602 CURVE SMOOTH",
"333 106 LINE SMOOTH",
"313 34 OFFCURVE",
"301 23 OFFCURVE",
"238 20 CURVE",
"232 0 LINE"
);
},
{
closed = 1;
nodes = (
"743 214 LINE",
"758 284 OFFCURVE",
"766 318 OFFCURVE",
"777 356 CURVE SMOOTH",
"787 389 OFFCURVE",
"793 422 OFFCURVE",
"819 498 CURVE",
"796 498 LINE",
"763 420 OFFCURVE",
"700 366 OFFCURVE",
"643 366 CURVE",
"638 346 LINE",
"703 346 OFFCURVE",
"734 297 OFFCURVE",
"720 214 CURVE"
);
}
);
};
layerId = "DE547DD1-6B89-4C93-B672-7CF1D26AB89E";
paths = (
{
closed = 1;
nodes = (
"-73 2 OFFCURVE",
"-41 3 OFFCURVE",
"-14 3 CURVE SMOOTH",
"23 3 OFFCURVE",
"51 2 OFFCURVE",
"116 0 CURVE",
"122 20 LINE",
"29 24 OFFCURVE",
"45 121 OFFCURVE",
"162 258 CURVE SMOOTH",
"601 772 LINE",
"577 772 LINE",
"53 160 LINE SMOOTH",
"-9 87 OFFCURVE",
"-62 41 OFFCURVE",
"-99 20 CURVE",
"-105 0 LINE"
);
},
{
closed = 1;
nodes = (
"733 346 LINE",
"738 366 LINE",
"241 366 LINE",
"226 346 LINE"
);
},
{
closed = 1;
nodes = (
"302 2 OFFCURVE",
"412 3 OFFCURVE",
"553 3 CURVE SMOOTH",
"659 3 OFFCURVE",
"732 2 OFFCURVE",
"786 0 CURVE",
"808 81 OFFCURVE",
"837 172 OFFCURVE",
"875 280 CURVE",
"852 280 LINE",
"772 118 OFFCURVE",
"674 23 OFFCURVE",
"587 23 CURVE SMOOTH",
"584 23 LINE SMOOTH",
"523 23 OFFCURVE",
"516 35 OFFCURVE",
"536 106 CURVE SMOOTH",
"674 602 LINE SMOOTH",
"697 686 OFFCURVE",
"718 685 OFFCURVE",
"758 685 CURVE SMOOTH",
"767 685 LINE SMOOTH",
"847 685 OFFCURVE",
"889 594 OFFCURVE",
"875 468 CURVE",
"898 468 LINE",
"910 546 OFFCURVE",
"927 626 OFFCURVE",
"949 708 CURVE",
"904 706 OFFCURVE",
"844 705 OFFCURVE",
"759 705 CURVE SMOOTH",
"613 705 OFFCURVE",
"500 706 OFFCURVE",
"430 708 CURVE",
"424 688 LINE",
"491 685 OFFCURVE",
"488 663 OFFCURVE",
"471 602 CURVE SMOOTH",
"333 106 LINE SMOOTH",
"312 32 OFFCURVE",
"301 24 OFFCURVE",
"238 20 CURVE",
"232 0 LINE"
);
},
{
closed = 1;
nodes = (
"743 214 LINE",
"761 299 OFFCURVE",
"765 313 OFFCURVE",
"777 356 CURVE SMOOTH",
"815 491 OFFCURVE",
"793 413 OFFCURVE",
"819 498 CURVE",
"796 498 LINE",
"756 406 OFFCURVE",
"704 366 OFFCURVE",
"623 366 CURVE",
"618 346 LINE",
"690 346 OFFCURVE",
"726 299 OFFCURVE",
"720 214 CURVE"
);
}
);
width = 901;
}
);
leftKerningGroup = AE;
rightKerningGroup = E;
rightMetricsKey = E;
unicode = 00C6;
},
{
glyphname = B;
lastChange = "2019-04-16 17:11:00 +0000";
layers = (
{
anchors = (
{
name = bottom;
position = "{260, 0}";
},
{
name = top;
position = "{411, 708}";
}
);
background = {
anchors = (
{
name = bottom;
position = "{260, 0}";
},
{
name = top;
position = "{411, 708}";
}
);
paths = (
{
closed = 1;
nodes = (
"0 2 OFFCURVE",
"44 3 OFFCURVE",
"97 3 CURVE SMOOTH",
"166 3 OFFCURVE",
"218 0 OFFCURVE",
"269 0 CURVE SMOOTH",
"442 0 OFFCURVE",
"567 89 OFFCURVE",
"567 211 CURVE SMOOTH",
"567 303 OFFCURVE",
"513 357 OFFCURVE",
"407 374 CURVE",
"534 414 OFFCURVE",
"614 493 OFFCURVE",
"614 579 CURVE SMOOTH",
"614 661 OFFCURVE",
"546 707 OFFCURVE",
"426 707 CURVE SMOOTH",
"376 707 OFFCURVE",
"331 705 OFFCURVE",
"285 705 CURVE SMOOTH",
"234 705 OFFCURVE",
"190 706 OFFCURVE",
"166 708 CURVE",
"161 688 LINE",
"228 687 OFFCURVE",
"239 672 OFFCURVE",
"220 602 CURVE SMOOTH",
"82 106 LINE SMOOTH",
"62 34 OFFCURVE",
"48 23 OFFCURVE",
"-21 20 CURVE",
"-25 0 LINE"
);
},
{
closed = 1;
nodes = (
"165 23 OFFCURVE",
"156 37 OFFCURVE",
"175 106 CURVE SMOOTH",
"316 617 LINE SMOOTH",
"332 675 OFFCURVE",
"348 688 OFFCURVE",
"407 688 CURVE SMOOTH",
"481 688 OFFCURVE",
"515 652 OFFCURVE",
"515 572 CURVE SMOOTH",
"515 461 OFFCURVE",
"429 376 OFFCURVE",
"316 376 CURVE SMOOTH",
"238 376 LINE",
"234 359 LINE",
"328 359 LINE SMOOTH",
"422 359 OFFCURVE",
"467 316 OFFCURVE",
"467 226 CURVE SMOOTH",
"467 88 OFFCURVE",
"390 23 OFFCURVE",
"226 23 CURVE SMOOTH"
);
}
);
};
guideLines = (
{
angle = 74.4;
position = "{82, 106}";
}
);
hints = (
{
horizontal = 1;
origin = "{0, 23}";
target = down;
type = TopGhost;
},
{
horizontal = 1;
origin = "{1, 15}";
target = "{1, 12}";
type = Stem;
},
{
horizontal = 1;
origin = "{0, 32}";
target = "{0, 31}";
type = Stem;
}
);
layerId = UUID0;
paths = (
{
closed = 1;
nodes = (
"-4 2 OFFCURVE",
"39 3 OFFCURVE",
"103 3 CURVE SMOOTH",
"184 3 OFFCURVE",
"228 0 OFFCURVE",
"260 0 CURVE SMOOTH",
"447 0 OFFCURVE",
"567 82 OFFCURVE",
"567 210 CURVE SMOOTH",
"567 299 OFFCURVE",
"487 360 OFFCURVE",
"381 369 CURVE",
"525 392 OFFCURVE",
"614 469 OFFCURVE",
"614 569 CURVE SMOOTH",
"614 658 OFFCURVE",
"542 707 OFFCURVE",
"412 707 CURVE SMOOTH",
"390 707 OFFCURVE",
"350 705 OFFCURVE",
"289 705 CURVE SMOOTH",
"227 705 OFFCURVE",
"185 706 OFFCURVE",
"166 708 CURVE",
"161 688 LINE",
"228 687 OFFCURVE",
"239 672 OFFCURVE",
"220 602 CURVE SMOOTH",
"82 106 LINE SMOOTH",
"62 36 OFFCURVE",
"51 27 OFFCURVE",
"-21 20 CURVE",
"-25 0 LINE"
);
},
{
closed = 1;
nodes = (
"166 23 OFFCURVE",
"156 36 OFFCURVE",
"175 106 CURVE SMOOTH",
"315 617 LINE SMOOTH",
"325 652 OFFCURVE",
"332 688 OFFCURVE",
"402 688 CURVE SMOOTH",
"475 688 OFFCURVE",
"515 648 OFFCURVE",
"515 573 CURVE SMOOTH",
"515 461 OFFCURVE",
"429 376 OFFCURVE",
"316 376 CURVE SMOOTH",
"238 376 LINE",
"234 359 LINE",
"298 359 LINE SMOOTH",
"409 359 OFFCURVE",
"467 309 OFFCURVE",
"467 213 CURVE SMOOTH",
"467 96 OFFCURVE",
"379 23 OFFCURVE",
"237 23 CURVE SMOOTH"
);
}
);
width = 640;
},
{
anchors = (
{
name = bottom;
position = "{297, 0}";
},
{
name = top;
position = "{465, 708}";
}
);
background = {
anchors = (
{
name = bottom;
position = "{297, 0}";
},
{
name = top;
position = "{465, 708}";
}
);
paths = (
{
closed = 1;
nodes = (
"-9 2 OFFCURVE",
"63 3 OFFCURVE",
"136 3 CURVE SMOOTH",
"229 3 OFFCURVE",
"277 0 OFFCURVE",
"313 0 CURVE SMOOTH",
"534 0 OFFCURVE",
"663 81 OFFCURVE",
"663 220 CURVE SMOOTH",
"663 313 OFFCURVE",
"560 372 OFFCURVE",
"400 370 CURVE",
"587 376 OFFCURVE",
"715 458 OFFCURVE",
"715 572 CURVE SMOOTH",
"715 662 OFFCURVE",
"634 707 OFFCURVE",
"473 707 CURVE SMOOTH",
"431 707 OFFCURVE",
"396 705 OFFCURVE",
"324 705 CURVE SMOOTH",
"251 705 OFFCURVE",
"180 706 OFFCURVE",
"150 708 CURVE",
"145 688 LINE",
"213 686 OFFCURVE",
"223 672 OFFCURVE",
"204 602 CURVE SMOOTH",
"66 106 LINE SMOOTH",
"46 34 OFFCURVE",
"32 23 OFFCURVE",
"-37 20 CURVE",
"-41 0 LINE"
);
},
{
closed = 1;
nodes = (
"263 23 OFFCURVE",
"253 49 OFFCURVE",
"269 106 CURVE SMOOTH",
"410 617 LINE SMOOTH",
"426 675 OFFCURVE",
"435 688 OFFCURVE",
"463 688 CURVE SMOOTH",
"502 688 OFFCURVE",
"519 662 OFFCURVE",
"519 603 CURVE SMOOTH",
"519 472 OFFCURVE",
"451 376 OFFCURVE",
"358 376 CURVE SMOOTH",
"291 376 LINE",
"287 359 LINE",
"358 359 LINE SMOOTH",
"419 359 OFFCURVE",
"451 318 OFFCURVE",
"451 240 CURVE SMOOTH",
"451 124 OFFCURVE",
"381 23 OFFCURVE",
"301 23 CURVE SMOOTH"
);
}
);
};
guideLines = (
{
angle = 74.4;
position = "{66, 106}";
}
);
layerId = "DE547DD1-6B89-4C93-B672-7CF1D26AB89E";
paths = (
{
closed = 1;
nodes = (
"-29 2 OFFCURVE",
"41 3 OFFCURVE",
"144 3 CURVE SMOOTH",
"223 3 OFFCURVE",
"274 0 OFFCURVE",
"315 0 CURVE SMOOTH",
"560 0 OFFCURVE",
"663 82 OFFCURVE",
"663 204 CURVE SMOOTH",
"663 302 OFFCURVE",
"580 368 OFFCURVE",
"420 368 CURVE",
"602 374 OFFCURVE",
"715 448 OFFCURVE",
"715 561 CURVE SMOOTH",
"715 658 OFFCURVE",
"631 707 OFFCURVE",
"464 707 CURVE SMOOTH",
"434 707 OFFCURVE",
"376 705 OFFCURVE",
"321 705 CURVE SMOOTH",
"229 705 OFFCURVE",
"172 706 OFFCURVE",
"150 708 CURVE",
"145 688 LINE",
"213 686 OFFCURVE",
"223 672 OFFCURVE",
"204 602 CURVE SMOOTH",
"66 106 LINE SMOOTH",
"47 39 OFFCURVE",
"33 27 OFFCURVE",
"-37 20 CURVE",
"-41 0 LINE"
);
},
{
closed = 1;
nodes = (
"265 23 OFFCURVE",
"253 49 OFFCURVE",
"269 106 CURVE SMOOTH",
"413 628 LINE SMOOTH",
"422 659 OFFCURVE",
"428 688 OFFCURVE",
"466 688 CURVE SMOOTH",
"507 688 OFFCURVE",
"529 654 OFFCURVE",
"529 593 CURVE SMOOTH",
"529 474 OFFCURVE",
"452 376 OFFCURVE",
"358 376 CURVE SMOOTH",
"311 376 LINE",
"307 359 LINE",
"348 359 LINE SMOOTH",
"421 359 OFFCURVE",
"462 312 OFFCURVE",
"462 229 CURVE SMOOTH",
"462 119 OFFCURVE",
"390 23 OFFCURVE",
"308 23 CURVE SMOOTH"
);
}
);
width = 717;
}
);
leftKerningGroup = I;
leftMetricsKey = I;
rightKerningGroup = B;
unicode = 0042;
},
{
glyphname = C;
lastChange = "2019-04-16 15:14:11 +0000";
layers = (
{
anchors = (
{
name = bottom;
position = "{358, 0}";
},
{
name = top;
position = "{461, 708}";
}
);
background = {
anchors = (
{
name = bottom;
position = "{298, 0}";
},
{
name = top;
position = "{501, 708}";
}
);
paths = (
{
closed = 1;
nodes = (
"460 -14 OFFCURVE",
"501 60 OFFCURVE",
"526 60 CURVE SMOOTH",
"539 60 OFFCURVE",
"542 41 OFFCURVE",
"536 0 CURVE",
"558 0 LINE",
"567 49 OFFCURVE",
"583 114 OFFCURVE",
"617 240 CURVE",
"595 240 LINE",
"543 85 OFFCURVE",
"459 4 OFFCURVE",
"351 4 CURVE SMOOTH",
"240 4 OFFCURVE",
"182 90 OFFCURVE",
"182 254 CURVE SMOOTH",
"182 505 OFFCURVE",
"317 704 OFFCURVE",
"488 704 CURVE SMOOTH",
"604 704 OFFCURVE",
"664 612 OFFCURVE",
"636 478 CURVE",
"658 478 LINE",
"679 565 OFFCURVE",
"700 641 OFFCURVE",
"722 708 CURVE",
"701 708 LINE",
"682 660 OFFCURVE",
"675 649 OFFCURVE",
"663 649 CURVE SMOOTH",
"633 649 OFFCURVE",
"601 722 OFFCURVE",
"470 722 CURVE SMOOTH",
"255 722 OFFCURVE",
"80 523 OFFCURVE",
"80 279 CURVE SMOOTH",
"80 98 OFFCURVE",
"177 -14 OFFCURVE",
"333 -14 CURVE SMOOTH"
);
}
);
};
hints = (
{
horizontal = 1;
origin = "{0, 33}";
target = down;
type = TopGhost;
},
{
horizontal = 1;
origin = "{0, 0}";
target = up;
type = BottomGhost;
}
);
layerId = UUID0;
paths = (
{
closed = 1;
nodes = (
"460 -14 OFFCURVE",
"501 60 OFFCURVE",
"526 60 CURVE SMOOTH",
"539 60 OFFCURVE",
"541 41 OFFCURVE",
"535 0 CURVE",
"558 0 LINE",
"567 49 OFFCURVE",
"583 114 OFFCURVE",
"617 240 CURVE",
"594 240 LINE",
"542 85 OFFCURVE",
"459 4 OFFCURVE",
"351 4 CURVE SMOOTH",
"239 4 OFFCURVE",
"180 80 OFFCURVE",
"180 254 CURVE SMOOTH",
"180 505 OFFCURVE",
"316 704 OFFCURVE",
"488 704 CURVE SMOOTH",
"604 704 OFFCURVE",
"663 612 OFFCURVE",
"635 478 CURVE",
"658 478 LINE",
"679 565 OFFCURVE",
"700 641 OFFCURVE",
"722 708 CURVE",
"699 708 LINE",
"680 660 OFFCURVE",
"675 649 OFFCURVE",
"663 649 CURVE SMOOTH",
"633 649 OFFCURVE",
"601 722 OFFCURVE",
"470 722 CURVE SMOOTH",
"255 722 OFFCURVE",
"80 523 OFFCURVE",
"80 279 CURVE SMOOTH",
"80 88 OFFCURVE",
"177 -14 OFFCURVE",
"333 -14 CURVE SMOOTH"
);
}
);
width = 680;
},
{
anchors = (
{
name = bottom;
position = "{372, 0}";
},
{
name = top;
position = "{483, 708}";
}
);
background = {
anchors = (
{
name = bottom;
position = "{322, 0}";
},
{
name = top;
position = "{493, 708}";
}
);
paths = (
{
closed = 1;
nodes = (
"481 -14 OFFCURVE",
"520 60 OFFCURVE",
"551 60 CURVE SMOOTH",
"567 60 OFFCURVE",
"571 42 OFFCURVE",
"565 0 CURVE",
"587 0 LINE",
"596 49 OFFCURVE",
"612 114 OFFCURVE",
"646 240 CURVE",
"624 240 LINE",
"570 98 OFFCURVE",
"499 27 OFFCURVE",
"411 27 CURVE SMOOTH",
"322 27 OFFCURVE",
"276 98 OFFCURVE",
"276 234 CURVE SMOOTH",
"276 478 OFFCURVE",
"414 688 OFFCURVE",
"561 688 CURVE SMOOTH",
"652 688 OFFCURVE",
"695 603 OFFCURVE",
"668 478 CURVE",
"690 478 LINE",
"711 568 OFFCURVE",
"732 643 OFFCURVE",
"754 708 CURVE",
"733 708 LINE",
"718 666 OFFCURVE",
"707 648 OFFCURVE",
"696 648 CURVE SMOOTH",
"674 648 OFFCURVE",
"627 722 OFFCURVE",
"484 722 CURVE SMOOTH",
"253 722 OFFCURVE",
"70 526 OFFCURVE",
"70 279 CURVE SMOOTH",
"70 97 OFFCURVE",
"174 -14 OFFCURVE",
"344 -14 CURVE SMOOTH"
);
}
);
};
guideLines = (
{
angle = 74.4;
position = "{407, 255}";
}
);
layerId = "DE547DD1-6B89-4C93-B672-7CF1D26AB89E";
paths = (
{
closed = 1;
nodes = (
"481 -14 OFFCURVE",
"519 60 OFFCURVE",
"551 60 CURVE SMOOTH",
"567 60 OFFCURVE",
"570 45 OFFCURVE",
"564 0 CURVE",
"587 0 LINE",
"596 49 OFFCURVE",
"612 114 OFFCURVE",
"646 240 CURVE",
"623 240 LINE",
"568 95 OFFCURVE",
"499 27 OFFCURVE",
"408 27 CURVE SMOOTH",
"316 27 OFFCURVE",
"267 100 OFFCURVE",
"267 237 CURVE SMOOTH",
"267 471 OFFCURVE",
"407 688 OFFCURVE",
"559 688 CURVE SMOOTH",
"652 688 OFFCURVE",
"694 605 OFFCURVE",
"667 478 CURVE",
"690 478 LINE",
"711 565 OFFCURVE",
"732 641 OFFCURVE",
"754 708 CURVE",
"731 708 LINE",
"715 664 OFFCURVE",
"706 648 OFFCURVE",
"696 648 CURVE SMOOTH",
"674 648 OFFCURVE",
"625 722 OFFCURVE",
"486 722 CURVE SMOOTH",
"258 722 OFFCURVE",
"70 521 OFFCURVE",
"70 278 CURVE SMOOTH",
"70 98 OFFCURVE",
"175 -14 OFFCURVE",
"344 -14 CURVE SMOOTH"
);
}
);
width = 694;
}
);
leftKerningGroup = O;
leftMetricsKey = O;
rightKerningGroup = C;
unicode = 0043;
},
{
glyphname = D;
lastChange = "2019-04-15 16:04:29 +0000";
layers = (
{
anchors = (
{
name = bottom;
position = "{309, 0}";
},
{
name = center;
position = "{239, 354}";
},
{
name = top;
position = "{420, 708}";
}
);
background = {
anchors = (
{
name = bottom;
position = "{309, 0}";
},
{
name = center;
position = "{239, 354}";
},
{
name = top;
position = "{420, 708}";
}
);
paths = (
{
closed = 1;
nodes = (
"714 631 OFFCURVE",
"621 708 OFFCURVE",
"432 708 CURVE SMOOTH",
"394 708 OFFCURVE",
"327 706 OFFCURVE",
"281 705 CURVE SMOOTH",
"237 704 OFFCURVE",
"187 706 OFFCURVE",
"159 708 CURVE",
"156 688 LINE",
"230 686 OFFCURVE",
"231 668 OFFCURVE",
"214 602 CURVE SMOOTH",
"83 106 LINE SMOOTH",
"64 33 OFFCURVE",
"47 23 OFFCURVE",
"-17 20 CURVE",
"-20 0 LINE",
"6 2 OFFCURVE",
"53 3 OFFCURVE",
"100 3 CURVE SMOOTH",
"143 3 OFFCURVE",
"210 0 OFFCURVE",
"240 0 CURVE SMOOTH",
"515 0 OFFCURVE",
"714 237 OFFCURVE",
"714 487 CURVE SMOOTH"
);
},
{
closed = 1;
nodes = (
"157 18 OFFCURVE",
"160 45 OFFCURVE",
"176 104 CURVE SMOOTH",
"307 604 LINE SMOOTH",
"325 673 OFFCURVE",
"343 690 OFFCURVE",
"404 690 CURVE SMOOTH",
"556 690 OFFCURVE",
"618 631 OFFCURVE",
"618 512 CURVE SMOOTH",
"618 252 OFFCURVE",
"485 18 OFFCURVE",
"228 18 CURVE SMOOTH"
);
}
);
};
guideLines = (
{
angle = 74.4;
position = "{83, 106}";
}
);
hints = (
{
horizontal = 1;
origin = "{0, 17}";
target = "{0, 18}";
type = Stem;
},
{
horizontal = 1;
origin = "{0, 26}";
target = "{0, 25}";
type = Stem;
}
);
layerId = UUID0;
paths = (
{
closed = 1;
nodes = (
"-6 2 OFFCURVE",
"27 3 OFFCURVE",
"77 3 CURVE SMOOTH",
"164 3 OFFCURVE",
"204 0 OFFCURVE",
"239 0 CURVE SMOOTH",
"509 0 OFFCURVE",
"701 173 OFFCURVE",
"701 415 CURVE SMOOTH",
"701 599 OFFCURVE",
"592 707 OFFCURVE",
"406 707 CURVE SMOOTH",
"380 707 OFFCURVE",
"325 705 OFFCURVE",
"269 705 CURVE SMOOTH",
"230 705 OFFCURVE",
"195 706 OFFCURVE",
"166 708 CURVE",
"163 688 LINE",
"244 686 OFFCURVE",
"236 658 OFFCURVE",
"221 602 CURVE SMOOTH",
"83 106 LINE SMOOTH",
"64 37 OFFCURVE",
"53 28 OFFCURVE",
"-17 20 CURVE",
"-20 0 LINE"
);
},
{
closed = 1;
nodes = (
"169 18 OFFCURVE",
"156 35 OFFCURVE",
"176 104 CURVE SMOOTH",
"320 622 LINE SMOOTH",
"329 654 OFFCURVE",
"337 690 OFFCURVE",
"408 690 CURVE SMOOTH",
"527 690 OFFCURVE",
"601 587 OFFCURVE",
"601 422 CURVE SMOOTH",
"601 189 OFFCURVE",
"450 18 OFFCURVE",
"242 18 CURVE SMOOTH"
);
}
);
width = 728;
},
{
anchors = (
{
name = bottom;
position = "{343, 0}";
},
{
name = center;
position = "{245, 354}";
},
{
name = top;
position = "{474, 708}";
}
);
background = {
anchors = (
{
name = bottom;
position = "{343, 0}";
},
{
name = center;
position = "{245, 354}";
},
{
name = top;
position = "{474, 708}";
}
);
paths = (
{
closed = 1;
nodes = (
"798 625 OFFCURVE",
"679 708 OFFCURVE",
"483 708 CURVE SMOOTH",
"445 708 OFFCURVE",
"363 706 OFFCURVE",
"335 705 CURVE SMOOTH",
"272 704 OFFCURVE",
"185 706 OFFCURVE",
"143 708 CURVE",
"140 688 LINE",
"209 684 OFFCURVE",
"211 653 OFFCURVE",
"198 602 CURVE SMOOTH",
"67 106 LINE SMOOTH",
"48 33 OFFCURVE",
"31 23 OFFCURVE",
"-33 20 CURVE",
"-36 0 LINE",
"4 2 OFFCURVE",
"87 3 OFFCURVE",
"134 3 CURVE SMOOTH",
"215 3 OFFCURVE",
"259 0 OFFCURVE",
"292 0 CURVE SMOOTH",
"664 0 OFFCURVE",
"798 260 OFFCURVE",
"798 457 CURVE SMOOTH"
);
},
{
closed = 1;
nodes = (
"248 18 OFFCURVE",
"252 36 OFFCURVE",
"270 104 CURVE SMOOTH",
"401 604 LINE SMOOTH",
"421 679 OFFCURVE",
"421 690 OFFCURVE",
"465 690 CURVE SMOOTH",
"554 690 OFFCURVE",
"592 619 OFFCURVE",
"592 493 CURVE SMOOTH",
"592 287 OFFCURVE",
"486 18 OFFCURVE",
"300 18 CURVE SMOOTH"
);
}
);
};
guideLines = (
{
angle = 74.4;
position = "{67, 106}";
},
{
angle = 74.4;
position = "{381, 105}";
}
);
layerId = "DE547DD1-6B89-4C93-B672-7CF1D26AB89E";
paths = (
{
closed = 1;
nodes = (
"-20 2 OFFCURVE",
"30 3 OFFCURVE",
"109 3 CURVE SMOOTH",
"240 3 OFFCURVE",
"250 0 OFFCURVE",
"289 0 CURVE SMOOTH",
"582 0 OFFCURVE",
"785 167 OFFCURVE",
"785 409 CURVE SMOOTH",
"785 596 OFFCURVE",
"663 708 OFFCURVE",
"460 708 CURVE SMOOTH",
"427 708 OFFCURVE",
"363 705 OFFCURVE",
"322 705 CURVE SMOOTH",
"270 705 OFFCURVE",
"192 705 OFFCURVE",
"150 708 CURVE",
"147 688 LINE",
"206 685 OFFCURVE",
"221 663 OFFCURVE",
"205 602 CURVE SMOOTH",
"67 106 LINE SMOOTH",
"47 35 OFFCURVE",
"37 27 OFFCURVE",
"-33 20 CURVE",
"-36 0 LINE"
);
},
{
closed = 1;
nodes = (
"246 18 OFFCURVE",
"254 46 OFFCURVE",
"270 104 CURVE SMOOTH",
"416 631 LINE SMOOTH",
"426 666 OFFCURVE",
"432 690 OFFCURVE",
"468 690 CURVE SMOOTH",
"539 690 OFFCURVE",
"583 605 OFFCURVE",
"583 467 CURVE SMOOTH",
"583 226 OFFCURVE",
"452 18 OFFCURVE",
"300 18 CURVE SMOOTH"
);
}
);
width = 806;
}
);
leftKerningGroup = I;
leftMetricsKey = I;
rightKerningGroup = O;
rightMetricsKey = O;
unicode = 0044;
},
{
glyphname = E;
lastChange = "2019-04-15 16:43:05 +0000";
layers = (
{
anchors = (
{
name = bottom;
position = "{271, 0}";
},
{
name = ogonek;
position = "{475, 0}";
},
{
name = top;
position = "{416, 708}";
}
);
background = {
anchors = (
{
name = bottom;
position = "{271, 0}";
},
{
name = ogonek;
position = "{475, 0}";
},
{
name = top;
position = "{426, 708}";
}
);
paths = (
{
closed = 1;
nodes = (
"588 705 OFFCURVE",
"510 705 OFFCURVE",
"455 705 CURVE SMOOTH",
"327 705 OFFCURVE",
"228 706 OFFCURVE",
"166 708 CURVE",
"160 688 LINE",
"229 685 OFFCURVE",
"237 673 OFFCURVE",
"217 602 CURVE SMOOTH",
"79 106 LINE SMOOTH",
"59 35 OFFCURVE",
"45 23 OFFCURVE",
"-26 20 CURVE",
"-32 0 LINE",
"32 2 OFFCURVE",
"131 3 OFFCURVE",
"259 3 CURVE SMOOTH",
"363 3 OFFCURVE",
"433 2 OFFCURVE",
"490 0 CURVE",
"507 67 OFFCURVE",
"531 140 OFFCURVE",
"567 230 CURVE",
"544 230 LINE",
"464 68 OFFCURVE",
"403 23 OFFCURVE",
"263 23 CURVE SMOOTH",
"230 23 LINE SMOOTH",
"160 23 OFFCURVE",
"152 35 OFFCURVE",
"172 106 CURVE SMOOTH",
"310 602 LINE SMOOTH",
"330 673 OFFCURVE",
"344 685 OFFCURVE",
"414 685 CURVE SMOOTH",
"487 685 LINE SMOOTH",
"564 685 OFFCURVE",
"586 652 OFFCURVE",
"588 528 CURVE",
"611 528 LINE",
"619 598 OFFCURVE",
"631 655 OFFCURVE",
"648 708 CURVE"
);
},
{
closed = 1;
nodes = (
"214 366 LINE",
"209 346 LINE",
"402 346 LINE",
"407 366 LINE"
);
},
{
closed = 1;
nodes = (
"470 498 LINE",
"449 450 OFFCURVE",
"427 366 OFFCURVE",
"340 366 CURVE",
"335 346 LINE",
"422 346 OFFCURVE",
"404 278 OFFCURVE",
"394 214 CURVE",
"417 214 LINE",
"435 296 OFFCURVE",
"442 324 OFFCURVE",
"451 356 CURVE SMOOTH",
"460 389 OFFCURVE",
"467 422 OFFCURVE",
"493 498 CURVE"
);
}
);
};
hints = (
{
horizontal = 1;
place = "{708, 20}";
type = Stem;
},
{
horizontal = 1;
place = "{346, 20}";
type = Stem;
},
{
horizontal = 1;
place = "{0, 20}";
type = Stem;
}
);
layerId = UUID0;
paths = (
{
closed = 1;
nodes = (
"32 2 OFFCURVE",
"131 3 OFFCURVE",
"259 3 CURVE SMOOTH",
"363 3 OFFCURVE",
"433 2 OFFCURVE",
"490 0 CURVE",
"507 67 OFFCURVE",
"531 140 OFFCURVE",
"567 230 CURVE",
"544 230 LINE",
"464 68 OFFCURVE",
"403 23 OFFCURVE",
"263 23 CURVE SMOOTH",
"230 23 LINE SMOOTH",
"160 23 OFFCURVE",
"152 35 OFFCURVE",
"172 106 CURVE SMOOTH",
"310 602 LINE SMOOTH",
"330 673 OFFCURVE",
"344 685 OFFCURVE",
"414 685 CURVE SMOOTH",
"487 685 LINE SMOOTH",
"564 685 OFFCURVE",
"586 652 OFFCURVE",
"588 528 CURVE",
"611 528 LINE",
"619 598 OFFCURVE",
"631 655 OFFCURVE",
"648 708 CURVE",
"588 705 OFFCURVE",
"510 705 OFFCURVE",
"455 705 CURVE SMOOTH",
"327 705 OFFCURVE",
"228 706 OFFCURVE",
"166 708 CURVE",
"160 688 LINE",
"229 685 OFFCURVE",
"237 673 OFFCURVE",
"217 602 CURVE SMOOTH",
"79 106 LINE SMOOTH",
"59 35 OFFCURVE",
"45 23 OFFCURVE",
"-26 20 CURVE",
"-32 0 LINE"
);
},
{
closed = 1;
nodes = (
"402 346 LINE",
"407 366 LINE",
"214 366 LINE",
"209 346 LINE"
);
},
{
closed = 1;
nodes = (
"419 214 LINE",
"430 270 OFFCURVE",
"439 308 OFFCURVE",
"451 356 CURVE SMOOTH",
"464 405 OFFCURVE",
"477 452 OFFCURVE",
"493 498 CURVE",
"470 498 LINE",
"427 391 OFFCURVE",
"392 366 OFFCURVE",
"320 366 CURVE",
"315 346 LINE",
"379 346 OFFCURVE",
"405 318 OFFCURVE",
"396 214 CURVE"
);
}
);
width = 606;
},
{
anchors = (
{
name = bottom;
position = "{274, 0}";
},
{
name = ogonek;
position = "{512, 0}";
},
{
name = top;
position = "{443, 708}";
}
);
background = {
anchors = (
{
name = bottom;
position = "{274, 0}";
},
{
name = ogonek;
position = "{512, 0}";
},
{
name = top;
position = "{423, 708}";
}
);
paths = (
{
closed = 1;
nodes = (
"647 706 OFFCURVE",
"590 705 OFFCURVE",
"500 705 CURVE SMOOTH",
"345 705 OFFCURVE",
"225 706 OFFCURVE",
"151 708 CURVE",
"145 688 LINE",
"205 685 OFFCURVE",
"212 673 OFFCURVE",
"192 602 CURVE SMOOTH",
"54 106 LINE SMOOTH",
"34 34 OFFCURVE",
"22 23 OFFCURVE",
"-41 20 CURVE",
"-47 0 LINE",
"29 2 OFFCURVE",
"149 3 OFFCURVE",
"304 3 CURVE SMOOTH",
"416 3 OFFCURVE",
"487 2 OFFCURVE",
"537 0 CURVE",
"560 87 OFFCURVE",
"591 181 OFFCURVE",
"626 280 CURVE",
"603 280 LINE",
"524 118 OFFCURVE",
"431 23 OFFCURVE",
"298 23 CURVE SMOOTH",
"285 23 LINE SMOOTH",
"242 23 OFFCURVE",
"236 33 OFFCURVE",
"251 86 CURVE SMOOTH",
"401 622 LINE SMOOTH",
"416 676 OFFCURVE",
"426 685 OFFCURVE",
"479 685 CURVE SMOOTH",
"492 685 LINE SMOOTH",
"585 685 OFFCURVE",
"628 611 OFFCURVE",
"616 468 CURVE",
"639 468 LINE",
"652 552 OFFCURVE",
"669 631 OFFCURVE",
"690 708 CURVE"
);
},
{
closed = 1;
nodes = (
"299 366 LINE",
"294 346 LINE",
"464 346 LINE",
"469 366 LINE"
);
},
{
closed = 1;
nodes = (
"532 498 LINE",
"497 420 OFFCURVE",
"426 366 OFFCURVE",
"359 366 CURVE",
"354 346 LINE",
"430 346 OFFCURVE",
"468 297 OFFCURVE",
"456 214 CURVE",
"479 214 LINE",
"497 296 OFFCURVE",
"504 324 OFFCURVE",
"513 356 CURVE SMOOTH",
"522 389 OFFCURVE",
"529 422 OFFCURVE",
"555 498 CURVE"
);
}
);
};
layerId = "DE547DD1-6B89-4C93-B672-7CF1D26AB89E";
paths = (
{
closed = 1;
nodes = (
"29 2 OFFCURVE",
"149 3 OFFCURVE",
"304 3 CURVE SMOOTH",
"416 3 OFFCURVE",
"487 2 OFFCURVE",
"537 0 CURVE",
"560 87 OFFCURVE",
"591 181 OFFCURVE",
"626 280 CURVE",
"603 280 LINE",
"524 118 OFFCURVE",
"431 23 OFFCURVE",
"298 23 CURVE SMOOTH",
"285 23 LINE SMOOTH",
"242 23 OFFCURVE",
"236 33 OFFCURVE",
"251 86 CURVE SMOOTH",
"401 622 LINE SMOOTH",
"416 676 OFFCURVE",
"426 685 OFFCURVE",
"479 685 CURVE SMOOTH",
"492 685 LINE SMOOTH",
"585 685 OFFCURVE",
"628 611 OFFCURVE",
"616 468 CURVE",
"639 468 LINE",
"652 552 OFFCURVE",
"669 631 OFFCURVE",
"690 708 CURVE",
"647 706 OFFCURVE",
"590 705 OFFCURVE",
"500 705 CURVE SMOOTH",
"345 705 OFFCURVE",
"225 706 OFFCURVE",
"151 708 CURVE",
"145 688 LINE",
"205 685 OFFCURVE",
"212 673 OFFCURVE",
"192 602 CURVE SMOOTH",
"54 106 LINE SMOOTH",
"34 34 OFFCURVE",
"22 23 OFFCURVE",
"-41 20 CURVE",
"-47 0 LINE"
);
},
{
closed = 1;
nodes = (
"464 346 LINE",
"469 366 LINE",
"299 366 LINE",
"294 346 LINE"
);
},
{
closed = 1;
nodes = (
"479 214 LINE",
"497 299 OFFCURVE",
"501 313 OFFCURVE",
"513 356 CURVE SMOOTH",
"551 491 OFFCURVE",
"529 413 OFFCURVE",
"555 498 CURVE",
"532 498 LINE",
"492 406 OFFCURVE",
"440 366 OFFCURVE",
"359 366 CURVE",
"354 346 LINE",
"426 346 OFFCURVE",
"462 299 OFFCURVE",
"456 214 CURVE"
);
}
);
width = 642;
}
);
leftKerningGroup = I;
leftMetricsKey = I;
rightKerningGroup = E;
unicode = 0045;
},
{
glyphname = Ezh;
lastChange = "2019-04-09 19:06:41 +0000";
layers = (
{
anchors = (
{
name = bottom;
position = "{240, 0}";
},
{
name = top;
position = "{385, 708}";
}
);
background = {
anchors = (
{
name = bottom;
position = "{240, 0}";
},
{
name = top;
position = "{385, 708}";
}
);
paths = (
{
closed = 1;
nodes = (
"390 -14 OFFCURVE",
"521 87 OFFCURVE",
"521 210 CURVE SMOOTH",
"521 293 OFFCURVE",
"461 356 OFFCURVE",
"356 384 CURVE",
"367 368 LINE",
"639 688 LINE",
"645 708 LINE",
"533 706 OFFCURVE",
"467 705 OFFCURVE",
"391 705 CURVE SMOOTH",
"298 705 OFFCURVE",
"226 706 OFFCURVE",
"183 708 CURVE",
"166 637 OFFCURVE",
"143 569 OFFCURVE",
"108 488 CURVE",
"131 488 LINE",
"203 646 OFFCURVE",
"259 685 OFFCURVE",
"413 685 CURVE SMOOTH",
"542 685 LINE",
"308 410 LINE",
"302 390 LINE",
"379 373 OFFCURVE",
"428 303 OFFCURVE",
"428 211 CURVE SMOOTH",
"428 90 OFFCURVE",
"341 4 OFFCURVE",
"219 4 CURVE SMOOTH",
"97 4 OFFCURVE",
"32 93 OFFCURVE",
"52 230 CURVE",
"29 230 LINE",
"6 139 OFFCURVE",
"-13 72 OFFCURVE",
"-39 0 CURVE",
"-16 0 LINE",
"0 43 OFFCURVE",
"12 59 OFFCURVE",
"27 59 CURVE SMOOTH",
"58 59 OFFCURVE",
"95 -14 OFFCURVE",
"230 -14 CURVE SMOOTH"
);
}
);
};
layerId = UUID0;
paths = (
{
closed = 1;
nodes = (
"391 -14 OFFCURVE",
"522 87 OFFCURVE",
"522 210 CURVE SMOOTH",
"522 293 OFFCURVE",
"462 356 OFFCURVE",
"357 384 CURVE",
"368 371 LINE",
"640 688 LINE",
"646 708 LINE",
"568 706 OFFCURVE",
"492 705 OFFCURVE",
"397 705 CURVE SMOOTH",
"306 705 OFFCURVE",
"231 706 OFFCURVE",
"184 708 CURVE",
"171 655 OFFCURVE",
"151 598 OFFCURVE",
"121 528 CURVE",
"144 528 LINE",
"214 652 OFFCURVE",
"254 685 OFFCURVE",
"401 685 CURVE SMOOTH",
"544 685 LINE",
"309 410 LINE",
"303 390 LINE",
"380 373 OFFCURVE",
"429 303 OFFCURVE",
"429 211 CURVE SMOOTH",
"429 90 OFFCURVE",
"342 4 OFFCURVE",
"220 4 CURVE SMOOTH",
"98 4 OFFCURVE",
"33 93 OFFCURVE",
"53 230 CURVE",
"30 230 LINE",
"7 141 OFFCURVE",
"-13 70 OFFCURVE",
"-38 0 CURVE",
"-15 0 LINE",
"1 43 OFFCURVE",
"13 59 OFFCURVE",
"28 59 CURVE SMOOTH",
"59 59 OFFCURVE",
"96 -14 OFFCURVE",
"231 -14 CURVE SMOOTH"
);
}
);
width = 594;
},
{
anchors = (
{
name = bottom;
position = "{257, 0}";
},
{
name = top;
position = "{426, 708}";
}
);
background = {
anchors = (
{
name = bottom;
position = "{257, 0}";
},
{
name = top;
position = "{426, 708}";
}
);
paths = (
{
closed = 1;
nodes = (
"445 -14 OFFCURVE",
"582 75 OFFCURVE",
"582 208 CURVE SMOOTH",
"582 292 OFFCURVE",
"525 353 OFFCURVE",
"414 388 CURVE",
"422 353 LINE",
"706 688 LINE",
"712 708 LINE",
"608 705 OFFCURVE",
"475 705 OFFCURVE",
"392 705 CURVE SMOOTH",
"318 705 OFFCURVE",
"243 705 OFFCURVE",
"187 708 CURVE",
"157 606 OFFCURVE",
"127 517 OFFCURVE",
"95 438 CURVE",
"118 438 LINE",
"205 626 OFFCURVE",
"293 685 OFFCURVE",
"441 685 CURVE SMOOTH",
"495 685 LINE",
"255 400 LINE",
"249 380 LINE",
"342 357 OFFCURVE",
"396 291 OFFCURVE",
"396 201 CURVE SMOOTH",
"396 92 OFFCURVE",
"318 16 OFFCURVE",
"205 16 CURVE SMOOTH",
"75 16 OFFCURVE",
"41 122 OFFCURVE",
"68 283 CURVE",
"45 283 LINE",
"-4 107 OFFCURVE",
"-23 43 OFFCURVE",
"-40 -7 CURVE",
"-17 -7 LINE",
"0 30 OFFCURVE",
"6 37 OFFCURVE",
"18 37 CURVE SMOOTH",
"50 37 OFFCURVE",
"90 -14 OFFCURVE",
"240 -14 CURVE SMOOTH"
);
}
);
};
layerId = "DE547DD1-6B89-4C93-B672-7CF1D26AB89E";
paths = (
{
closed = 1;
nodes = (
"449 -14 OFFCURVE",
"582 80 OFFCURVE",
"582 208 CURVE SMOOTH",
"582 292 OFFCURVE",
"525 353 OFFCURVE",
"414 388 CURVE",
"422 353 LINE",
"706 688 LINE",
"712 708 LINE",
"621 706 OFFCURVE",
"527 705 OFFCURVE",
"383 705 CURVE SMOOTH",
"319 705 OFFCURVE",
"240 705 OFFCURVE",
"187 708 CURVE",
"161 621 OFFCURVE",
"134 543 OFFCURVE",
"104 468 CURVE",
"127 468 LINE",
"199 619 OFFCURVE",
"285 685 OFFCURVE",
"411 685 CURVE SMOOTH",
"495 685 LINE",
"255 400 LINE",
"249 380 LINE",
"343 357 OFFCURVE",
"396 291 OFFCURVE",
"396 198 CURVE SMOOTH",
"396 88 OFFCURVE",
"324 16 OFFCURVE",
"212 16 CURVE SMOOTH",
"88 16 OFFCURVE",
"41 103 OFFCURVE",
"68 283 CURVE",
"45 283 LINE",
"5 141 OFFCURVE",
"-17 64 OFFCURVE",
"-38 0 CURVE",
"-15 0 LINE",
"1 43 OFFCURVE",
"13 59 OFFCURVE",
"29 59 CURVE SMOOTH",
"64 59 OFFCURVE",
"107 -14 OFFCURVE",
"267 -14 CURVE SMOOTH"
);
}
);
width = 617;
}
);
leftKerningGroup = Ezh;
rightKerningGroup = Ezh;
unicode = 01B7;
},
{
glyphname = F;
lastChange = "2019-04-15 16:43:34 +0000";
layers = (
{
anchors = (
{
name = bottom;
position = "{98, 0}";
},
{
name = top;
position = "{401, 708}";
}
);
background = {
anchors = (
{
name = bottom;
position = "{98, 0}";
},
{
name = top;
position = "{401, 708}";
}
);
paths = (
{
closed = 1;
nodes = (
"-6 2 OFFCURVE",
"38 3 OFFCURVE",
"97 3 CURVE SMOOTH",
"165 3 OFFCURVE",
"216 2 OFFCURVE",
"243 0 CURVE",
"249 20 LINE",
"163 23 OFFCURVE",
"152 35 OFFCURVE",
"172 106 CURVE SMOOTH",
"310 602 LINE SMOOTH",
"330 673 OFFCURVE",
"344 685 OFFCURVE",
"414 685 CURVE SMOOTH",
"487 685 LINE SMOOTH",
"564 685 OFFCURVE",
"585 647 OFFCURVE",
"582 508 CURVE",
"605 508 LINE",
"615 582 OFFCURVE",
"629 646 OFFCURVE",
"648 708 CURVE",
"588 705 OFFCURVE",
"510 705 OFFCURVE",
"455 705 CURVE SMOOTH",
"325 705 OFFCURVE",
"226 706 OFFCURVE",
"166 708 CURVE",
"160 688 LINE",
"229 685 OFFCURVE",
"237 673 OFFCURVE",
"217 602 CURVE SMOOTH",
"79 106 LINE SMOOTH",
"59 35 OFFCURVE",
"45 23 OFFCURVE",
"-26 20 CURVE",
"-32 0 LINE"
);
},
{
closed = 1;
nodes = (
"416 336 LINE",
"422 356 LINE",
"212 356 LINE",
"206 336 LINE"
);
},
{
closed = 1;
nodes = (
"421 204 LINE",
"436 274 OFFCURVE",
"444 308 OFFCURVE",
"455 346 CURVE SMOOTH",
"465 379 OFFCURVE",
"471 412 OFFCURVE",
"497 488 CURVE",
"474 488 LINE",
"453 440 OFFCURVE",
"432 356 OFFCURVE",
"345 356 CURVE",
"339 336 LINE",
"426 336 OFFCURVE",
"408 268 OFFCURVE",
"398 204 CURVE"
);
}
);
};
hints = (
{
horizontal = 1;
place = "{708, 20}";
type = Stem;
},
{
horizontal = 1;
place = "{336, 20}";
type = Stem;
},
{
horizontal = 1;
place = "{0, 20}";
type = Stem;
}
);
layerId = UUID0;
paths = (
{
closed = 1;
nodes = (
"-6 2 OFFCURVE",
"38 3 OFFCURVE",
"97 3 CURVE SMOOTH",
"165 3 OFFCURVE",
"216 2 OFFCURVE",
"243 0 CURVE",
"249 20 LINE",
"163 23 OFFCURVE",
"152 35 OFFCURVE",
"172 106 CURVE SMOOTH",
"310 602 LINE SMOOTH",
"330 673 OFFCURVE",
"344 685 OFFCURVE",
"414 685 CURVE SMOOTH",
"487 685 LINE SMOOTH",
"564 685 OFFCURVE",
"585 647 OFFCURVE",
"582 508 CURVE",
"605 508 LINE",
"615 582 OFFCURVE",
"629 646 OFFCURVE",
"648 708 CURVE",
"588 705 OFFCURVE",
"510 705 OFFCURVE",
"455 705 CURVE SMOOTH",
"325 705 OFFCURVE",
"226 706 OFFCURVE",
"166 708 CURVE",
"160 688 LINE",
"229 685 OFFCURVE",
"237 673 OFFCURVE",
"217 602 CURVE SMOOTH",
"79 106 LINE SMOOTH",
"59 35 OFFCURVE",
"45 23 OFFCURVE",
"-26 20 CURVE",
"-32 0 LINE"
);
},
{
closed = 1;
nodes = (
"416 336 LINE",
"422 356 LINE",
"212 356 LINE",
"206 336 LINE"
);
},
{
closed = 1;
nodes = (
"423 204 LINE",
"434 260 OFFCURVE",
"443 298 OFFCURVE",
"455 346 CURVE SMOOTH",
"467 395 OFFCURVE",
"481 442 OFFCURVE",
"497 488 CURVE",
"474 488 LINE",
"431 381 OFFCURVE",
"396 356 OFFCURVE",
"324 356 CURVE",
"319 336 LINE",
"383 336 OFFCURVE",
"409 308 OFFCURVE",
"400 204 CURVE"
);
}
);
width = 566;
},
{
anchors = (
{
name = bottom;
position = "{132, 0}";
},
{
name = top;
position = "{409, 708}";
}
);
background = {
anchors = (
{
name = bottom;
position = "{132, 0}";
},
{
name = top;
position = "{409, 708}";
}
);
paths = (
{
closed = 1;
nodes = (
"7 1 OFFCURVE",
"72 3 OFFCURVE",
"133 3 CURVE SMOOTH",
"216 3 OFFCURVE",
"274 1 OFFCURVE",
"316 0 CURVE",
"322 20 LINE",
"250 23 OFFCURVE",
"238 37 OFFCURVE",
"260 116 CURVE SMOOTH",
"401 622 LINE SMOOTH",
"416 676 OFFCURVE",
"426 685 OFFCURVE",
"479 685 CURVE SMOOTH",
"492 685 LINE SMOOTH",
"585 685 OFFCURVE",
"628 611 OFFCURVE",
"616 468 CURVE",
"639 468 LINE",
"651 546 OFFCURVE",
"668 626 OFFCURVE",
"690 708 CURVE",
"645 706 OFFCURVE",
"585 705 OFFCURVE",
"500 705 CURVE SMOOTH",
"345 705 OFFCURVE",
"225 706 OFFCURVE",
"151 708 CURVE",
"145 688 LINE",
"205 685 OFFCURVE",
"212 673 OFFCURVE",
"192 602 CURVE SMOOTH",
"54 106 LINE SMOOTH",
"34 34 OFFCURVE",
"22 23 OFFCURVE",
"-41 20 CURVE",
"-47 0 LINE"
);
},
{
closed = 1;
nodes = (
"464 346 LINE",
"469 366 LINE",
"299 366 LINE",
"294 346 LINE"
);
},
{
closed = 1;
nodes = (
"479 214 LINE",
"497 296 OFFCURVE",
"504 324 OFFCURVE",
"513 356 CURVE SMOOTH",
"522 389 OFFCURVE",
"529 422 OFFCURVE",
"555 498 CURVE",
"532 498 LINE",
"497 420 OFFCURVE",
"426 366 OFFCURVE",
"359 366 CURVE",
"354 346 LINE",
"430 346 OFFCURVE",
"468 297 OFFCURVE",
"456 214 CURVE"
);
}
);
};
layerId = "DE547DD1-6B89-4C93-B672-7CF1D26AB89E";
paths = (
{
closed = 1;
nodes = (
"7 1 OFFCURVE",
"72 3 OFFCURVE",
"133 3 CURVE SMOOTH",
"216 3 OFFCURVE",
"274 1 OFFCURVE",
"316 0 CURVE",
"322 20 LINE",
"250 23 OFFCURVE",
"238 37 OFFCURVE",
"260 116 CURVE SMOOTH",
"401 622 LINE SMOOTH",
"416 676 OFFCURVE",
"426 685 OFFCURVE",
"479 685 CURVE SMOOTH",
"492 685 LINE SMOOTH",
"585 685 OFFCURVE",
"628 611 OFFCURVE",
"616 468 CURVE",
"639 468 LINE",
"651 546 OFFCURVE",
"668 626 OFFCURVE",
"690 708 CURVE",
"645 706 OFFCURVE",
"585 705 OFFCURVE",
"500 705 CURVE SMOOTH",
"345 705 OFFCURVE",
"225 706 OFFCURVE",
"151 708 CURVE",
"145 688 LINE",
"205 685 OFFCURVE",
"212 673 OFFCURVE",
"192 602 CURVE SMOOTH",
"54 106 LINE SMOOTH",
"34 34 OFFCURVE",
"22 23 OFFCURVE",
"-41 20 CURVE",
"-47 0 LINE"
);
},
{
closed = 1;
nodes = (
"464 346 LINE",
"469 366 LINE",
"299 366 LINE",
"294 346 LINE"
);
},
{
closed = 1;
nodes = (
"479 214 LINE",
"497 299 OFFCURVE",
"501 313 OFFCURVE",
"513 356 CURVE SMOOTH",
"551 491 OFFCURVE",
"529 413 OFFCURVE",
"555 498 CURVE",
"532 498 LINE",
"492 406 OFFCURVE",
"440 366 OFFCURVE",
"359 366 CURVE",
"354 346 LINE",
"426 346 OFFCURVE",
"462 299 OFFCURVE",
"456 214 CURVE"
);
}
);
width = 603;
}
);
leftKerningGroup = I;
leftMetricsKey = I;
rightKerningGroup = F;
rightMetricsKey = E;
unicode = 0046;
},
{
glyphname = G;
lastChange = "2019-04-16 15:14:22 +0000";
layers = (
{
anchors = (
{
name = bottom;
position = "{323, 0}";
},
{
name = top;
position = "{441, 708}";
}
);
background = {
anchors = (
{
name = bottom;
position = "{323, 0}";
},
{
name = top;
position = "{501, 708}";
}
);
paths = (
{
closed = 1;
nodes = (
"457 -14 OFFCURVE",
"498 60 OFFCURVE",
"523 60 CURVE SMOOTH",
"536 60 OFFCURVE",
"538 41 OFFCURVE",
"532 0 CURVE",
"555 0 LINE",
"610 198 LINE SMOOTH",
"631 273 OFFCURVE",
"638 281 OFFCURVE",
"684 284 CURVE",
"689 304 LINE",
"666 302 OFFCURVE",
"630 301 OFFCURVE",
"584 301 CURVE SMOOTH",
"527 301 OFFCURVE",
"472 302 OFFCURVE",
"444 304 CURVE",
"439 284 LINE",
"525 281 OFFCURVE",
"536 267 OFFCURVE",
"514 188 CURVE SMOOTH",
"497 127 LINE SMOOTH",
"474 43 OFFCURVE",
"421 4 OFFCURVE",
"348 4 CURVE SMOOTH",
"241 4 OFFCURVE",
"183 92 OFFCURVE",
"183 255 CURVE SMOOTH",
"183 505 OFFCURVE",
"318 704 OFFCURVE",
"489 704 CURVE SMOOTH",
"605 704 OFFCURVE",
"664 612 OFFCURVE",
"636 478 CURVE",
"659 478 LINE",
"680 565 OFFCURVE",
"701 641 OFFCURVE",
"723 708 CURVE",
"700 708 LINE",
"681 660 OFFCURVE",
"676 649 OFFCURVE",
"664 649 CURVE SMOOTH",
"634 649 OFFCURVE",
"602 722 OFFCURVE",
"471 722 CURVE SMOOTH",
"256 722 OFFCURVE",
"81 524 OFFCURVE",
"81 280 CURVE SMOOTH",
"81 101 OFFCURVE",
"178 -14 OFFCURVE",
"330 -14 CURVE SMOOTH"
);
}
);
};
guideLines = (
{
angle = 74.4;
position = "{555, 0}";
}
);
layerId = UUID0;
paths = (
{
closed = 1;
nodes = (
"457 -14 OFFCURVE",
"498 60 OFFCURVE",
"523 60 CURVE SMOOTH",
"536 60 OFFCURVE",
"538 41 OFFCURVE",
"532 0 CURVE",
"555 0 LINE",
"610 198 LINE SMOOTH",
"631 273 OFFCURVE",
"638 281 OFFCURVE",
"684 284 CURVE",
"689 304 LINE",
"666 302 OFFCURVE",
"630 301 OFFCURVE",
"584 301 CURVE SMOOTH",
"527 301 OFFCURVE",
"472 302 OFFCURVE",
"444 304 CURVE",
"439 284 LINE",
"525 281 OFFCURVE",
"536 267 OFFCURVE",
"514 188 CURVE SMOOTH",
"497 127 LINE SMOOTH",
"474 43 OFFCURVE",
"421 4 OFFCURVE",
"348 4 CURVE SMOOTH",
"241 4 OFFCURVE",
"183 82 OFFCURVE",
"183 255 CURVE SMOOTH",
"183 505 OFFCURVE",
"318 704 OFFCURVE",
"489 704 CURVE SMOOTH",
"605 704 OFFCURVE",
"664 612 OFFCURVE",
"636 478 CURVE",
"659 478 LINE",
"680 565 OFFCURVE",
"701 641 OFFCURVE",
"723 708 CURVE",
"700 708 LINE",
"681 660 OFFCURVE",
"676 649 OFFCURVE",
"664 649 CURVE SMOOTH",
"634 649 OFFCURVE",
"602 722 OFFCURVE",
"471 722 CURVE SMOOTH",
"256 722 OFFCURVE",
"81 524 OFFCURVE",
"81 280 CURVE SMOOTH",
"81 91 OFFCURVE",
"178 -14 OFFCURVE",
"330 -14 CURVE SMOOTH"
);
}
);
width = 708;
},
{
anchors = (
{
name = bottom;
position = "{375, 0}";
},
{
name = top;
position = "{493, 708}";
}
);
background = {
anchors = (
{
name = bottom;
position = "{375, 0}";
},
{
name = top;
position = "{553, 708}";
}
);
paths = (
{
closed = 1;
nodes = (
"484 -14 OFFCURVE",
"552 57 OFFCURVE",
"589 57 CURVE SMOOTH",
"610 57 OFFCURVE",
"614 43 OFFCURVE",
"614 0 CURVE",
"637 0 LINE",
"692 198 LINE SMOOTH",
"713 271 OFFCURVE",
"719 278 OFFCURVE",
"766 284 CURVE",
"771 304 LINE",
"738 302 OFFCURVE",
"682 301 OFFCURVE",
"601 301 CURVE SMOOTH",
"510 301 OFFCURVE",
"444 302 OFFCURVE",
"416 304 CURVE",
"411 284 LINE",
"494 281 OFFCURVE",
"507 265 OFFCURVE",
"486 188 CURVE SMOOTH",
"449 55 LINE SMOOTH",
"439 19 OFFCURVE",
"419 7 OFFCURVE",
"388 7 CURVE SMOOTH",
"315 7 OFFCURVE",
"270 91 OFFCURVE",
"270 231 CURVE SMOOTH",
"270 482 OFFCURVE",
"407 688 OFFCURVE",
"575 688 CURVE SMOOTH",
"685 688 OFFCURVE",
"725 593 OFFCURVE",
"708 478 CURVE",
"731 478 LINE",
"752 565 OFFCURVE",
"773 641 OFFCURVE",
"795 708 CURVE",
"772 708 LINE",
"757 665 OFFCURVE",
"748 648 OFFCURVE",
"735 648 CURVE SMOOTH",
"709 648 OFFCURVE",
"656 722 OFFCURVE",
"502 722 CURVE SMOOTH",
"257 722 OFFCURVE",
"71 533 OFFCURVE",
"71 285 CURVE SMOOTH",
"71 98 OFFCURVE",
"177 -14 OFFCURVE",
"353 -14 CURVE SMOOTH"
);
}
);
};
guideLines = (
{
angle = 74.4;
position = "{647, 0}";
}
);
layerId = "DE547DD1-6B89-4C93-B672-7CF1D26AB89E";
paths = (
{
closed = 1;
nodes = (
"490 -14 OFFCURVE",
"548 57 OFFCURVE",
"591 57 CURVE SMOOTH",
"609 57 OFFCURVE",
"614 45 OFFCURVE",
"614 0 CURVE",
"637 0 LINE",
"692 198 LINE SMOOTH",
"712 270 OFFCURVE",
"719 278 OFFCURVE",
"766 284 CURVE",
"771 304 LINE",
"735 302 OFFCURVE",
"678 301 OFFCURVE",
"597 301 CURVE SMOOTH",
"503 301 OFFCURVE",
"441 302 OFFCURVE",
"416 304 CURVE",
"411 284 LINE",
"493 281 OFFCURVE",
"507 264 OFFCURVE",
"486 188 CURVE SMOOTH",
"449 55 LINE SMOOTH",
"445 41 OFFCURVE",
"436 7 OFFCURVE",
"389 7 CURVE SMOOTH",
"314 7 OFFCURVE",
"271 90 OFFCURVE",
"271 233 CURVE SMOOTH",
"271 482 OFFCURVE",
"407 688 OFFCURVE",
"571 688 CURVE SMOOTH",
"674 688 OFFCURVE",
"727 606 OFFCURVE",
"708 478 CURVE",
"731 478 LINE",
"752 565 OFFCURVE",
"773 641 OFFCURVE",
"795 708 CURVE",
"772 708 LINE",
"756 663 OFFCURVE",
"747 648 OFFCURVE",
"735 648 CURVE SMOOTH",
"709 648 OFFCURVE",
"655 722 OFFCURVE",
"503 722 CURVE SMOOTH",
"259 722 OFFCURVE",
"71 530 OFFCURVE",
"71 281 CURVE SMOOTH",
"71 96 OFFCURVE",
"175 -14 OFFCURVE",
"350 -14 CURVE SMOOTH"
);
}
);
width = 776;
}
);
leftKerningGroup = O;
leftMetricsKey = O;
rightKerningGroup = G;
unicode = 0047;
},
{
color = 6;
glyphname = Gstroke;
lastChange = "2019-04-11 18:02:53 +0000";
layers = (
{
background = {
anchors = (
{
name = bottom;
position = "{310, 0}";
},
{
name = top;
position = "{488, 708}";
}
);
paths = (
{
closed = 1;
nodes = (
"367 -14 OFFCURVE",
"420 7 OFFCURVE",
"472 40 CURVE SMOOTH",
"496 55 OFFCURVE",
"502 57 OFFCURVE",
"510 57 CURVE SMOOTH",
"527 57 OFFCURVE",
"527 23 OFFCURVE",
"522 0 CURVE",
"542 0 LINE",
"598 208 LINE SMOOTH",
"618 282 OFFCURVE",
"627 291 OFFCURVE",
"672 294 CURVE",
"677 314 LINE",
"653 312 OFFCURVE",
"616 311 OFFCURVE",
"572 311 CURVE SMOOTH",
"527 311 OFFCURVE",
"467 312 OFFCURVE",
"432 314 CURVE",
"427 294 LINE",
"510 291 OFFCURVE",
"523 279 OFFCURVE",
"502 198 CURVE SMOOTH",
"476 100 LINE SMOOTH",
"469 75 OFFCURVE",
"459 54 OFFCURVE",
"430 37 CURVE SMOOTH",
"406 23 OFFCURVE",
"364 6 OFFCURVE",
"316 6 CURVE SMOOTH",
"199 6 OFFCURVE",
"143 62 OFFCURVE",
"143 182 CURVE SMOOTH",
"143 369 OFFCURVE",
"260 704 OFFCURVE",
"482 704 CURVE SMOOTH",
"549 704 OFFCURVE",
"608 675 OFFCURVE",
"636 626 CURVE SMOOTH",
"647 605 OFFCURVE",
"650 581 OFFCURVE",
"650 553 CURVE SMOOTH",
"650 529 OFFCURVE",
"648 504 OFFCURVE",
"645 478 CURVE",
"667 478 LINE",
"690 585 OFFCURVE",
"711 656 OFFCURVE",
"731 708 CURVE",
"709 708 LINE",
"688 647 OFFCURVE",
"672 637 OFFCURVE",
"652 657 CURVE SMOOTH",
"615 693 OFFCURVE",
"575 722 OFFCURVE",
"488 722 CURVE SMOOTH",
"227 722 OFFCURVE",
"50 441 OFFCURVE",
"50 215 CURVE SMOOTH",
"50 69 OFFCURVE",
"138 -14 OFFCURVE",
"302 -14 CURVE SMOOTH"
);
},
{
closed = 1;
nodes = (
"683 168 LINE",
"687 188 LINE",
"382 188 LINE",
"378 168 LINE"
);
}
);
};
layerId = UUID0;
paths = (
{
closed = 1;
nodes = (
"457 -14 OFFCURVE",
"498 60 OFFCURVE",
"523 60 CURVE SMOOTH",
"536 60 OFFCURVE",
"538 41 OFFCURVE",
"532 0 CURVE",
"555 0 LINE",
"610 198 LINE SMOOTH",
"631 273 OFFCURVE",
"638 281 OFFCURVE",
"684 284 CURVE",
"689 304 LINE",
"666 302 OFFCURVE",
"630 301 OFFCURVE",
"584 301 CURVE SMOOTH",
"527 301 OFFCURVE",
"472 302 OFFCURVE",
"444 304 CURVE",
"439 284 LINE",
"525 281 OFFCURVE",
"536 267 OFFCURVE",
"514 188 CURVE SMOOTH",
"497 127 LINE SMOOTH",
"474 43 OFFCURVE",
"421 4 OFFCURVE",
"348 4 CURVE SMOOTH",
"241 4 OFFCURVE",
"183 82 OFFCURVE",
"183 255 CURVE SMOOTH",
"183 505 OFFCURVE",
"318 704 OFFCURVE",
"489 704 CURVE SMOOTH",
"605 704 OFFCURVE",
"664 612 OFFCURVE",
"636 478 CURVE",
"659 478 LINE",
"680 565 OFFCURVE",
"701 641 OFFCURVE",
"723 708 CURVE",
"700 708 LINE",
"681 660 OFFCURVE",
"676 649 OFFCURVE",
"664 649 CURVE SMOOTH",
"634 649 OFFCURVE",
"602 722 OFFCURVE",
"471 722 CURVE SMOOTH",
"256 722 OFFCURVE",
"81 524 OFFCURVE",
"81 280 CURVE SMOOTH",
"81 91 OFFCURVE",
"178 -14 OFFCURVE",
"330 -14 CURVE SMOOTH"
);
},
{
closed = 1;
nodes = (
"681 168 LINE",
"686 188 LINE",
"381 188 LINE",
"376 168 LINE"
);
}
);
width = 705;
},
{
background = {
anchors = (
{
name = bottom;
position = "{350, 0}";
},
{
name = top;
position = "{528, 708}";
}
);
paths = (
{
closed = 1;
nodes = (
"360 -14 OFFCURVE",
"399 -8 OFFCURVE",
"448 15 CURVE SMOOTH",
"482 30 OFFCURVE",
"526 57 OFFCURVE",
"563 57 CURVE SMOOTH",
"589 57 OFFCURVE",
"603 42 OFFCURVE",
"602 0 CURVE",
"622 0 LINE",
"683 228 LINE SMOOTH",
"703 301 OFFCURVE",
"712 311 OFFCURVE",
"757 314 CURVE",
"762 334 LINE",
"726 332 OFFCURVE",
"665 331 OFFCURVE",
"597 331 CURVE SMOOTH",
"537 331 OFFCURVE",
"452 332 OFFCURVE",
"407 334 CURVE",
"402 314 LINE",
"485 311 OFFCURVE",
"498 298 OFFCURVE",
"477 218 CURVE SMOOTH",
"446 100 LINE SMOOTH",
"434 56 OFFCURVE",
"428 34 OFFCURVE",
"408 20 CURVE SMOOTH",
"393 9 OFFCURVE",
"373 6 OFFCURVE",
"356 6 CURVE SMOOTH",
"274 6 OFFCURVE",
"233 62 OFFCURVE",
"233 182 CURVE SMOOTH",
"233 369 OFFCURVE",
"337 704 OFFCURVE",
"532 704 CURVE SMOOTH",
"609 704 OFFCURVE",
"661 676 OFFCURVE",
"686 626 CURVE SMOOTH",
"698 602 OFFCURVE",
"700 581 OFFCURVE",
"700 553 CURVE SMOOTH",
"700 529 OFFCURVE",
"698 504 OFFCURVE",
"695 478 CURVE",
"717 478 LINE",
"740 585 OFFCURVE",
"761 656 OFFCURVE",
"781 708 CURVE",
"759 708 LINE",
"738 647 OFFCURVE",
"722 637 OFFCURVE",
"702 657 CURVE SMOOTH",
"665 693 OFFCURVE",
"625 722 OFFCURVE",
"538 722 CURVE SMOOTH",
"235 722 OFFCURVE",
"30 441 OFFCURVE",
"30 215 CURVE SMOOTH",
"30 69 OFFCURVE",
"140 -14 OFFCURVE",
"320 -14 CURVE SMOOTH"
);
},
{
closed = 1;
nodes = (
"740 178 LINE",
"744 198 LINE",
"379 198 LINE",
"375 178 LINE"
);
}
);
};
layerId = "DE547DD1-6B89-4C93-B672-7CF1D26AB89E";
paths = (
{
closed = 1;
nodes = (
"490 -14 OFFCURVE",
"548 57 OFFCURVE",
"591 57 CURVE SMOOTH",
"609 57 OFFCURVE",
"614 45 OFFCURVE",
"614 0 CURVE",
"637 0 LINE",
"692 198 LINE SMOOTH",
"712 270 OFFCURVE",
"719 278 OFFCURVE",
"766 284 CURVE",
"771 304 LINE",
"735 302 OFFCURVE",
"678 301 OFFCURVE",
"597 301 CURVE SMOOTH",
"503 301 OFFCURVE",
"441 302 OFFCURVE",
"416 304 CURVE",
"411 284 LINE",
"493 281 OFFCURVE",
"507 264 OFFCURVE",
"486 188 CURVE SMOOTH",
"449 55 LINE SMOOTH",
"445 41 OFFCURVE",
"436 7 OFFCURVE",
"389 7 CURVE SMOOTH",
"314 7 OFFCURVE",
"271 90 OFFCURVE",
"271 233 CURVE SMOOTH",
"271 482 OFFCURVE",
"407 688 OFFCURVE",
"571 688 CURVE SMOOTH",
"674 688 OFFCURVE",
"727 606 OFFCURVE",
"708 478 CURVE",
"731 478 LINE",
"752 565 OFFCURVE",
"773 641 OFFCURVE",
"795 708 CURVE",
"772 708 LINE",
"756 663 OFFCURVE",
"747 648 OFFCURVE",
"735 648 CURVE SMOOTH",
"709 648 OFFCURVE",
"655 722 OFFCURVE",
"503 722 CURVE SMOOTH",
"259 722 OFFCURVE",
"71 530 OFFCURVE",
"71 281 CURVE SMOOTH",
"71 96 OFFCURVE",
"175 -14 OFFCURVE",
"350 -14 CURVE SMOOTH"
);
},
{
closed = 1;
nodes = (
"739 178 LINE",
"744 198 LINE",
"379 198 LINE",
"374 178 LINE"
);
}
);
width = 761;
}
);
leftKerningGroup = O;
leftMetricsKey = O;
rightKerningGroup = G;
unicode = 01E4;
},
{
glyphname = H;
lastChange = "2019-04-17 19:50:55 +0000";
layers = (
{
anchors = (
{
name = bottom;
position = "{306, 0}";
},
{
name = center;
position = "{449, 514}";
},
{
name = top;
position = "{503, 708}";
}
);
background = {
anchors = (
{
name = bottom;
position = "{319, 0}";
},
{
name = center;
position = "{446, 514}";
},
{
name = top;
position = "{495, 708}";
}
);
paths = (
{
closed = 1;
nodes = (
"571 346 LINE",
"579 366 LINE",
"226 366 LINE",
"219 346 LINE"
);
},
{
closed = 1;
nodes = (
"495 106 LINE SMOOTH",
"476 33 OFFCURVE",
"460 23 OFFCURVE",
"392 20 CURVE",
"388 0 LINE",
"419 2 OFFCURVE",
"469 3 OFFCURVE",
"515 3 CURVE SMOOTH",
"567 3 OFFCURVE",
"615 2 OFFCURVE",
"643 0 CURVE",
"647 20 LINE",
"579 23 OFFCURVE",
"569 33 OFFCURVE",
"588 106 CURVE SMOOTH",
"720 602 LINE SMOOTH",
"739 675 OFFCURVE",
"754 685 OFFCURVE",
"823 688 CURVE",
"828 708 LINE",
"799 706 OFFCURVE",
"751 705 OFFCURVE",
"699 705 CURVE SMOOTH",
"653 705 OFFCURVE",
"603 706 OFFCURVE",
"573 708 CURVE",
"568 688 LINE",
"635 685 OFFCURVE",
"647 675 OFFCURVE",
"627 602 CURVE SMOOTH"
);
},
{
closed = 1;
nodes = (
"306 602 LINE SMOOTH",
"325 675 OFFCURVE",
"340 685 OFFCURVE",
"409 688 CURVE",
"414 708 LINE",
"382 706 OFFCURVE",
"332 705 OFFCURVE",
"286 705 CURVE SMOOTH",
"234 705 OFFCURVE",
"186 706 OFFCURVE",
"159 708 CURVE",
"154 688 LINE",
"221 685 OFFCURVE",
"232 675 OFFCURVE",
"213 602 CURVE SMOOTH",
"81 106 LINE SMOOTH",
"62 33 OFFCURVE",
"46 23 OFFCURVE",
"-20 20 CURVE",
"-25 0 LINE",
"4 2 OFFCURVE",
"50 3 OFFCURVE",
"102 3 CURVE SMOOTH",
"148 3 OFFCURVE",
"198 2 OFFCURVE",
"229 0 CURVE",
"233 20 LINE",
"165 23 OFFCURVE",
"155 33 OFFCURVE",
"174 106 CURVE SMOOTH"
);
}
);
};
guideLines = (
{
angle = 74.4;
position = "{81, 106}";
},
{
angle = 74.4;
position = "{495, 106}";
},
{
angle = 74.4;
position = "{330, 87}";
}
);
hints = (
{
horizontal = 1;
origin = "{1, 20}";
target = "{1, 21}";
type = Stem;
},
{
horizontal = 1;
origin = "{2, 3}";
target = "{2, 2}";
type = Stem;
},
{
horizontal = 1;
origin = "{1, 29}";
target = "{1, 28}";
type = Stem;
}
);
layerId = UUID0;
paths = (
{
closed = 1;
nodes = (
"419 2 OFFCURVE",
"469 3 OFFCURVE",
"515 3 CURVE SMOOTH",
"567 3 OFFCURVE",
"615 2 OFFCURVE",
"643 0 CURVE",
"647 20 LINE",
"579 23 OFFCURVE",
"568 33 OFFCURVE",
"588 106 CURVE SMOOTH",
"727 602 LINE SMOOTH",
"747 675 OFFCURVE",
"761 685 OFFCURVE",
"830 688 CURVE",
"835 708 LINE",
"806 706 OFFCURVE",
"758 705 OFFCURVE",
"706 705 CURVE SMOOTH",
"660 705 OFFCURVE",
"610 706 OFFCURVE",
"580 708 CURVE",
"575 688 LINE",
"642 685 OFFCURVE",
"654 675 OFFCURVE",
"634 602 CURVE SMOOTH",
"495 106 LINE SMOOTH",
"475 33 OFFCURVE",
"460 23 OFFCURVE",
"392 20 CURVE",
"388 0 LINE"
);
},
{
closed = 1;
nodes = (
"4 2 OFFCURVE",
"50 3 OFFCURVE",
"102 3 CURVE SMOOTH",
"148 3 OFFCURVE",
"198 2 OFFCURVE",
"229 0 CURVE",
"233 20 LINE",
"165 23 OFFCURVE",
"154 33 OFFCURVE",
"174 106 CURVE SMOOTH",
"313 602 LINE SMOOTH",
"333 675 OFFCURVE",
"347 685 OFFCURVE",
"416 688 CURVE",
"421 708 LINE",
"389 706 OFFCURVE",
"339 705 OFFCURVE",
"293 705 CURVE SMOOTH",
"241 705 OFFCURVE",
"193 706 OFFCURVE",
"166 708 CURVE",
"161 688 LINE",
"228 685 OFFCURVE",
"240 675 OFFCURVE",
"220 602 CURVE SMOOTH",
"81 106 LINE SMOOTH",
"61 33 OFFCURVE",
"46 23 OFFCURVE",
"-20 20 CURVE",
"-25 0 LINE"
);
},
{
closed = 1;
nodes = (
"571 346 LINE",
"579 366 LINE",
"226 366 LINE",
"219 346 LINE"
);
}
);
width = 755;
},
{
anchors = (
{
name = bottom;
position = "{352, 0}";
},
{
name = center;
position = "{496, 519}";
},
{
name = top;
position = "{550, 708}";
}
);
background = {
anchors = (
{
name = bottom;
position = "{361, 0}";
},
{
name = center;
position = "{493, 519}";
},
{
name = top;
position = "{540, 708}";
}
);
paths = (
{
closed = 1;
nodes = (
"616 346 LINE",
"624 366 LINE",
"271 366 LINE",
"264 346 LINE"
);
},
{
closed = 1;
nodes = (
"490 106 LINE SMOOTH",
"471 33 OFFCURVE",
"455 23 OFFCURVE",
"387 20 CURVE",
"383 0 LINE",
"424 2 OFFCURVE",
"494 3 OFFCURVE",
"560 3 CURVE SMOOTH",
"636 3 OFFCURVE",
"708 2 OFFCURVE",
"748 0 CURVE",
"752 20 LINE",
"684 23 OFFCURVE",
"674 33 OFFCURVE",
"693 106 CURVE SMOOTH",
"825 602 LINE SMOOTH",
"844 675 OFFCURVE",
"859 685 OFFCURVE",
"928 688 CURVE",
"933 708 LINE",
"892 706 OFFCURVE",
"820 705 OFFCURVE",
"744 705 CURVE SMOOTH",
"678 705 OFFCURVE",
"608 706 OFFCURVE",
"568 708 CURVE",
"563 688 LINE",
"630 685 OFFCURVE",
"642 675 OFFCURVE",
"622 602 CURVE SMOOTH"
);
},
{
closed = 1;
nodes = (
"401 602 LINE SMOOTH",
"420 675 OFFCURVE",
"435 685 OFFCURVE",
"504 688 CURVE",
"509 708 LINE",
"462 706 OFFCURVE",
"397 705 OFFCURVE",
"331 705 CURVE SMOOTH",
"255 705 OFFCURVE",
"183 706 OFFCURVE",
"144 708 CURVE",
"139 688 LINE",
"206 685 OFFCURVE",
"217 675 OFFCURVE",
"198 602 CURVE SMOOTH",
"66 106 LINE SMOOTH",
"47 33 OFFCURVE",
"30 23 OFFCURVE",
"-35 20 CURVE",
"-40 0 LINE",
"1 2 OFFCURVE",
"71 3 OFFCURVE",
"147 3 CURVE SMOOTH",
"213 3 OFFCURVE",
"283 2 OFFCURVE",
"324 0 CURVE",
"328 20 LINE",
"260 23 OFFCURVE",
"250 33 OFFCURVE",
"269 106 CURVE SMOOTH"
);
}
);
};
guideLines = (
{
angle = 74.4;
position = "{66, 106}";
},
{
angle = 74.4;
position = "{381, 105}";
}
);
layerId = "DE547DD1-6B89-4C93-B672-7CF1D26AB89E";
paths = (
{
closed = 1;
nodes = (
"424 2 OFFCURVE",
"494 3 OFFCURVE",
"560 3 CURVE SMOOTH",
"636 3 OFFCURVE",
"708 2 OFFCURVE",
"748 0 CURVE",
"752 20 LINE",
"684 23 OFFCURVE",
"673 33 OFFCURVE",
"693 106 CURVE SMOOTH",
"831 602 LINE SMOOTH",
"851 675 OFFCURVE",
"865 685 OFFCURVE",
"934 688 CURVE",
"939 708 LINE",
"898 706 OFFCURVE",
"826 705 OFFCURVE",
"750 705 CURVE SMOOTH",
"684 705 OFFCURVE",
"614 706 OFFCURVE",
"584 708 CURVE",
"579 688 LINE",
"636 685 OFFCURVE",
"648 675 OFFCURVE",
"628 602 CURVE SMOOTH",
"490 106 LINE SMOOTH",
"470 33 OFFCURVE",
"455 23 OFFCURVE",
"387 20 CURVE",
"383 0 LINE"
);
},
{
closed = 1;
nodes = (
"1 2 OFFCURVE",
"71 3 OFFCURVE",
"147 3 CURVE SMOOTH",
"213 3 OFFCURVE",
"283 2 OFFCURVE",
"324 0 CURVE",
"328 20 LINE",
"260 23 OFFCURVE",
"249 33 OFFCURVE",
"269 106 CURVE SMOOTH",
"407 602 LINE SMOOTH",
"427 675 OFFCURVE",
"441 685 OFFCURVE",
"510 688 CURVE",
"515 708 LINE",
"468 706 OFFCURVE",
"403 705 OFFCURVE",
"337 705 CURVE SMOOTH",
"261 705 OFFCURVE",
"189 706 OFFCURVE",
"150 708 CURVE",
"145 688 LINE",
"212 685 OFFCURVE",
"224 675 OFFCURVE",
"204 602 CURVE SMOOTH",
"66 106 LINE SMOOTH",
"46 33 OFFCURVE",
"30 23 OFFCURVE",
"-35 20 CURVE",
"-40 0 LINE"
);
},
{
closed = 1;
nodes = (
"616 346 LINE",
"624 366 LINE",
"271 366 LINE",
"264 346 LINE"
);
}
);
width = 845;
}
);
leftKerningGroup = I;
leftMetricsKey = I;
rightKerningGroup = I;
rightMetricsKey = I;
unicode = 0048;
},
{
glyphname = I;
lastChange = "2019-04-08 18:58:23 +0000";
layers = (
{
anchors = (
{
name = bottom;
position = "{103, 0}";
},
{
name = ogonek;
position = "{230, 0}";
},
{
name = top;
position = "{294, 708}";
}
);
background = {
anchors = (
{
name = bottom;
position = "{103, 0}";
},
{
name = ogonek;
position = "{230, 0}";
},
{
name = top;
position = "{291, 708}";
}
);
paths = (
{
closed = 1;
nodes = (
"307 602 LINE SMOOTH",
"326 675 OFFCURVE",
"341 685 OFFCURVE",
"410 688 CURVE",
"415 708 LINE",
"383 706 OFFCURVE",
"333 705 OFFCURVE",
"287 705 CURVE SMOOTH",
"235 705 OFFCURVE",
"187 706 OFFCURVE",
"160 708 CURVE",
"155 688 LINE",
"222 685 OFFCURVE",
"233 675 OFFCURVE",
"214 602 CURVE SMOOTH",
"82 106 LINE SMOOTH",
"63 33 OFFCURVE",
"47 23 OFFCURVE",
"-19 20 CURVE",
"-24 0 LINE",
"5 2 OFFCURVE",
"51 3 OFFCURVE",
"103 3 CURVE SMOOTH",
"149 3 OFFCURVE",
"199 2 OFFCURVE",
"230 0 CURVE",
"234 20 LINE",
"166 23 OFFCURVE",
"156 33 OFFCURVE",
"175 106 CURVE SMOOTH"
);
}
);
};
guideLines = (
{
angle = 74.4;
position = "{82, 106}";
}
);
hints = (
{
horizontal = 1;
origin = "{0, 20}";
target = "{0, 21}";
type = Stem;
},
{
horizontal = 1;
origin = "{0, 29}";
target = "{0, 28}";
type = Stem;
}
);
layerId = UUID0;
paths = (
{
closed = 1;
nodes = (
"5 2 OFFCURVE",
"51 3 OFFCURVE",
"103 3 CURVE SMOOTH",
"149 3 OFFCURVE",
"199 2 OFFCURVE",
"230 0 CURVE",
"234 20 LINE",
"166 23 OFFCURVE",
"155 33 OFFCURVE",
"175 106 CURVE SMOOTH",
"313 602 LINE SMOOTH",
"333 675 OFFCURVE",
"347 685 OFFCURVE",
"416 688 CURVE",
"421 708 LINE",
"389 706 OFFCURVE",
"339 705 OFFCURVE",
"293 705 CURVE SMOOTH",
"241 705 OFFCURVE",
"193 706 OFFCURVE",
"166 708 CURVE",
"161 688 LINE",
"228 685 OFFCURVE",
"240 675 OFFCURVE",
"220 602 CURVE SMOOTH",
"82 106 LINE SMOOTH",
"62 33 OFFCURVE",
"47 23 OFFCURVE",
"-19 20 CURVE",
"-24 0 LINE"
);
}
);
width = 342;
},
{
anchors = (
{
name = bottom;
position = "{137, 0}";
},
{
name = ogonek;
position = "{305, 0}";
},
{
name = top;
position = "{338, 708}";
}
);
background = {
anchors = (
{
name = bottom;
position = "{137, 0}";
},
{
name = ogonek;
position = "{305, 0}";
},
{
name = top;
position = "{341, 708}";
}
);
paths = (
{
closed = 1;
nodes = (
"401 602 LINE SMOOTH",
"420 675 OFFCURVE",
"435 685 OFFCURVE",
"504 688 CURVE",
"509 708 LINE",
"459 706 OFFCURVE",
"391 705 OFFCURVE",
"321 705 CURVE SMOOTH",
"249 705 OFFCURVE",
"181 706 OFFCURVE",
"144 708 CURVE",
"139 688 LINE",
"206 685 OFFCURVE",
"217 675 OFFCURVE",
"198 602 CURVE SMOOTH",
"66 106 LINE SMOOTH",
"47 33 OFFCURVE",
"30 23 OFFCURVE",
"-35 20 CURVE",
"-40 0 LINE",
"-1 2 OFFCURVE",
"65 3 OFFCURVE",
"137 3 CURVE SMOOTH",
"207 3 OFFCURVE",
"281 2 OFFCURVE",
"324 0 CURVE",
"328 20 LINE",
"260 23 OFFCURVE",
"250 33 OFFCURVE",
"269 106 CURVE SMOOTH"
);
}
);
};
guideLines = (
{
angle = 74.4;
position = "{66, 106}";
}
);
layerId = "DE547DD1-6B89-4C93-B672-7CF1D26AB89E";
paths = (
{
closed = 1;
nodes = (
"-1 2 OFFCURVE",
"65 3 OFFCURVE",
"137 3 CURVE SMOOTH",
"207 3 OFFCURVE",
"281 2 OFFCURVE",
"324 0 CURVE",
"328 20 LINE",
"260 23 OFFCURVE",
"249 33 OFFCURVE",
"269 106 CURVE SMOOTH",
"407 602 LINE SMOOTH",
"427 675 OFFCURVE",
"441 685 OFFCURVE",
"510 688 CURVE",
"515 708 LINE",
"465 706 OFFCURVE",
"397 705 OFFCURVE",
"327 705 CURVE SMOOTH",
"255 705 OFFCURVE",
"187 706 OFFCURVE",
"150 708 CURVE",
"145 688 LINE",
"212 685 OFFCURVE",
"224 675 OFFCURVE",
"204 602 CURVE SMOOTH",
"66 106 LINE SMOOTH",
"46 33 OFFCURVE",
"30 23 OFFCURVE",
"-35 20 CURVE",
"-40 0 LINE"
);
}
);
width = 421;
}
);
leftKerningGroup = I;
rightKerningGroup = I;
unicode = 0049;
},
{
color = 8;
glyphname = IJ;
lastChange = "2019-04-11 21:22:04 +0000";
layers = (
{
background = {
paths = (
{
closed = 1;
nodes = (
"416 -188 OFFCURVE",
"506 -99 OFFCURVE",
"550 65 CURVE SMOOTH",
"616 307 LINE SMOOTH",
"660 470 OFFCURVE",
"728 584 OFFCURVE",
"821 652 CURVE",
"882 675 OFFCURVE",
"907 699 OFFCURVE",
"888 716 CURVE SMOOTH",
"870 731 OFFCURVE",
"842 712 OFFCURVE",
"812 663 CURVE",
"786 649 OFFCURVE",
"745 641 OFFCURVE",
"693 641 CURVE SMOOTH",
"519 641 OFFCURVE",
"424 722 OFFCURVE",
"277 722 CURVE SMOOTH",
"171 722 OFFCURVE",
"108 680 OFFCURVE",
"108 609 CURVE SMOOTH",
"108 542 OFFCURVE",
"179 497 OFFCURVE",
"283 497 CURVE SMOOTH",
"341 497 OFFCURVE",
"396 512 OFFCURVE",
"439 541 CURVE",
"431 556 LINE",
"386 529 OFFCURVE",
"345 517 OFFCURVE",
"293 517 CURVE SMOOTH",
"213 517 OFFCURVE",
"163 543 OFFCURVE",
"163 584 CURVE SMOOTH",
"163 619 OFFCURVE",
"198 634 OFFCURVE",
"280 634 CURVE SMOOTH",
"345 634 OFFCURVE",
"498 625 OFFCURVE",
"769 616 CURVE",
"783 633 LINE",
"629 515 OFFCURVE",
"554 412 OFFCURVE",
"512 262 CURVE SMOOTH",
"447 29 LINE SMOOTH",
"416 -82 OFFCURVE",
"391 -172 OFFCURVE",
"327 -172 CURVE SMOOTH",
"256 -172 OFFCURVE",
"283 -63 OFFCURVE",
"211 -63 CURVE SMOOTH",
"182 -63 OFFCURVE",
"163 -82 OFFCURVE",
"163 -110 CURVE SMOOTH",
"163 -156 OFFCURVE",
"217 -188 OFFCURVE",
"296 -188 CURVE SMOOTH"
);
},
{
closed = 1;
nodes = (
"66 2 OFFCURVE",
"111 3 OFFCURVE",
"166 3 CURVE SMOOTH",
"219 3 OFFCURVE",
"265 2 OFFCURVE",
"293 0 CURVE",
"297 20 LINE",
"227 23 OFFCURVE",
"219 36 OFFCURVE",
"238 106 CURVE SMOOTH",
"351 512 LINE",
"257 509 LINE",
"145 106 LINE SMOOTH",
"125 34 OFFCURVE",
"113 24 OFFCURVE",
"44 20 CURVE",
"39 0 LINE"
);
},
{
closed = 1;
nodes = (
"729 346 LINE",
"732 366 LINE",
"411 366 LINE",
"408 346 LINE"
);
}
);
};
guideLines = (
{
position = "{-50, 634}";
}
);
layerId = UUID0;
paths = (
{
closed = 1;
nodes = (
"416 -188 OFFCURVE",
"505 -101 OFFCURVE",
"550 65 CURVE SMOOTH",
"616 307 LINE SMOOTH",
"659 466 OFFCURVE",
"727 582 OFFCURVE",
"821 652 CURVE",
"881 675 OFFCURVE",
"907 700 OFFCURVE",
"888 716 CURVE SMOOTH",
"870 731 OFFCURVE",
"842 712 OFFCURVE",
"812 663 CURVE",
"784 649 OFFCURVE",
"743 641 OFFCURVE",
"691 641 CURVE SMOOTH",
"520 641 OFFCURVE",
"423 722 OFFCURVE",
"277 722 CURVE SMOOTH",
"173 722 OFFCURVE",
"108 680 OFFCURVE",
"108 612 CURVE SMOOTH",
"108 543 OFFCURVE",
"177 497 OFFCURVE",
"281 497 CURVE SMOOTH",
"342 497 OFFCURVE",
"396 512 OFFCURVE",
"439 541 CURVE",
"430 558 LINE",
"380 530 OFFCURVE",
"341 517 OFFCURVE",
"288 517 CURVE SMOOTH",
"194 517 OFFCURVE",
"131 555 OFFCURVE",
"131 614 CURVE SMOOTH",
"131 670 OFFCURVE",
"186 702 OFFCURVE",
"275 702 CURVE SMOOTH",
"445 702 OFFCURVE",
"567 582 OFFCURVE",
"791 634 CURVE",
"802 652 LINE",
"631 517 OFFCURVE",
"555 415 OFFCURVE",
"512 262 CURVE SMOOTH",
"447 29 LINE SMOOTH",
"416 -82 OFFCURVE",
"391 -172 OFFCURVE",
"327 -172 CURVE SMOOTH",
"256 -172 OFFCURVE",
"282 -63 OFFCURVE",
"211 -63 CURVE SMOOTH",
"182 -63 OFFCURVE",
"163 -82 OFFCURVE",
"163 -109 CURVE SMOOTH",
"163 -155 OFFCURVE",
"217 -188 OFFCURVE",
"293 -188 CURVE SMOOTH"
);
},
{
closed = 1;
nodes = (
"66 2 OFFCURVE",
"111 3 OFFCURVE",
"166 3 CURVE SMOOTH",
"219 3 OFFCURVE",
"265 2 OFFCURVE",
"293 0 CURVE",
"297 20 LINE",
"220 23 OFFCURVE",
"221 45 OFFCURVE",
"238 106 CURVE SMOOTH",
"351 512 LINE",
"320 507 OFFCURVE",
"288 506 OFFCURVE",
"257 509 CURVE",
"145 106 LINE SMOOTH",
"127 41 OFFCURVE",
"119 25 OFFCURVE",
"44 20 CURVE",
"39 0 LINE"
);
},
{
closed = 1;
nodes = (
"729 346 LINE",
"732 366 LINE",
"411 366 LINE",
"408 346 LINE"
);
}
);
width = 806;
},
{
background = {
paths = (
{
closed = 1;
nodes = (
"524 -188 OFFCURVE",
"631 -106 OFFCURVE",
"679 65 CURVE SMOOTH",
"739 280 LINE SMOOTH",
"790 462 OFFCURVE",
"823 590 OFFCURVE",
"907 666 CURVE",
"968 690 OFFCURVE",
"993 715 OFFCURVE",
"974 733 CURVE SMOOTH",
"956 749 OFFCURVE",
"929 730 OFFCURVE",
"898 677 CURVE",
"858 654 OFFCURVE",
"799 642 OFFCURVE",
"725 642 CURVE SMOOTH",
"507 642 OFFCURVE",
"439 739 OFFCURVE",
"289 739 CURVE SMOOTH",
"174 739 OFFCURVE",
"95 677 OFFCURVE",
"95 587 CURVE SMOOTH",
"95 496 OFFCURVE",
"183 440 OFFCURVE",
"327 440 CURVE SMOOTH",
"391 440 OFFCURVE",
"435 450 OFFCURVE",
"497 479 CURVE",
"490 497 LINE",
"434 471 OFFCURVE",
"393 462 OFFCURVE",
"330 462 CURVE SMOOTH",
"245 462 OFFCURVE",
"201 481 OFFCURVE",
"201 518 CURVE SMOOTH",
"201 549 OFFCURVE",
"230 560 OFFCURVE",
"308 560 CURVE SMOOTH",
"377 560 OFFCURVE",
"515 551 OFFCURVE",
"807 539 CURVE",
"809 563 LINE",
"642 479 OFFCURVE",
"571 402 OFFCURVE",
"531 262 CURVE SMOOTH",
"447 -34 LINE SMOOTH",
"420 -131 OFFCURVE",
"396 -171 OFFCURVE",
"365 -171 CURVE SMOOTH",
"303 -171 OFFCURVE",
"335 -24 OFFCURVE",
"226 -24 CURVE SMOOTH",
"179 -24 OFFCURVE",
"145 -52 OFFCURVE",
"145 -93 CURVE SMOOTH",
"145 -146 OFFCURVE",
"201 -188 OFFCURVE",
"347 -188 CURVE SMOOTH"
);
},
{
closed = 1;
nodes = (
"36 2 OFFCURVE",
"99 3 OFFCURVE",
"177 3 CURVE SMOOTH",
"257 3 OFFCURVE",
"326 2 OFFCURVE",
"364 0 CURVE",
"368 20 LINE",
"298 23 OFFCURVE",
"290 36 OFFCURVE",
"309 106 CURVE SMOOTH",
"406 455 LINE",
"206 466 LINE",
"106 106 LINE SMOOTH",
"86 34 OFFCURVE",
"74 24 OFFCURVE",
"5 20 CURVE",
"0 0 LINE"
);
},
{
closed = 1;
nodes = (
"855 346 LINE",
"858 366 LINE",
"447 366 LINE",
"444 346 LINE"
);
}
);
};
guideLines = (
{
position = "{-50, 560}";
}
);
layerId = "DE547DD1-6B89-4C93-B672-7CF1D26AB89E";
paths = (
{
closed = 1;
nodes = (
"524 -188 OFFCURVE",
"631 -106 OFFCURVE",
"679 65 CURVE SMOOTH",
"739 280 LINE SMOOTH",
"790 462 OFFCURVE",
"823 590 OFFCURVE",
"907 666 CURVE",
"968 690 OFFCURVE",
"993 715 OFFCURVE",
"974 733 CURVE SMOOTH",
"956 749 OFFCURVE",
"929 730 OFFCURVE",
"898 677 CURVE",
"858 654 OFFCURVE",
"799 642 OFFCURVE",
"725 642 CURVE SMOOTH",
"507 642 OFFCURVE",
"439 739 OFFCURVE",
"279 739 CURVE SMOOTH",
"159 739 OFFCURVE",
"105 693 OFFCURVE",
"105 627 CURVE SMOOTH",
"105 551 OFFCURVE",
"176 504 OFFCURVE",
"335 504 CURVE SMOOTH",
"403 504 OFFCURVE",
"449 514 OFFCURVE",
"515 543 CURVE",
"507 562 LINE",
"447 536 OFFCURVE",
"405 524 OFFCURVE",
"338 524 CURVE SMOOTH",
"178 524 OFFCURVE",
"128 574 OFFCURVE",
"128 626 CURVE SMOOTH",
"128 676 OFFCURVE",
"166 719 OFFCURVE",
"280 719 CURVE SMOOTH",
"441 719 OFFCURVE",
"574 565 OFFCURVE",
"877 646 CURVE",
"889 661 LINE",
"671 545 OFFCURVE",
"581 444 OFFCURVE",
"531 262 CURVE SMOOTH",
"447 -34 LINE SMOOTH",
"420 -131 OFFCURVE",
"396 -171 OFFCURVE",
"365 -171 CURVE SMOOTH",
"303 -171 OFFCURVE",
"335 -24 OFFCURVE",
"226 -24 CURVE SMOOTH",
"179 -24 OFFCURVE",
"145 -52 OFFCURVE",
"145 -93 CURVE SMOOTH",
"145 -146 OFFCURVE",
"201 -188 OFFCURVE",
"347 -188 CURVE SMOOTH"
);
},
{
closed = 1;
nodes = (
"36 2 OFFCURVE",
"99 3 OFFCURVE",
"177 3 CURVE SMOOTH",
"257 3 OFFCURVE",
"326 2 OFFCURVE",
"364 0 CURVE",
"368 20 LINE",
"298 23 OFFCURVE",
"290 36 OFFCURVE",
"309 106 CURVE SMOOTH",
"424 519 LINE",
"352 511 OFFCURVE",
"289 515 OFFCURVE",
"224 530 CURVE",
"106 106 LINE SMOOTH",
"86 34 OFFCURVE",
"74 24 OFFCURVE",
"5 20 CURVE",
"0 0 LINE"
);
},
{
closed = 1;
nodes = (
"855 346 LINE",
"858 366 LINE",
"447 366 LINE",
"444 346 LINE"
);
}
);
width = 878;
}
);
leftKerningGroup = IJ;
rightKerningGroup = J;
rightMetricsKey = J;
unicode = 0132;
},
{
glyphname = J;
lastChange = "2019-04-12 12:25:53 +0000";
layers = (
{
anchors = (
{
name = top;
position = "{480, 708}";
}
);
background = {
anchors = (
{
name = top;
position = "{480, 708}";
}
);
paths = (
{
closed = 1;
nodes = (
"271 -188 OFFCURVE",
"345 -71 OFFCURVE",
"382 65 CURVE SMOOTH",
"447 307 LINE SMOOTH",
"489 462 OFFCURVE",
"556 590 OFFCURVE",
"670 666 CURVE",
"741 693 OFFCURVE",
"753 716 OFFCURVE",
"737 730 CURVE SMOOTH",
"717 747 OFFCURVE",
"689 720 OFFCURVE",
"661 677 CURVE",
"596 650 OFFCURVE",
"552 632 OFFCURVE",
"484 632 CURVE SMOOTH",
"377 632 OFFCURVE",
"331 739 OFFCURVE",
"221 739 CURVE SMOOTH",
"146 739 OFFCURVE",
"102 687 OFFCURVE",
"105 616 CURVE SMOOTH",
"107 539 OFFCURVE",
"163 509 OFFCURVE",
"215 500 CURVE",
"215 500 OFFCURVE",
"218 520 OFFCURVE",
"218 520 CURVE",
"172 529 OFFCURVE",
"145 553 OFFCURVE",
"144 593 CURVE SMOOTH",
"142 634 OFFCURVE",
"164 659 OFFCURVE",
"209 659 CURVE SMOOTH",
"307 659 OFFCURVE",
"358 603 OFFCURVE",
"455 603 CURVE SMOOTH",
"520 603 OFFCURVE",
"589 630 OFFCURVE",
"653 663 CURVE",
"512 562 OFFCURVE",
"396 460 OFFCURVE",
"342 262 CURVE SMOOTH",
"310 145 LINE SMOOTH",
"267 -13 OFFCURVE",
"245 -172 OFFCURVE",
"135 -172 CURVE SMOOTH",
"121 -172 OFFCURVE",
"109 -170 OFFCURVE",
"100 -167 CURVE",
"122 -157 OFFCURVE",
"141 -138 OFFCURVE",
"140 -114 CURVE SMOOTH",
"139 -92 OFFCURVE",
"122 -74 OFFCURVE",
"98 -74 CURVE SMOOTH",
"65 -74 OFFCURVE",
"42 -104 OFFCURVE",
"43 -133 CURVE SMOOTH",
"44 -170 OFFCURVE",
"86 -188 OFFCURVE",
"145 -188 CURVE SMOOTH"
);
},
{
closed = 1;
nodes = (
"558 346 LINE",
"561 366 LINE",
"240 366 LINE",
"237 346 LINE"
);
}
);
};
guideLines = (
{
angle = 74.4;
position = "{131, 528}";
},
{
angle = 74.4;
position = "{412, 183}";
},
{
angle = 74.4;
position = "{342, 262}";
},
{
angle = 74.4;
position = "{561, 366}";
}
);
hints = (
{
horizontal = 1;
origin = "{1, 3}";
target = "{1, 2}";
type = Stem;
},
{
horizontal = 1;
origin = "{0, 0}";
target = up;
type = BottomGhost;
}
);
layerId = UUID0;
paths = (
{
closed = 1;
nodes = (
"251 -188 OFFCURVE",
"332 -109 OFFCURVE",
"380 65 CURVE SMOOTH",
"447 307 LINE SMOOTH",
"491 473 OFFCURVE",
"560 586 OFFCURVE",
"651 652 CURVE",
"712 675 OFFCURVE",
"737 699 OFFCURVE",
"718 716 CURVE SMOOTH",
"701 732 OFFCURVE",
"674 713 OFFCURVE",
"642 663 CURVE",
"621 644 OFFCURVE",
"610 641 OFFCURVE",
"564 641 CURVE SMOOTH",
"448 641 OFFCURVE",
"376 722 OFFCURVE",
"289 722 CURVE SMOOTH",
"221 722 OFFCURVE",
"174 683 OFFCURVE",
"153 607 CURVE SMOOTH",
"131 528 LINE",
"154 528 LINE",
"159 546 LINE SMOOTH",
"177 609 OFFCURVE",
"209 634 OFFCURVE",
"307 634 CURVE SMOOTH",
"362 634 OFFCURVE",
"452 625 OFFCURVE",
"599 616 CURVE",
"613 633 LINE",
"458 515 OFFCURVE",
"384 412 OFFCURVE",
"342 262 CURVE SMOOTH",
"277 29 LINE SMOOTH",
"233 -130 OFFCURVE",
"209 -172 OFFCURVE",
"155 -172 CURVE SMOOTH",
"87 -172 OFFCURVE",
"114 -63 OFFCURVE",
"40 -63 CURVE SMOOTH",
"12 -63 OFFCURVE",
"-7 -82 OFFCURVE",
"-7 -112 CURVE SMOOTH",
"-7 -158 OFFCURVE",
"47 -188 OFFCURVE",
"135 -188 CURVE SMOOTH"
);
},
{
closed = 1;
nodes = (
"556 346 LINE",
"561 366 LINE",
"240 366 LINE",
"235 346 LINE"
);
}
);
width = 636;
},
{
anchors = (
{
name = top;
position = "{554, 708}";
}
);
background = {
anchors = (
{
name = top;
position = "{554, 708}";
}
);
paths = (
{
closed = 1;
nodes = (
"390 -188 OFFCURVE",
"478 -72 OFFCURVE",
"516 65 CURVE SMOOTH",
"576 280 LINE SMOOTH",
"627 462 OFFCURVE",
"660 590 OFFCURVE",
"744 666 CURVE",
"815 693 OFFCURVE",
"827 716 OFFCURVE",
"811 730 CURVE SMOOTH",
"791 747 OFFCURVE",
"763 720 OFFCURVE",
"735 677 CURVE",
"685 651 OFFCURVE",
"615 642 OFFCURVE",
"571 642 CURVE SMOOTH",
"425 642 OFFCURVE",
"383 739 OFFCURVE",
"241 739 CURVE SMOOTH",
"133 739 OFFCURVE",
"82 682 OFFCURVE",
"82 599 CURVE SMOOTH",
"82 502 OFFCURVE",
"168 448 OFFCURVE",
"299 440 CURVE",
"299 440 OFFCURVE",
"301 458 OFFCURVE",
"301 458 CURVE",
"201 464 OFFCURVE",
"163 494 OFFCURVE",
"163 538 CURVE SMOOTH",
"163 574 OFFCURVE",
"189 589 OFFCURVE",
"220 589 CURVE SMOOTH",
"273 589 OFFCURVE",
"336 543 OFFCURVE",
"414 543 CURVE SMOOTH",
"535 543 OFFCURVE",
"576 614 OFFCURVE",
"705 650 CURVE",
"541 549 OFFCURVE",
"425 465 OFFCURVE",
"368 262 CURVE SMOOTH",
"300 20 LINE SMOOTH",
"262 -114 OFFCURVE",
"239 -171 OFFCURVE",
"179 -171 CURVE SMOOTH",
"172 -171 OFFCURVE",
"166 -171 OFFCURVE",
"156 -169 CURVE",
"199 -151 OFFCURVE",
"221 -123 OFFCURVE",
"221 -85 CURVE SMOOTH",
"221 -36 OFFCURVE",
"176 -12 OFFCURVE",
"120 -12 CURVE SMOOTH",
"52 -12 OFFCURVE",
"16 -49 OFFCURVE",
"16 -99 CURVE SMOOTH",
"16 -166 OFFCURVE",
"90 -188 OFFCURVE",
"181 -188 CURVE SMOOTH"
);
},
{
closed = 1;
nodes = (
"692 346 LINE",
"695 366 LINE",
"264 366 LINE",
"261 346 LINE"
);
}
);
};
guideLines = (
{
angle = 74.4;
position = "{368, 262}";
},
{
angle = 74.4;
position = "{537, 140}";
},
{
angle = 74.4;
position = "{695, 366}";
}
);
layerId = "DE547DD1-6B89-4C93-B672-7CF1D26AB89E";
paths = (
{
closed = 1;
nodes = (
"361 -188 OFFCURVE",
"468 -106 OFFCURVE",
"516 65 CURVE SMOOTH",
"576 280 LINE SMOOTH",
"627 462 OFFCURVE",
"660 590 OFFCURVE",
"744 666 CURVE",
"805 690 OFFCURVE",
"830 715 OFFCURVE",
"811 733 CURVE SMOOTH",
"793 749 OFFCURVE",
"767 730 OFFCURVE",
"735 677 CURVE",
"708 649 OFFCURVE",
"676 640 OFFCURVE",
"609 640 CURVE SMOOTH",
"515 640 OFFCURVE",
"405 722 OFFCURVE",
"286 722 CURVE SMOOTH",
"145 722 OFFCURVE",
"115 607 OFFCURVE",
"101 557 CURVE SMOOTH",
"74 460 LINE",
"97 460 LINE",
"102 478 LINE SMOOTH",
"121 545 OFFCURVE",
"149 560 OFFCURVE",
"262 560 CURVE SMOOTH",
"334 560 OFFCURVE",
"431 551 OFFCURVE",
"644 539 CURVE",
"646 563 LINE",
"468 473 OFFCURVE",
"405 392 OFFCURVE",
"368 262 CURVE SMOOTH",
"284 -34 LINE SMOOTH",
"256 -134 OFFCURVE",
"234 -171 OFFCURVE",
"203 -171 CURVE SMOOTH",
"139 -171 OFFCURVE",
"173 -4 OFFCURVE",
"63 -4 CURVE SMOOTH",
"16 -4 OFFCURVE",
"-18 -35 OFFCURVE",
"-18 -80 CURVE SMOOTH",
"-18 -147 OFFCURVE",
"58 -188 OFFCURVE",
"184 -188 CURVE SMOOTH"
);
},
{
closed = 1;
nodes = (
"689 346 LINE",
"695 366 LINE",
"264 366 LINE",
"258 346 LINE"
);
}
);
width = 715;
}
);
leftKerningGroup = J;
rightKerningGroup = J;
unicode = 004A;
},
{
glyphname = K;
lastChange = "2019-04-12 12:06:52 +0000";
layers = (
{
anchors = (
{
name = bottom;
position = "{291, 0}";
},
{
name = top;
position = "{469, 708}";
}
);
background = {
anchors = (
{
name = bottom;
position = "{291, 0}";
},
{
name = top;
position = "{469, 708}";
}
);
hints = (
{
horizontal = 1;
place = "{0, 20}";
type = Stem;
},
{
horizontal = 1;
place = "{722, -20}";
target = down;
type = TopGhost;
}
);
paths = (
{
closed = 1;
nodes = (
"1 2 OFFCURVE",
"46 3 OFFCURVE",
"103 3 CURVE SMOOTH",
"159 3 OFFCURVE",
"204 2 OFFCURVE",
"230 0 CURVE",
"234 20 LINE",
"165 23 OFFCURVE",
"156 36 OFFCURVE",
"175 106 CURVE SMOOTH",
"313 602 LINE SMOOTH",
"334 675 OFFCURVE",
"345 684 OFFCURVE",
"416 688 CURVE",
"421 708 LINE",
"394 706 OFFCURVE",
"349 705 OFFCURVE",
"293 705 CURVE SMOOTH",
"234 705 OFFCURVE",
"189 706 OFFCURVE",
"166 708 CURVE",
"161 688 LINE",
"230 685 OFFCURVE",
"239 671 OFFCURVE",
"220 602 CURVE SMOOTH",
"82 106 LINE SMOOTH",
"62 35 OFFCURVE",
"49 24 OFFCURVE",
"-19 20 CURVE",
"-24 0 LINE"
);
},
{
closed = 1;
nodes = (
"570 -14 OFFCURVE",
"593 17 OFFCURVE",
"614 89 CURVE SMOOTH",
"635 162 LINE",
"612 162 LINE",
"588 77 LINE SMOOTH",
"577 38 OFFCURVE",
"563 23 OFFCURVE",
"546 23 CURVE SMOOTH",
"526 23 OFFCURVE",
"517 38 OFFCURVE",
"511 86 CURVE SMOOTH",
"487 267 LINE SMOOTH",
"471 387 OFFCURVE",
"404 416 OFFCURVE",
"241 371 CURVE",
"239 353 LINE",
"343 383 OFFCURVE",
"384 358 OFFCURVE",
"398 257 CURVE SMOOTH",
"422 78 LINE SMOOTH",
"431 12 OFFCURVE",
"464 -14 OFFCURVE",
"510 -14 CURVE SMOOTH"
);
},
{
closed = 1;
nodes = (
"457 426 OFFCURVE",
"530 662 OFFCURVE",
"596 662 CURVE SMOOTH",
"628 662 OFFCURVE",
"645 617 OFFCURVE",
"688 617 CURVE SMOOTH",
"717 617 OFFCURVE",
"742 637 OFFCURVE",
"742 667 CURVE SMOOTH",
"742 700 OFFCURVE",
"711 722 OFFCURVE",
"667 722 CURVE SMOOTH",
"507 722 OFFCURVE",
"471 435 OFFCURVE",
"250 373 CURVE",
"280 370 LINE"
);
}
);
};
guideLines = (
{
angle = 74.4;
position = "{593, 93}";
},
{
angle = 74.4;
position = "{82, 106}";
},
{
position = "{499, 41}";
},
{
position = "{565, 346}";
}
);
layerId = UUID0;
paths = (
{
closed = 1;
nodes = (
"1 2 OFFCURVE",
"46 3 OFFCURVE",
"103 3 CURVE SMOOTH",
"159 3 OFFCURVE",
"204 2 OFFCURVE",
"230 0 CURVE",
"234 20 LINE",
"155 23 OFFCURVE",
"159 48 OFFCURVE",
"175 106 CURVE SMOOTH",
"313 602 LINE SMOOTH",
"334 677 OFFCURVE",
"345 683 OFFCURVE",
"416 688 CURVE",
"421 708 LINE",
"394 706 OFFCURVE",
"349 705 OFFCURVE",
"293 705 CURVE SMOOTH",
"234 705 OFFCURVE",
"189 706 OFFCURVE",
"166 708 CURVE",
"161 688 LINE",
"231 685 OFFCURVE",
"239 670 OFFCURVE",
"220 602 CURVE SMOOTH",
"82 106 LINE SMOOTH",
"62 35 OFFCURVE",
"49 25 OFFCURVE",
"-19 20 CURVE",
"-24 0 LINE"
);
},
{
closed = 1;
nodes = (
"565 -14 OFFCURVE",
"593 15 OFFCURVE",
"614 89 CURVE SMOOTH",
"635 162 LINE",
"612 162 LINE",
"593 95 LINE SMOOTH",
"587 75 OFFCURVE",
"579 41 OFFCURVE",
"547 41 CURVE SMOOTH",
"517 41 OFFCURVE",
"513 72 OFFCURVE",
"510 94 CURVE SMOOTH",
"487 267 LINE SMOOTH",
"471 388 OFFCURVE",
"404 416 OFFCURVE",
"241 371 CURVE",
"239 353 LINE",
"343 383 OFFCURVE",
"384 359 OFFCURVE",
"398 257 CURVE SMOOTH",
"422 78 LINE SMOOTH",
"430 16 OFFCURVE",
"460 -14 OFFCURVE",
"513 -14 CURVE SMOOTH"
);
},
{
closed = 1;
nodes = (
"457 426 OFFCURVE",
"530 662 OFFCURVE",
"596 662 CURVE SMOOTH",
"628 662 OFFCURVE",
"645 617 OFFCURVE",
"688 617 CURVE SMOOTH",
"717 617 OFFCURVE",
"742 637 OFFCURVE",
"742 667 CURVE SMOOTH",
"742 700 OFFCURVE",
"711 722 OFFCURVE",
"667 722 CURVE SMOOTH",
"507 722 OFFCURVE",
"471 435 OFFCURVE",
"250 373 CURVE",
"280 370 LINE"
);
}
);
width = 684;
},
{
anchors = (
{
name = bottom;
position = "{344, 0}";
},
{
name = top;
position = "{497, 708}";
}
);
background = {
anchors = (
{
name = bottom;
position = "{344, 0}";
},
{
name = top;
position = "{497, 708}";
}
);
paths = (
{
closed = 1;
nodes = (
"-4 2 OFFCURVE",
"60 3 OFFCURVE",
"145 3 CURVE SMOOTH",
"228 3 OFFCURVE",
"290 2 OFFCURVE",
"324 0 CURVE",
"328 20 LINE",
"249 23 OFFCURVE",
"253 48 OFFCURVE",
"269 106 CURVE SMOOTH",
"407 602 LINE SMOOTH",
"428 677 OFFCURVE",
"439 683 OFFCURVE",
"510 688 CURVE",
"515 708 LINE",
"471 706 OFFCURVE",
"409 705 OFFCURVE",
"332 705 CURVE SMOOTH",
"247 705 OFFCURVE",
"183 706 OFFCURVE",
"150 708 CURVE",
"145 688 LINE",
"215 685 OFFCURVE",
"223 670 OFFCURVE",
"204 602 CURVE SMOOTH",
"66 106 LINE SMOOTH",
"46 35 OFFCURVE",
"33 25 OFFCURVE",
"-35 20 CURVE",
"-40 0 LINE"
);
},
{
closed = 1;
nodes = (
"701 -14 OFFCURVE",
"718 49 OFFCURVE",
"729 89 CURVE SMOOTH",
"749 162 LINE",
"726 162 LINE",
"706 88 LINE SMOOTH",
"698 58 OFFCURVE",
"685 43 OFFCURVE",
"668 43 CURVE SMOOTH",
"648 43 OFFCURVE",
"637 64 OFFCURVE",
"635 105 CURVE SMOOTH",
"626 289 LINE SMOOTH",
"621 401 OFFCURVE",
"512 430 OFFCURVE",
"330 367 CURVE",
"328 351 LINE",
"407 363 OFFCURVE",
"426 350 OFFCURVE",
"429 285 CURVE SMOOTH",
"436 111 LINE SMOOTH",
"438 32 OFFCURVE",
"492 -14 OFFCURVE",
"583 -14 CURVE SMOOTH"
);
},
{
closed = 1;
nodes = (
"565 449 OFFCURVE",
"597 637 OFFCURVE",
"670 637 CURVE SMOOTH",
"713 637 OFFCURVE",
"721 573 OFFCURVE",
"771 573 CURVE SMOOTH",
"808 573 OFFCURVE",
"839 607 OFFCURVE",
"839 648 CURVE SMOOTH",
"839 692 OFFCURVE",
"805 722 OFFCURVE",
"754 722 CURVE SMOOTH",
"601 722 OFFCURVE",
"570 454 OFFCURVE",
"375 381 CURVE",
"402 376 LINE"
);
}
);
};
guideLines = (
{
angle = 74.4;
position = "{66, 106}";
},
{
angle = 74.4;
position = "{431, 119}";
},
{
angle = 74.4;
position = "{749, 162}";
},
{
position = "{515, 67}";
},
{
position = "{565, 346}";
}
);
layerId = "DE547DD1-6B89-4C93-B672-7CF1D26AB89E";
paths = (
{
closed = 1;
nodes = (
"-4 2 OFFCURVE",
"60 3 OFFCURVE",
"145 3 CURVE SMOOTH",
"228 3 OFFCURVE",
"290 2 OFFCURVE",
"324 0 CURVE",
"328 20 LINE",
"249 23 OFFCURVE",
"253 48 OFFCURVE",
"269 106 CURVE SMOOTH",
"407 602 LINE SMOOTH",
"425 666 OFFCURVE",
"428 683 OFFCURVE",
"510 688 CURVE",
"515 708 LINE",
"471 706 OFFCURVE",
"409 705 OFFCURVE",
"332 705 CURVE SMOOTH",
"247 705 OFFCURVE",
"183 706 OFFCURVE",
"150 708 CURVE",
"145 688 LINE",
"223 685 OFFCURVE",
"220 660 OFFCURVE",
"204 602 CURVE SMOOTH",
"66 106 LINE SMOOTH",
"46 35 OFFCURVE",
"33 27 OFFCURVE",
"-35 20 CURVE",
"-40 0 LINE"
);
},
{
closed = 1;
nodes = (
"700 -14 OFFCURVE",
"717 52 OFFCURVE",
"728 89 CURVE SMOOTH",
"749 162 LINE",
"726 162 LINE",
"712 111 LINE SMOOTH",
"707 93 OFFCURVE",
"701 67 OFFCURVE",
"673 67 CURVE SMOOTH",
"650 67 OFFCURVE",
"636 89 OFFCURVE",
"634 129 CURVE SMOOTH",
"626 289 LINE SMOOTH",
"620 401 OFFCURVE",
"512 430 OFFCURVE",
"330 367 CURVE",
"328 351 LINE",
"407 363 OFFCURVE",
"426 350 OFFCURVE",
"429 285 CURVE SMOOTH",
"436 111 LINE SMOOTH",
"439 31 OFFCURVE",
"493 -14 OFFCURVE",
"586 -14 CURVE SMOOTH"
);
},
{
closed = 1;
nodes = (
"551 442 OFFCURVE",
"583 603 OFFCURVE",
"649 603 CURVE SMOOTH",
"691 603 OFFCURVE",
"712 558 OFFCURVE",
"764 558 CURVE SMOOTH",
"812 558 OFFCURVE",
"847 592 OFFCURVE",
"847 639 CURVE SMOOTH",
"847 688 OFFCURVE",
"809 722 OFFCURVE",
"754 722 CURVE SMOOTH",
"601 722 OFFCURVE",
"570 454 OFFCURVE",
"375 381 CURVE",
"402 376 LINE"
);
}
);
width = 790;
}
);
leftKerningGroup = I;
leftMetricsKey = I;
rightKerningGroup = K;
unicode = 004B;
},
{
glyphname = L;
lastChange = "2019-04-09 17:23:14 +0000";
layers = (
{
anchors = (
{
name = bottom;
position = "{264, 0}";
},
{
name = top;
position = "{287, 708}";
},
{
name = topright;
position = "{412, 708}";
}
);
background = {
anchors = (
{
name = bottom;
position = "{264, 0}";
},
{
name = top;
position = "{287, 708}";
},
{
name = topright;
position = "{412, 708}";
}
);
paths = (
{
closed = 1;
nodes = (
"518 210 LINE",
"467 71 OFFCURVE",
"429 23 OFFCURVE",
"304 23 CURVE SMOOTH",
"231 23 LINE SMOOTH",
"163 23 OFFCURVE",
"152 33 OFFCURVE",
"172 106 CURVE SMOOTH",
"305 602 LINE SMOOTH",
"325 675 OFFCURVE",
"340 685 OFFCURVE",
"409 688 CURVE",
"414 708 LINE",
"383 706 OFFCURVE",
"333 705 OFFCURVE",
"287 705 CURVE SMOOTH",
"235 705 OFFCURVE",
"187 706 OFFCURVE",
"159 708 CURVE",
"154 688 LINE",
"221 685 OFFCURVE",
"232 675 OFFCURVE",
"212 602 CURVE SMOOTH",
"79 106 LINE SMOOTH",
"59 33 OFFCURVE",
"44 23 OFFCURVE",
"-24 20 CURVE",
"-29 0 LINE",
"68 3 OFFCURVE",
"200 3 OFFCURVE",
"260 3 CURVE SMOOTH",
"327 3 OFFCURVE",
"421 3 OFFCURVE",
"489 0 CURVE",
"497 51 OFFCURVE",
"509 103 OFFCURVE",
"516 128 CURVE SMOOTH",
"525 160 OFFCURVE",
"533 189 OFFCURVE",
"541 210 CURVE"
);
}
);
};
hints = (
{
horizontal = 1;
place = "{708, 20}";
type = Stem;
},
{
horizontal = 1;
place = "{0, 20}";
type = Stem;
}
);
layerId = UUID0;
paths = (
{
closed = 1;
nodes = (
"32 2 OFFCURVE",
"131 3 OFFCURVE",
"259 3 CURVE SMOOTH",
"363 3 OFFCURVE",
"433 2 OFFCURVE",
"490 0 CURVE",
"507 67 OFFCURVE",
"531 140 OFFCURVE",
"567 230 CURVE",
"544 230 LINE",
"464 68 OFFCURVE",
"403 23 OFFCURVE",
"263 23 CURVE SMOOTH",
"230 23 LINE SMOOTH",
"160 23 OFFCURVE",
"152 35 OFFCURVE",
"172 106 CURVE SMOOTH",
"310 602 LINE SMOOTH",
"330 673 OFFCURVE",
"344 685 OFFCURVE",
"415 688 CURVE",
"421 708 LINE",
"392 706 OFFCURVE",
"346 705 OFFCURVE",
"293 705 CURVE SMOOTH",
"236 705 OFFCURVE",
"191 706 OFFCURVE",
"166 708 CURVE",
"160 688 LINE",
"229 685 OFFCURVE",
"237 673 OFFCURVE",
"217 602 CURVE SMOOTH",
"79 106 LINE SMOOTH",
"59 35 OFFCURVE",
"45 23 OFFCURVE",
"-26 20 CURVE",
"-32 0 LINE"
);
}
);
width = 592;
},
{
anchors = (
{
name = bottom;
position = "{298, 0}";
},
{
name = top;
position = "{321, 708}";
},
{
name = topright;
position = "{466, 708}";
}
);
background = {
anchors = (
{
name = bottom;
position = "{298, 0}";
},
{
name = top;
position = "{321, 708}";
},
{
name = topright;
position = "{466, 708}";
}
);
paths = (
{
closed = 1;
nodes = (
"553 210 LINE",
"496 71 OFFCURVE",
"398 23 OFFCURVE",
"331 23 CURVE SMOOTH",
"313 23 LINE SMOOTH",
"247 23 OFFCURVE",
"237 33 OFFCURVE",
"256 106 CURVE SMOOTH",
"388 602 LINE SMOOTH",
"407 675 OFFCURVE",
"422 685 OFFCURVE",
"491 688 CURVE",
"496 708 LINE",
"449 706 OFFCURVE",
"387 705 OFFCURVE",
"321 705 CURVE SMOOTH",
"245 705 OFFCURVE",
"171 706 OFFCURVE",
"132 708 CURVE",
"127 688 LINE",
"194 685 OFFCURVE",
"205 675 OFFCURVE",
"186 602 CURVE SMOOTH",
"54 106 LINE SMOOTH",
"35 33 OFFCURVE",
"19 23 OFFCURVE",
"-49 20 CURVE",
"-53 0 LINE",
"63 3 OFFCURVE",
"227 3 OFFCURVE",
"299 3 CURVE SMOOTH",
"366 3 OFFCURVE",
"457 3 OFFCURVE",
"525 0 CURVE",
"532 51 OFFCURVE",
"544 103 OFFCURVE",
"551 128 CURVE SMOOTH",
"559 160 OFFCURVE",
"567 189 OFFCURVE",
"575 210 CURVE"
);
}
);
};
layerId = "DE547DD1-6B89-4C93-B672-7CF1D26AB89E";
paths = (
{
closed = 1;
nodes = (
"29 2 OFFCURVE",
"149 3 OFFCURVE",
"304 3 CURVE SMOOTH",
"416 3 OFFCURVE",
"487 2 OFFCURVE",
"537 0 CURVE",
"560 87 OFFCURVE",
"591 181 OFFCURVE",
"626 280 CURVE",
"603 280 LINE",
"524 118 OFFCURVE",
"431 23 OFFCURVE",
"298 23 CURVE SMOOTH",
"285 23 LINE SMOOTH",
"241 23 OFFCURVE",
"236 32 OFFCURVE",
"251 86 CURVE SMOOTH",
"395 602 LINE SMOOTH",
"415 673 OFFCURVE",
"429 685 OFFCURVE",
"500 688 CURVE",
"506 708 LINE",
"469 706 OFFCURVE",
"403 705 OFFCURVE",
"328 705 CURVE SMOOTH",
"249 705 OFFCURVE",
"185 706 OFFCURVE",
"151 708 CURVE",
"145 688 LINE",
"205 685 OFFCURVE",
"212 673 OFFCURVE",
"192 602 CURVE SMOOTH",
"54 106 LINE SMOOTH",
"34 34 OFFCURVE",
"22 23 OFFCURVE",
"-41 20 CURVE",
"-47 0 LINE"
);
}
);
width = 622;
}
);
leftKerningGroup = I;
leftMetricsKey = I;
rightKerningGroup = L;
unicode = 004C;
},
{
glyphname = Lslash;
lastChange = "2012-08-06 13:35:49 +0000";
layers = (
{
components = (
{
name = L;
transform = "{1, 0, 0, 1, 2, 0}";
}
);
layerId = UUID0;
paths = (
{
closed = 1;
nodes = (
"182 285 LINE",
"510 450 LINE",
"516 473 LINE",
"188 308 LINE"
);
},
{
closed = 1;
nodes = (
"190 318 LINE",
"21 233 LINE",
"15 210 LINE",
"184 295 LINE"
);
}
);
width = 587;
},
{
components = (
{
name = L;
transform = "{1, 0, 0, 1, 1, 0}";
}
);
layerId = "DE547DD1-6B89-4C93-B672-7CF1D26AB89E";
paths = (
{
closed = 1;
nodes = (
"184 285 LINE",
"512 450 LINE",
"518 473 LINE",
"190 308 LINE"
);
},
{
closed = 1;
nodes = (
"192 318 LINE",
"23 233 LINE",
"17 210 LINE",
"186 295 LINE"
);
}
);
width = 618;
}
);
leftKerningGroup = I;
rightKerningGroup = L;
unicode = 0141;
},
{
glyphname = M;
lastChange = "2019-04-14 21:23:17 +0000";
layers = (
{
anchors = (
{
name = bottom;
position = "{368, 0}";
},
{
name = top;
position = "{554, 708}";
}
);
guideLines = (
{
angle = 74.4;
position = "{84, 116}";
},
{
angle = 74.4;
position = "{701, 106}";
}
);
hints = (
{
horizontal = 1;
origin = "{0, 7}";
target = "{0, 8}";
type = Stem;
},
{
horizontal = 1;
origin = "{0, 16}";
target = "{0, 15}";
type = Stem;
}
);
layerId = UUID0;
paths = (
{
closed = 1;
nodes = (
"392 115 LINE",
"343 708 LINE",
"320 706 OFFCURVE",
"285 705 OFFCURVE",
"255 705 CURVE SMOOTH",
"220 705 OFFCURVE",
"187 706 OFFCURVE",
"166 708 CURVE",
"161 688 LINE",
"228 685 OFFCURVE",
"240 674 OFFCURVE",
"220 602 CURVE SMOOTH",
"84 116 LINE SMOOTH",
"64 44 OFFCURVE",
"48 23 OFFCURVE",
"-21 20 CURVE",
"-26 0 LINE",
"-3 2 OFFCURVE",
"34 3 OFFCURVE",
"68 3 CURVE SMOOTH",
"102 3 OFFCURVE",
"146 2 OFFCURVE",
"169 0 CURVE",
"174 20 LINE",
"97 23 OFFCURVE",
"87 43 OFFCURVE",
"107 116 CURVE SMOOTH",
"255 653 LINE",
"317 -5 LINE",
"339 -5 LINE",
"760 645 LINE",
"609 106 LINE SMOOTH",
"589 34 OFFCURVE",
"575 23 OFFCURVE",
"506 20 CURVE",
"502 0 LINE",
"530 2 OFFCURVE",
"580 3 OFFCURVE",
"632 3 CURVE SMOOTH",
"678 3 OFFCURVE",
"725 2 OFFCURVE",
"756 0 CURVE",
"760 20 LINE",
"693 23 OFFCURVE",
"681 33 OFFCURVE",
"701 106 CURVE SMOOTH",
"839 602 LINE SMOOTH",
"859 675 OFFCURVE",
"873 685 OFFCURVE",
"942 688 CURVE",
"947 708 LINE",
"915 706 OFFCURVE",
"868 705 OFFCURVE",
"822 705 CURVE SMOOTH",
"774 705 LINE"
);
}
);
width = 868;
},
{
anchors = (
{
name = bottom;
position = "{386, 0}";
},
{
name = top;
position = "{593, 708}";
}
);
guideLines = (
{
angle = 74.4;
position = "{74, 137}";
},
{
angle = 74.4;
position = "{795, 106}";
}
);
layerId = "DE547DD1-6B89-4C93-B672-7CF1D26AB89E";
paths = (
{
closed = 1;
nodes = (
"463 251 LINE",
"411 708 LINE",
"385 706 OFFCURVE",
"352 705 OFFCURVE",
"319 705 CURVE SMOOTH",
"252 705 OFFCURVE",
"187 706 OFFCURVE",
"150 708 CURVE",
"145 688 LINE",
"212 685 OFFCURVE",
"224 675 OFFCURVE",
"204 602 CURVE SMOOTH",
"74 137 LINE SMOOTH",
"58 80 OFFCURVE",
"32 23 OFFCURVE",
"-37 20 CURVE",
"-41 0 LINE",
"-19 2 OFFCURVE",
"19 3 OFFCURVE",
"54 3 CURVE SMOOTH",
"89 3 OFFCURVE",
"149 2 OFFCURVE",
"173 0 CURVE",
"177 20 LINE",
"80 23 OFFCURVE",
"80 80 OFFCURVE",
"96 137 CURVE SMOOTH",
"218 579 LINE",
"301 -5 LINE",
"323 -5 LINE",
"744 645 LINE",
"593 106 LINE SMOOTH",
"573 33 OFFCURVE",
"559 23 OFFCURVE",
"490 20 CURVE",
"486 0 LINE",
"524 2 OFFCURVE",
"594 3 OFFCURVE",
"666 3 CURVE SMOOTH",
"736 3 OFFCURVE",
"801 2 OFFCURVE",
"850 0 CURVE",
"854 20 LINE",
"787 23 OFFCURVE",
"775 33 OFFCURVE",
"795 106 CURVE SMOOTH",
"933 602 LINE SMOOTH",
"953 675 OFFCURVE",
"967 685 OFFCURVE",
"1036 688 CURVE",
"1041 708 LINE",
"991 706 OFFCURVE",
"926 705 OFFCURVE",
"856 705 CURVE SMOOTH",
"758 705 LINE"
);
}
);
width = 947;
}
);
leftKerningGroup = I;
leftMetricsKey = I;
rightKerningGroup = I;
rightMetricsKey = I;
unicode = 004D;
},
{
glyphname = N;
lastChange = "2019-04-12 13:16:37 +0000";
layers = (
{
anchors = (
{
name = bottom;
position = "{268, 0}";
},
{
name = top;
position = "{477, 708}";
}
);
background = {
anchors = (
{
name = bottom;
position = "{268, 0}";
},
{
name = top;
position = "{487, 708}";
}
);
paths = (
{
closed = 1;
nodes = (
"500 -5 LINE",
"500 -5 OFFCURVE",
"518 146 OFFCURVE",
"518 146 CURVE",
"326 708 LINE",
"303 706 OFFCURVE",
"275 705 OFFCURVE",
"245 705 CURVE SMOOTH",
"210 705 OFFCURVE",
"177 706 OFFCURVE",
"156 708 CURVE",
"151 688 LINE",
"229 685 OFFCURVE",
"237 675 OFFCURVE",
"222 602 CURVE",
"222 602 OFFCURVE",
"245 653 OFFCURVE",
"245 653 CURVE",
"478 -5 LINE"
);
},
{
closed = 1;
nodes = (
"784 733 OFFCURVE",
"785 733 OFFCURVE",
"786 733 CURVE",
"769 717 OFFCURVE",
"754 693 OFFCURVE",
"754 670 CURVE SMOOTH",
"754 653 OFFCURVE",
"762 631 OFFCURVE",
"792 631 CURVE SMOOTH",
"831 631 OFFCURVE",
"851 670 OFFCURVE",
"851 703 CURVE SMOOTH",
"851 730 OFFCURVE",
"837 754 OFFCURVE",
"791 754 CURVE SMOOTH",
"742 754 OFFCURVE",
"708 726 OFFCURVE",
"683 690 CURVE SMOOTH",
"606 578 OFFCURVE",
"535 248 OFFCURVE",
"486 23 CURVE",
"500 -5 LINE",
"578 364 OFFCURVE",
"640 591 OFFCURVE",
"701 682 CURVE SMOOTH",
"721 712 OFFCURVE",
"746 732 OFFCURVE",
"783 733 CURVE SMOOTH"
);
},
{
closed = 1;
nodes = (
"-26 -53 OFFCURVE",
"-27 -53 OFFCURVE",
"-28 -53 CURVE",
"-11 -37 OFFCURVE",
"4 -13 OFFCURVE",
"4 10 CURVE SMOOTH",
"4 27 OFFCURVE",
"-4 49 OFFCURVE",
"-34 49 CURVE SMOOTH",
"-73 49 OFFCURVE",
"-93 11 OFFCURVE",
"-93 -22 CURVE SMOOTH",
"-93 -50 OFFCURVE",
"-80 -74 OFFCURVE",
"-33 -74 CURVE SMOOTH",
"20 -74 OFFCURVE",
"50 -43 OFFCURVE",
"74 -11 CURVE SMOOTH",
"135 70 OFFCURVE",
"202 392 OFFCURVE",
"255 664 CURVE",
"238 685 LINE",
"175 352 OFFCURVE",
"116 90 OFFCURVE",
"58 -1 CURVE SMOOTH",
"38 -33 OFFCURVE",
"11 -52 OFFCURVE",
"-25 -53 CURVE SMOOTH"
);
}
);
};
guideLines = (
{
angle = 74.4;
position = "{531, 52}";
},
{
angle = 74.4;
position = "{62, 70}";
}
);
layerId = UUID0;
paths = (
{
closed = 1;
nodes = (
"520 -5 LINE",
"539 146 LINE",
"315 708 LINE",
"292 706 OFFCURVE",
"265 705 OFFCURVE",
"235 705 CURVE SMOOTH",
"197 705 OFFCURVE",
"165 706 OFFCURVE",
"146 708 CURVE",
"141 688 LINE",
"219 685 OFFCURVE",
"227 675 OFFCURVE",
"213 602 CURVE",
"235 653 LINE",
"498 -5 LINE"
);
},
{
closed = 1;
nodes = (
"56 -54 OFFCURVE",
"84 -4 OFFCURVE",
"128 160 CURVE SMOOTH",
"156 265 OFFCURVE",
"207 457 OFFCURVE",
"245 664 CURVE",
"228 685 LINE",
"197 513 OFFCURVE",
"138 284 OFFCURVE",
"119 215 CURVE SMOOTH",
"67 28 OFFCURVE",
"-43 57 OFFCURVE",
"-43 -13 CURVE SMOOTH",
"-43 -39 OFFCURVE",
"-27 -54 OFFCURVE",
"3 -54 CURVE SMOOTH"
);
},
{
closed = 1;
nodes = (
"563 192 OFFCURVE",
"620 409 OFFCURVE",
"646 488 CURVE SMOOTH",
"706 671 OFFCURVE",
"817 646 OFFCURVE",
"817 716 CURVE SMOOTH",
"817 742 OFFCURVE",
"801 757 OFFCURVE",
"771 757 CURVE SMOOTH",
"718 757 OFFCURVE",
"686 707 OFFCURVE",
"637 543 CURVE SMOOTH",
"601 424 OFFCURVE",
"553 251 OFFCURVE",
"503 16 CURVE",
"520 -5 LINE"
);
}
);
width = 711;
},
{
anchors = (
{
name = bottom;
position = "{326, 0}";
},
{
name = top;
position = "{522, 708}";
}
);
background = {
anchors = (
{
name = bottom;
position = "{326, 0}";
},
{
name = top;
position = "{512, 708}";
}
);
paths = (
{
closed = 1;
nodes = (
"545 -5 LINE",
"545 -5 OFFCURVE",
"595 272 OFFCURVE",
"595 272 CURVE",
"371 708 LINE",
"348 706 OFFCURVE",
"320 705 OFFCURVE",
"290 705 CURVE SMOOTH",
"255 705 OFFCURVE",
"222 706 OFFCURVE",
"201 708 CURVE",
"196 688 LINE",
"274 685 OFFCURVE",
"282 675 OFFCURVE",
"267 602 CURVE",
"267 602 OFFCURVE",
"255 483 OFFCURVE",
"255 483 CURVE",
"523 -5 LINE"
);
},
{
closed = 1;
nodes = (
"842 737 OFFCURVE",
"851 734 OFFCURVE",
"856 729 CURVE",
"797 719 OFFCURVE",
"752 676 OFFCURVE",
"752 616 CURVE SMOOTH",
"752 569 OFFCURVE",
"787 542 OFFCURVE",
"841 542 CURVE SMOOTH",
"903 542 OFFCURVE",
"953 583 OFFCURVE",
"953 647 CURVE SMOOTH",
"953 707 OFFCURVE",
"907 754 OFFCURVE",
"836 754 CURVE SMOOTH",
"787 754 OFFCURVE",
"753 726 OFFCURVE",
"728 690 CURVE SMOOTH",
"651 578 OFFCURVE",
"580 248 OFFCURVE",
"531 23 CURVE",
"545 -5 LINE",
"623 364 OFFCURVE",
"685 591 OFFCURVE",
"746 682 CURVE SMOOTH",
"767 713 OFFCURVE",
"797 737 OFFCURVE",
"831 737 CURVE SMOOTH"
);
},
{
closed = 1;
nodes = (
"6 -57 OFFCURVE",
"-3 -54 OFFCURVE",
"-8 -49 CURVE",
"51 -39 OFFCURVE",
"96 4 OFFCURVE",
"96 64 CURVE SMOOTH",
"96 111 OFFCURVE",
"61 138 OFFCURVE",
"7 138 CURVE SMOOTH",
"-55 138 OFFCURVE",
"-105 97 OFFCURVE",
"-105 33 CURVE SMOOTH",
"-105 -27 OFFCURVE",
"-59 -74 OFFCURVE",
"12 -74 CURVE SMOOTH",
"65 -74 OFFCURVE",
"95 -43 OFFCURVE",
"119 -11 CURVE SMOOTH",
"180 70 OFFCURVE",
"247 392 OFFCURVE",
"300 664 CURVE",
"283 685 LINE",
"220 352 OFFCURVE",
"161 90 OFFCURVE",
"103 -1 CURVE SMOOTH",
"82 -34 OFFCURVE",
"54 -57 OFFCURVE",
"17 -57 CURVE SMOOTH"
);
}
);
};
guideLines = (
{
angle = 74.4;
position = "{156, 281}";
},
{
angle = 74.4;
position = "{609, 185}";
}
);
layerId = "DE547DD1-6B89-4C93-B672-7CF1D26AB89E";
paths = (
{
closed = 1;
nodes = (
"585 -5 LINE",
"628 270 LINE",
"341 708 LINE",
"318 706 OFFCURVE",
"290 705 OFFCURVE",
"260 705 CURVE SMOOTH",
"225 705 OFFCURVE",
"192 706 OFFCURVE",
"171 708 CURVE",
"166 688 LINE",
"244 685 OFFCURVE",
"252 675 OFFCURVE",
"237 602 CURVE",
"225 511 LINE",
"563 -5 LINE"
);
},
{
closed = 1;
nodes = (
"63 -74 OFFCURVE",
"109 -27 OFFCURVE",
"152 140 CURVE SMOOTH",
"183 260 OFFCURVE",
"224 430 OFFCURVE",
"270 664 CURVE",
"253 685 LINE",
"213 485 OFFCURVE",
"201 426 OFFCURVE",
"158 261 CURVE SMOOTH",
"100 40 OFFCURVE",
"-69 103 OFFCURVE",
"-69 -14 CURVE SMOOTH",
"-69 -44 OFFCURVE",
"-46 -74 OFFCURVE",
"-3 -74 CURVE SMOOTH"
);
},
{
closed = 1;
nodes = (
"623 197 OFFCURVE",
"634 256 OFFCURVE",
"675 423 CURVE SMOOTH",
"729 645 OFFCURVE",
"902 581 OFFCURVE",
"902 698 CURVE SMOOTH",
"902 728 OFFCURVE",
"879 758 OFFCURVE",
"836 758 CURVE SMOOTH",
"770 758 OFFCURVE",
"724 711 OFFCURVE",
"681 544 CURVE SMOOTH",
"650 425 OFFCURVE",
"612 252 OFFCURVE",
"568 16 CURVE",
"585 -5 LINE"
);
}
);
width = 787;
}
);
leftKerningGroup = N;
rightKerningGroup = N;
unicode = 004E;
},
{
glyphname = Eng;
lastChange = "2019-04-14 21:23:20 +0000";
layers = (
{
background = {
paths = (
{
closed = 1;
nodes = (
"532 67 LINE",
"678 592 LINE SMOOTH",
"697 665 OFFCURVE",
"714 685 OFFCURVE",
"783 688 CURVE",
"788 708 LINE",
"765 706 OFFCURVE",
"728 705 OFFCURVE",
"694 705 CURVE SMOOTH",
"660 705 OFFCURVE",
"616 706 OFFCURVE",
"593 708 CURVE",
"588 688 LINE",
"665 685 OFFCURVE",
"674 665 OFFCURVE",
"655 592 CURVE SMOOTH",
"531 146 LINE",
"336 708 LINE",
"313 706 OFFCURVE",
"285 705 OFFCURVE",
"255 705 CURVE SMOOTH",
"220 705 OFFCURVE",
"187 706 OFFCURVE",
"166 708 CURVE",
"161 688 LINE",
"228 685 OFFCURVE",
"240 675 OFFCURVE",
"220 602 CURVE SMOOTH",
"84 116 LINE SMOOTH",
"64 43 OFFCURVE",
"48 23 OFFCURVE",
"-21 20 CURVE",
"-26 0 LINE",
"-3 2 OFFCURVE",
"34 3 OFFCURVE",
"68 3 CURVE SMOOTH",
"102 3 OFFCURVE",
"146 2 OFFCURVE",
"169 0 CURVE",
"174 20 LINE",
"97 23 OFFCURVE",
"88 43 OFFCURVE",
"107 116 CURVE SMOOTH",
"256 653 LINE",
"493 -10 LINE"
);
},
{
closed = 1;
nodes = (
"429 -188 OFFCURVE",
"493 -106 OFFCURVE",
"532 67 CURVE",
"510 65 LINE",
"483 -57 OFFCURVE",
"430 -172 OFFCURVE",
"335 -172 CURVE SMOOTH",
"323 -172 OFFCURVE",
"309 -170 OFFCURVE",
"300 -167 CURVE",
"321 -157 OFFCURVE",
"341 -138 OFFCURVE",
"340 -114 CURVE SMOOTH",
"339 -92 OFFCURVE",
"322 -74 OFFCURVE",
"298 -74 CURVE SMOOTH",
"267 -74 OFFCURVE",
"242 -102 OFFCURVE",
"243 -133 CURVE SMOOTH",
"245 -171 OFFCURVE",
"290 -188 OFFCURVE",
"333 -188 CURVE SMOOTH"
);
}
);
};
guideLines = (
{
angle = 74.4;
position = "{84, 116}";
},
{
angle = 74.4;
position = "{107, 116}";
},
{
angle = 74.4;
position = "{655, 592}";
},
{
angle = 74.4;
position = "{678, 592}";
}
);
layerId = UUID0;
paths = (
{
closed = 1;
nodes = (
"552 67 LINE",
"697 592 LINE SMOOTH",
"715 658 OFFCURVE",
"728 685 OFFCURVE",
"803 688 CURVE",
"808 708 LINE",
"785 706 OFFCURVE",
"748 705 OFFCURVE",
"714 705 CURVE SMOOTH",
"680 705 OFFCURVE",
"636 706 OFFCURVE",
"613 708 CURVE",
"608 688 LINE",
"694 685 OFFCURVE",
"691 655 OFFCURVE",
"674 592 CURVE SMOOTH",
"551 146 LINE",
"336 708 LINE",
"313 706 OFFCURVE",
"285 705 OFFCURVE",
"255 705 CURVE SMOOTH",
"220 705 OFFCURVE",
"187 706 OFFCURVE",
"166 708 CURVE",
"161 688 LINE",
"235 685 OFFCURVE",
"239 668 OFFCURVE",
"220 602 CURVE SMOOTH",
"84 116 LINE SMOOTH",
"67 54 OFFCURVE",
"56 23 OFFCURVE",
"-21 20 CURVE",
"-26 0 LINE",
"-3 2 OFFCURVE",
"34 3 OFFCURVE",
"68 3 CURVE SMOOTH",
"102 3 OFFCURVE",
"146 2 OFFCURVE",
"169 0 CURVE",
"174 20 LINE",
"96 23 OFFCURVE",
"88 44 OFFCURVE",
"108 116 CURVE SMOOTH",
"256 653 LINE",
"513 -10 LINE"
);
},
{
closed = 1;
nodes = (
"444 -188 OFFCURVE",
"493 -143 OFFCURVE",
"512 -75 CURVE SMOOTH",
"552 67 LINE",
"529 69 LINE",
"493 -62 LINE SMOOTH",
"479 -112 OFFCURVE",
"460 -134 OFFCURVE",
"431 -134 CURVE SMOOTH",
"390 -134 OFFCURVE",
"379 -83 OFFCURVE",
"337 -83 CURVE SMOOTH",
"310 -83 OFFCURVE",
"288 -105 OFFCURVE",
"288 -132 CURVE SMOOTH",
"288 -165 OFFCURVE",
"320 -188 OFFCURVE",
"367 -188 CURVE SMOOTH"
);
}
);
width = 723;
},
{
background = {
paths = (
{
closed = 1;
nodes = (
"568 -5 LINE",
"737 602 LINE SMOOTH",
"757 675 OFFCURVE",
"771 685 OFFCURVE",
"840 688 CURVE",
"845 708 LINE",
"822 706 OFFCURVE",
"789 705 OFFCURVE",
"754 705 CURVE SMOOTH",
"719 705 OFFCURVE",
"684 706 OFFCURVE",
"661 708 CURVE",
"656 688 LINE",
"723 685 OFFCURVE",
"735 674 OFFCURVE",
"715 602 CURVE SMOOTH",
"623 275 LINE",
"320 708 LINE",
"297 706 OFFCURVE",
"269 705 OFFCURVE",
"239 705 CURVE SMOOTH",
"204 705 OFFCURVE",
"171 706 OFFCURVE",
"150 708 CURVE",
"145 688 LINE",
"223 685 OFFCURVE",
"236 674 OFFCURVE",
"216 602 CURVE SMOOTH",
"77 106 LINE SMOOTH",
"57 33 OFFCURVE",
"43 23 OFFCURVE",
"-26 20 CURVE",
"-30 0 LINE",
"-8 2 OFFCURVE",
"30 3 OFFCURVE",
"65 3 CURVE SMOOTH",
"100 3 OFFCURVE",
"130 2 OFFCURVE",
"154 0 CURVE",
"158 20 LINE",
"91 23 OFFCURVE",
"79 33 OFFCURVE",
"99 106 CURVE SMOOTH",
"202 474 LINE",
"546 -5 LINE"
);
},
{
closed = 1;
nodes = (
"518 -188 OFFCURVE",
"548 -103 OFFCURVE",
"569 1 CURVE",
"551 20 LINE",
"536 -55 OFFCURVE",
"516 -171 OFFCURVE",
"422 -171 CURVE SMOOTH",
"417 -171 OFFCURVE",
"413 -170 OFFCURVE",
"409 -169 CURVE",
"452 -151 OFFCURVE",
"476 -123 OFFCURVE",
"476 -85 CURVE SMOOTH",
"476 -36 OFFCURVE",
"431 -12 OFFCURVE",
"375 -12 CURVE SMOOTH",
"307 -12 OFFCURVE",
"271 -49 OFFCURVE",
"271 -99 CURVE SMOOTH",
"271 -166 OFFCURVE",
"345 -188 OFFCURVE",
"411 -188 CURVE SMOOTH"
);
}
);
};
guideLines = (
{
angle = 74.4;
position = "{77, 106}";
},
{
angle = 74.4;
position = "{99, 106}";
},
{
angle = 74.4;
position = "{737, 602}";
},
{
angle = 74.4;
position = "{715, 602}";
}
);
layerId = "DE547DD1-6B89-4C93-B672-7CF1D26AB89E";
paths = (
{
closed = 1;
nodes = (
"588 67 LINE",
"737 602 LINE SMOOTH",
"758 677 OFFCURVE",
"771 684 OFFCURVE",
"840 688 CURVE",
"845 708 LINE",
"822 706 OFFCURVE",
"789 705 OFFCURVE",
"754 705 CURVE SMOOTH",
"719 705 OFFCURVE",
"684 706 OFFCURVE",
"661 708 CURVE",
"656 688 LINE",
"730 685 OFFCURVE",
"733 666 OFFCURVE",
"715 602 CURVE SMOOTH",
"614 241 LINE",
"320 708 LINE",
"297 706 OFFCURVE",
"269 705 OFFCURVE",
"239 705 CURVE SMOOTH",
"204 705 OFFCURVE",
"171 706 OFFCURVE",
"150 708 CURVE",
"145 688 LINE",
"233 685 OFFCURVE",
"233 664 OFFCURVE",
"216 602 CURVE SMOOTH",
"77 106 LINE SMOOTH",
"56 31 OFFCURVE",
"43 24 OFFCURVE",
"-26 20 CURVE",
"-30 0 LINE",
"-8 2 OFFCURVE",
"30 3 OFFCURVE",
"65 3 CURVE SMOOTH",
"100 3 OFFCURVE",
"130 2 OFFCURVE",
"154 0 CURVE",
"158 20 LINE",
"84 23 OFFCURVE",
"81 41 OFFCURVE",
"99 106 CURVE SMOOTH",
"209 499 LINE",
"552 -14 LINE"
);
},
{
closed = 1;
nodes = (
"477 -188 OFFCURVE",
"532 -137 OFFCURVE",
"556 -48 CURVE SMOOTH",
"588 67 LINE",
"565 69 LINE",
"538 -32 LINE SMOOTH",
"525 -81 OFFCURVE",
"509 -89 OFFCURVE",
"484 -89 CURVE SMOOTH",
"439 -89 OFFCURVE",
"430 -24 OFFCURVE",
"373 -24 CURVE SMOOTH",
"332 -24 OFFCURVE",
"299 -60 OFFCURVE",
"299 -105 CURVE SMOOTH",
"299 -155 OFFCURVE",
"341 -188 OFFCURVE",
"405 -188 CURVE SMOOTH"
);
}
);
width = 745;
}
);
leftKerningGroup = I;
leftMetricsKey = I;
rightKerningGroup = I;
rightMetricsKey = I;
unicode = 014A;
},
{
glyphname = O;
lastChange = "2019-04-15 18:25:21 +0000";
layers = (
{
anchors = (
{
name = bottom;
position = "{307, 0}";
},
{
name = top;
position = "{475, 708}";
}
);
background = {
anchors = (
{
name = bottom;
position = "{307, 0}";
},
{
name = top;
position = "{475, 708}";
}
);
paths = (
{
closed = 1;
nodes = (
"532 -14 OFFCURVE",
"706 191 OFFCURVE",
"706 439 CURVE SMOOTH",
"706 616 OFFCURVE",
"616 722 OFFCURVE",
"464 722 CURVE SMOOTH",
"253 722 OFFCURVE",
"79 518 OFFCURVE",
"79 270 CURVE SMOOTH",
"79 92 OFFCURVE",
"169 -14 OFFCURVE",
"321 -14 CURVE SMOOTH"
);
},
{
closed = 1;
nodes = (
"230 4 OFFCURVE",
"181 85 OFFCURVE",
"181 234 CURVE SMOOTH",
"181 481 OFFCURVE",
"315 704 OFFCURVE",
"463 704 CURVE SMOOTH",
"553 704 OFFCURVE",
"602 623 OFFCURVE",
"602 472 CURVE SMOOTH",
"602 224 OFFCURVE",
"470 4 OFFCURVE",
"321 4 CURVE SMOOTH"
);
}
);
};
guideLines = (
{
angle = 74.4;
position = "{327, 108}";
}
);
hints = (
{
horizontal = 1;
origin = "{0, 5}";
target = down;
type = TopGhost;
},
{
horizontal = 1;
origin = "{0, 11}";
target = up;
type = BottomGhost;
}
);
layerId = UUID0;
paths = (
{
closed = 1;
nodes = (
"532 -14 OFFCURVE",
"706 191 OFFCURVE",
"706 439 CURVE SMOOTH",
"706 616 OFFCURVE",
"616 722 OFFCURVE",
"464 722 CURVE SMOOTH",
"253 722 OFFCURVE",
"79 518 OFFCURVE",
"79 270 CURVE SMOOTH",
"79 92 OFFCURVE",
"169 -14 OFFCURVE",
"321 -14 CURVE SMOOTH"
);
},
{
closed = 1;
nodes = (
"229 4 OFFCURVE",
"179 85 OFFCURVE",
"179 234 CURVE SMOOTH",
"179 481 OFFCURVE",
"314 704 OFFCURVE",
"463 704 CURVE SMOOTH",
"555 704 OFFCURVE",
"606 623 OFFCURVE",
"606 472 CURVE SMOOTH",
"606 224 OFFCURVE",
"472 4 OFFCURVE",
"321 4 CURVE SMOOTH"
);
}
);
width = 730;
},
{
anchors = (
{
name = bottom;
position = "{344, 0}";
},
{
name = top;
position = "{515, 708}";
}
);
background = {
anchors = (
{
name = bottom;
position = "{344, 0}";
},
{
name = top;
position = "{515, 708}";
}
);
paths = (
{
closed = 1;
nodes = (
"605 -14 OFFCURVE",
"786 173 OFFCURVE",
"786 423 CURVE SMOOTH",
"786 613 OFFCURVE",
"680 722 OFFCURVE",
"495 722 CURVE SMOOTH",
"253 722 OFFCURVE",
"73 535 OFFCURVE",
"73 284 CURVE SMOOTH",
"73 93 OFFCURVE",
"177 -14 OFFCURVE",
"362 -14 CURVE SMOOTH"
);
},
{
closed = 1;
nodes = (
"309 4 OFFCURVE",
"279 76 OFFCURVE",
"279 207 CURVE SMOOTH",
"279 452 OFFCURVE",
"388 704 OFFCURVE",
"494 704 CURVE SMOOTH",
"549 704 OFFCURVE",
"579 631 OFFCURVE",
"579 499 CURVE SMOOTH",
"579 257 OFFCURVE",
"469 4 OFFCURVE",
"363 4 CURVE SMOOTH"
);
}
);
};
guideLines = (
{
angle = 74.4;
position = "{364, 108}";
}
);
layerId = "DE547DD1-6B89-4C93-B672-7CF1D26AB89E";
paths = (
{
closed = 1;
nodes = (
"604 -14 OFFCURVE",
"786 184 OFFCURVE",
"786 419 CURVE SMOOTH",
"786 619 OFFCURVE",
"667 722 OFFCURVE",
"482 722 CURVE SMOOTH",
"254 722 OFFCURVE",
"73 526 OFFCURVE",
"73 290 CURVE SMOOTH",
"73 89 OFFCURVE",
"191 -14 OFFCURVE",
"376 -14 CURVE SMOOTH"
);
},
{
closed = 1;
nodes = (
"300 5 OFFCURVE",
"269 72 OFFCURVE",
"269 188 CURVE SMOOTH",
"269 444 OFFCURVE",
"396 702 OFFCURVE",
"503 702 CURVE SMOOTH",
"557 702 OFFCURVE",
"589 633 OFFCURVE",
"589 519 CURVE SMOOTH",
"589 266 OFFCURVE",
"460 5 OFFCURVE",
"353 5 CURVE SMOOTH"
);
}
);
width = 806;
}
);
leftKerningGroup = O;
rightKerningGroup = O;
unicode = 004F;
},
{
glyphname = Ohorn;
lastChange = "2019-04-12 13:21:55 +0000";
layers = (
{
background = {
components = (
{
name = O;
}
);
paths = (
{
closed = 1;
nodes = (
"655 675 OFFCURVE",
"727 690 OFFCURVE",
"778 720 CURVE SMOOTH",
"817 743 OFFCURVE",
"843 775 OFFCURVE",
"843 809 CURVE SMOOTH",
"843 838 OFFCURVE",
"824 864 OFFCURVE",
"787 864 CURVE SMOOTH",
"748 864 OFFCURVE",
"729 835 OFFCURVE",
"729 805 CURVE SMOOTH",
"729 774 OFFCURVE",
"749 750 OFFCURVE",
"770 734 CURVE",
"771 741 LINE",
"722 708 OFFCURVE",
"663 696 OFFCURVE",
"548 707 CURVE",
"556 684 LINE"
);
}
);
};
components = (
{
name = O;
}
);
layerId = UUID0;
paths = (
{
closed = 1;
nodes = (
"710 680 OFFCURVE",
"787 726 OFFCURVE",
"787 789 CURVE SMOOTH",
"787 818 OFFCURVE",
"771 835 OFFCURVE",
"743 835 CURVE SMOOTH",
"716 835 OFFCURVE",
"693 815 OFFCURVE",
"693 790 CURVE SMOOTH",
"693 770 OFFCURVE",
"706 752 OFFCURVE",
"706 737 CURVE SMOOTH",
"706 713 OFFCURVE",
"670 698 OFFCURVE",
"612 698 CURVE SMOOTH",
"597 698 OFFCURVE",
"579 699 OFFCURVE",
"552 703 CURVE",
"550 684 LINE",
"563 681 OFFCURVE",
"582 680 OFFCURVE",
"604 680 CURVE SMOOTH"
);
}
);
width = 730;
},
{
background = {
components = (
{
name = O;
}
);
paths = (
{
closed = 1;
nodes = (
"739 665 OFFCURVE",
"836 687 OFFCURVE",
"880 707 CURVE SMOOTH",
"922 726 OFFCURVE",
"942 756 OFFCURVE",
"942 794 CURVE SMOOTH",
"942 846 OFFCURVE",
"904 876 OFFCURVE",
"862 876 CURVE SMOOTH",
"821 876 OFFCURVE",
"785 847 OFFCURVE",
"785 800 CURVE SMOOTH",
"785 756 OFFCURVE",
"819 726 OFFCURVE",
"853 711 CURVE",
"856 720 LINE",
"793 699 OFFCURVE",
"724 690 OFFCURVE",
"601 706 CURVE",
"606 686 LINE"
);
}
);
};
components = (
{
name = O;
}
);
layerId = "DE547DD1-6B89-4C93-B672-7CF1D26AB89E";
paths = (
{
closed = 1;
nodes = (
"769 690 OFFCURVE",
"846 740 OFFCURVE",
"846 807 CURVE SMOOTH",
"846 843 OFFCURVE",
"824 865 OFFCURVE",
"788 865 CURVE SMOOTH",
"749 865 OFFCURVE",
"720 839 OFFCURVE",
"720 805 CURVE SMOOTH",
"720 776 OFFCURVE",
"740 768 OFFCURVE",
"740 746 CURVE SMOOTH",
"740 720 OFFCURVE",
"712 707 OFFCURVE",
"653 707 CURVE SMOOTH",
"620 707 OFFCURVE",
"575 711 OFFCURVE",
"551 716 CURVE",
"547 701 LINE",
"582 695 OFFCURVE",
"634 690 OFFCURVE",
"666 690 CURVE SMOOTH"
);
}
);
width = 806;
}
);
leftKerningGroup = O;
leftMetricsKey = O;
rightKerningGroup = Ohorn;
rightMetricsKey = O;
unicode = 01A0;
},
{
glyphname = OE;
lastChange = "2019-04-09 16:44:37 +0000";
layers = (
{
anchors = (
{
name = top;
position = "{651, 708}";
}
);
background = {
anchors = (
{
name = top;
position = "{651, 708}";
}
);
paths = (
{
closed = 1;
nodes = (
"373 -14 OFFCURVE",
"396 1 OFFCURVE",
"485 2 CURVE SMOOTH",
"487 2 OFFCURVE",
"577 3 OFFCURVE",
"648 3 CURVE SMOOTH",
"731 3 OFFCURVE",
"797 2 OFFCURVE",
"825 0 CURVE",
"841 69 OFFCURVE",
"865 141 OFFCURVE",
"902 230 CURVE",
"879 230 LINE",
"803 68 OFFCURVE",
"746 23 OFFCURVE",
"618 23 CURVE SMOOTH",
"616 23 LINE SMOOTH",
"550 23 OFFCURVE",
"541 37 OFFCURVE",
"560 106 CURVE SMOOTH",
"698 602 LINE SMOOTH",
"718 672 OFFCURVE",
"734 685 OFFCURVE",
"802 685 CURVE SMOOTH",
"825 685 LINE SMOOTH",
"902 685 OFFCURVE",
"924 651 OFFCURVE",
"926 528 CURVE",
"949 528 LINE",
"957 598 OFFCURVE",
"968 655 OFFCURVE",
"986 708 CURVE",
"943 706 OFFCURVE",
"889 705 OFFCURVE",
"813 705 CURVE SMOOTH",
"783 705 OFFCURVE",
"735 705 OFFCURVE",
"673 705 CURVE SMOOTH",
"599 705 OFFCURVE",
"579 722 OFFCURVE",
"511 722 CURVE SMOOTH",
"270 722 OFFCURVE",
"74 513 OFFCURVE",
"74 255 CURVE SMOOTH",
"74 83 OFFCURVE",
"160 -14 OFFCURVE",
"313 -14 CURVE SMOOTH"
);
},
{
closed = 1;
nodes = (
"229 4 OFFCURVE",
"174 86 OFFCURVE",
"174 237 CURVE SMOOTH",
"174 491 OFFCURVE",
"329 704 OFFCURVE",
"514 704 CURVE SMOOTH",
"594 704 OFFCURVE",
"623 664 OFFCURVE",
"600 584 CURVE SMOOTH",
"477 142 LINE SMOOTH",
"453 53 OFFCURVE",
"401 4 OFFCURVE",
"329 4 CURVE SMOOTH"
);
},
{
closed = 1;
nodes = (
"767 346 LINE",
"772 366 LINE",
"602 366 LINE",
"597 346 LINE"
);
},
{
closed = 1;
nodes = (
"787 234 LINE",
"790 248 OFFCURVE",
"801 301 OFFCURVE",
"816 359 CURVE SMOOTH",
"835 432 OFFCURVE",
"845 456 OFFCURVE",
"853 478 CURVE",
"830 478 LINE",
"810 438 OFFCURVE",
"792 366 OFFCURVE",
"705 366 CURVE",
"700 346 LINE",
"765 346 OFFCURVE",
"778 323 OFFCURVE",
"764 234 CURVE"
);
}
);
};
layerId = UUID0;
paths = (
{
closed = 1;
nodes = (
"373 -14 OFFCURVE",
"396 1 OFFCURVE",
"485 2 CURVE SMOOTH",
"487 2 OFFCURVE",
"577 3 OFFCURVE",
"648 3 CURVE SMOOTH",
"731 3 OFFCURVE",
"797 2 OFFCURVE",
"825 0 CURVE",
"841 69 OFFCURVE",
"865 141 OFFCURVE",
"902 230 CURVE",
"879 230 LINE",
"803 68 OFFCURVE",
"746 23 OFFCURVE",
"618 23 CURVE SMOOTH",
"616 23 LINE SMOOTH",
"550 23 OFFCURVE",
"541 37 OFFCURVE",
"560 106 CURVE SMOOTH",
"698 602 LINE SMOOTH",
"718 672 OFFCURVE",
"734 685 OFFCURVE",
"802 685 CURVE SMOOTH",
"825 685 LINE SMOOTH",
"902 685 OFFCURVE",
"924 651 OFFCURVE",
"926 528 CURVE",
"949 528 LINE",
"957 598 OFFCURVE",
"968 655 OFFCURVE",
"986 708 CURVE",
"943 706 OFFCURVE",
"889 705 OFFCURVE",
"813 705 CURVE SMOOTH",
"783 705 OFFCURVE",
"735 705 OFFCURVE",
"673 705 CURVE SMOOTH",
"599 705 OFFCURVE",
"579 722 OFFCURVE",
"511 722 CURVE SMOOTH",
"270 722 OFFCURVE",
"74 513 OFFCURVE",
"74 255 CURVE SMOOTH",
"74 83 OFFCURVE",
"160 -14 OFFCURVE",
"313 -14 CURVE SMOOTH"
);
},
{
closed = 1;
nodes = (
"229 4 OFFCURVE",
"174 86 OFFCURVE",
"174 237 CURVE SMOOTH",
"174 491 OFFCURVE",
"329 704 OFFCURVE",
"514 704 CURVE SMOOTH",
"594 704 OFFCURVE",
"623 664 OFFCURVE",
"600 584 CURVE SMOOTH",
"477 142 LINE SMOOTH",
"453 53 OFFCURVE",
"401 4 OFFCURVE",
"329 4 CURVE SMOOTH"
);
},
{
closed = 1;
nodes = (
"767 346 LINE",
"772 366 LINE",
"602 366 LINE",
"597 346 LINE"
);
},
{
closed = 1;
nodes = (
"787 234 LINE",
"800 299 OFFCURVE",
"800 299 OFFCURVE",
"815 356 CURVE SMOOTH",
"826 398 OFFCURVE",
"832 423 OFFCURVE",
"852 478 CURVE",
"829 478 LINE",
"788 387 OFFCURVE",
"763 366 OFFCURVE",
"694 366 CURVE",
"689 346 LINE",
"757 346 OFFCURVE",
"773 322 OFFCURVE",
"764 234 CURVE"
);
}
);
width = 951;
},
{
anchors = (
{
name = top;
position = "{728, 708}";
}
);
background = {
anchors = (
{
name = top;
position = "{728, 708}";
}
);
paths = (
{
closed = 1;
nodes = (
"417 -14 OFFCURVE",
"455 3 OFFCURVE",
"576 3 CURVE SMOOTH",
"635 3 OFFCURVE",
"687 3 OFFCURVE",
"721 3 CURVE SMOOTH",
"814 3 OFFCURVE",
"890 2 OFFCURVE",
"954 0 CURVE",
"978 86 OFFCURVE",
"1007 177 OFFCURVE",
"1043 280 CURVE",
"1020 280 LINE",
"940 118 OFFCURVE",
"842 23 OFFCURVE",
"755 23 CURVE SMOOTH",
"752 23 LINE SMOOTH",
"691 23 OFFCURVE",
"684 35 OFFCURVE",
"704 106 CURVE SMOOTH",
"842 602 LINE SMOOTH",
"862 673 OFFCURVE",
"874 685 OFFCURVE",
"926 685 CURVE SMOOTH",
"928 685 LINE SMOOTH",
"1004 685 OFFCURVE",
"1048 594 OFFCURVE",
"1033 468 CURVE",
"1056 468 LINE",
"1064 532 OFFCURVE",
"1080 608 OFFCURVE",
"1107 708 CURVE",
"1052 706 OFFCURVE",
"991 705 OFFCURVE",
"917 705 CURVE SMOOTH",
"883 705 OFFCURVE",
"830 705 OFFCURVE",
"771 705 CURVE SMOOTH",
"624 705 OFFCURVE",
"627 722 OFFCURVE",
"548 722 CURVE SMOOTH",
"277 722 OFFCURVE",
"67 525 OFFCURVE",
"67 270 CURVE SMOOTH",
"67 90 OFFCURVE",
"170 -14 OFFCURVE",
"346 -14 CURVE SMOOTH"
);
},
{
closed = 1;
nodes = (
"303 4 OFFCURVE",
"267 67 OFFCURVE",
"267 196 CURVE SMOOTH",
"267 458 OFFCURVE",
"414 704 OFFCURVE",
"571 704 CURVE SMOOTH",
"635 704 OFFCURVE",
"657 664 OFFCURVE",
"635 585 CURVE SMOOTH",
"505 122 LINE SMOOTH",
"481 38 OFFCURVE",
"438 4 OFFCURVE",
"377 4 CURVE SMOOTH"
);
},
{
closed = 1;
nodes = (
"901 346 LINE",
"906 366 LINE",
"746 366 LINE",
"741 346 LINE"
);
},
{
closed = 1;
nodes = (
"901 214 LINE",
"913 274 OFFCURVE",
"923 317 OFFCURVE",
"935 359 CURVE SMOOTH",
"950 412 OFFCURVE",
"964 459 OFFCURVE",
"977 498 CURVE",
"954 498 LINE",
"921 420 OFFCURVE",
"858 366 OFFCURVE",
"801 366 CURVE",
"796 346 LINE",
"861 346 OFFCURVE",
"891 298 OFFCURVE",
"878 214 CURVE"
);
}
);
};
layerId = "DE547DD1-6B89-4C93-B672-7CF1D26AB89E";
paths = (
{
closed = 1;
nodes = (
"417 -14 OFFCURVE",
"455 3 OFFCURVE",
"576 3 CURVE SMOOTH",
"635 3 OFFCURVE",
"687 3 OFFCURVE",
"721 3 CURVE SMOOTH",
"814 3 OFFCURVE",
"890 2 OFFCURVE",
"954 0 CURVE",
"978 86 OFFCURVE",
"1007 177 OFFCURVE",
"1043 280 CURVE",
"1020 280 LINE",
"940 118 OFFCURVE",
"842 23 OFFCURVE",
"755 23 CURVE SMOOTH",
"752 23 LINE SMOOTH",
"691 23 OFFCURVE",
"684 35 OFFCURVE",
"704 106 CURVE SMOOTH",
"842 602 LINE SMOOTH",
"862 673 OFFCURVE",
"874 685 OFFCURVE",
"926 685 CURVE SMOOTH",
"928 685 LINE SMOOTH",
"1004 685 OFFCURVE",
"1048 594 OFFCURVE",
"1033 468 CURVE",
"1056 468 LINE",
"1064 532 OFFCURVE",
"1080 608 OFFCURVE",
"1107 708 CURVE",
"1052 706 OFFCURVE",
"991 705 OFFCURVE",
"917 705 CURVE SMOOTH",
"883 705 OFFCURVE",
"830 705 OFFCURVE",
"771 705 CURVE SMOOTH",
"624 705 OFFCURVE",
"627 722 OFFCURVE",
"548 722 CURVE SMOOTH",
"277 722 OFFCURVE",
"67 525 OFFCURVE",
"67 270 CURVE SMOOTH",
"67 90 OFFCURVE",
"170 -14 OFFCURVE",
"346 -14 CURVE SMOOTH"
);
},
{
closed = 1;
nodes = (
"303 4 OFFCURVE",
"267 67 OFFCURVE",
"267 196 CURVE SMOOTH",
"267 458 OFFCURVE",
"414 704 OFFCURVE",
"571 704 CURVE SMOOTH",
"635 704 OFFCURVE",
"657 664 OFFCURVE",
"635 585 CURVE SMOOTH",
"505 122 LINE SMOOTH",
"481 38 OFFCURVE",
"438 4 OFFCURVE",
"377 4 CURVE SMOOTH"
);
},
{
closed = 1;
nodes = (
"901 346 LINE",
"906 366 LINE",
"746 366 LINE",
"741 346 LINE"
);
},
{
closed = 1;
nodes = (
"900 214 LINE",
"918 299 OFFCURVE",
"922 313 OFFCURVE",
"934 356 CURVE SMOOTH",
"972 491 OFFCURVE",
"950 413 OFFCURVE",
"976 498 CURVE",
"953 498 LINE",
"913 406 OFFCURVE",
"861 366 OFFCURVE",
"780 366 CURVE",
"775 346 LINE",
"847 346 OFFCURVE",
"883 299 OFFCURVE",
"877 214 CURVE"
);
}
);
width = 1069;
}
);
leftKerningGroup = O;
leftMetricsKey = O;
rightKerningGroup = E;
rightMetricsKey = E;
unicode = 0152;
},
{
glyphname = P;
lastChange = "2019-04-16 17:11:31 +0000";
layers = (
{
anchors = (
{
name = bottom;
position = "{100, 0}";
},
{
name = top;
position = "{413, 708}";
}
);
background = {
anchors = (
{
name = bottom;
position = "{100, 0}";
},
{
name = top;
position = "{413, 708}";
}
);
paths = (
{
closed = 1;
nodes = (
"-3 2 OFFCURVE",
"40 3 OFFCURVE",
"102 3 CURVE SMOOTH",
"158 3 OFFCURVE",
"201 2 OFFCURVE",
"229 0 CURVE",
"233 20 LINE",
"163 22 OFFCURVE",
"154 35 OFFCURVE",
"174 106 CURVE SMOOTH",
"313 602 LINE SMOOTH",
"327 652 OFFCURVE",
"336 688 OFFCURVE",
"403 688 CURVE SMOOTH",
"487 688 OFFCURVE",
"534 633 OFFCURVE",
"534 536 CURVE SMOOTH",
"534 394 OFFCURVE",
"445 294 OFFCURVE",
"320 294 CURVE SMOOTH",
"279 294 OFFCURVE",
"235 303 OFFCURVE",
"203 319 CURVE",
"198 299 LINE",
"232 283 OFFCURVE",
"279 274 OFFCURVE",
"327 274 CURVE SMOOTH",
"499 274 OFFCURVE",
"635 387 OFFCURVE",
"635 529 CURVE SMOOTH",
"635 639 OFFCURVE",
"554 707 OFFCURVE",
"421 707 CURVE SMOOTH",
"398 707 OFFCURVE",
"345 705 OFFCURVE",
"276 705 CURVE SMOOTH",
"222 705 OFFCURVE",
"182 706 OFFCURVE",
"166 708 CURVE",
"161 688 LINE",
"243 687 OFFCURVE",
"235 658 OFFCURVE",
"220 602 CURVE SMOOTH",
"81 106 LINE SMOOTH",
"61 35 OFFCURVE",
"50 26 OFFCURVE",
"-22 20 CURVE",
"-26 0 LINE"
);
}
);
};
guideLines = (
{
angle = 74.4;
position = "{81, 106}";
}
);
hints = (
{
horizontal = 1;
origin = "{0, 38}";
target = "{0, 39}";
type = Stem;
},
{
horizontal = 1;
origin = "{0, 47}";
target = "{0, 46}";
type = Stem;
},
{
horizontal = 1;
origin = "{0, 23}";
target = "{0, 22}";
type = Stem;
}
);
layerId = UUID0;
paths = (
{
closed = 1;
nodes = (
"-2 2 OFFCURVE",
"42 3 OFFCURVE",
"106 3 CURVE SMOOTH",
"155 3 OFFCURVE",
"196 2 OFFCURVE",
"249 0 CURVE",
"253 20 LINE",
"149 22 OFFCURVE",
"158 49 OFFCURVE",
"174 106 CURVE SMOOTH",
"318 620 LINE SMOOTH",
"331 669 OFFCURVE",
"356 688 OFFCURVE",
"409 688 CURVE SMOOTH",
"482 688 OFFCURVE",
"534 639 OFFCURVE",
"534 540 CURVE SMOOTH",
"534 394 OFFCURVE",
"445 296 OFFCURVE",
"313 296 CURVE SMOOTH",
"271 296 OFFCURVE",
"225 305 OFFCURVE",
"203 319 CURVE",
"198 299 LINE",
"232 283 OFFCURVE",
"279 274 OFFCURVE",
"327 274 CURVE SMOOTH",
"499 274 OFFCURVE",
"635 387 OFFCURVE",
"635 529 CURVE SMOOTH",
"635 639 OFFCURVE",
"554 707 OFFCURVE",
"421 707 CURVE SMOOTH",
"401 707 OFFCURVE",
"348 705 OFFCURVE",
"292 705 CURVE SMOOTH",
"237 705 OFFCURVE",
"184 706 OFFCURVE",
"166 708 CURVE",
"161 688 LINE",
"229 687 OFFCURVE",
"240 671 OFFCURVE",
"220 602 CURVE SMOOTH",
"81 106 LINE SMOOTH",
"61 37 OFFCURVE",
"52 29 OFFCURVE",
"-22 20 CURVE",
"-26 0 LINE"
);
}
);
width = 597;
},
{
anchors = (
{
name = bottom;
position = "{145, 0}";
},
{
name = top;
position = "{458, 708}";
}
);
background = {
anchors = (
{
name = bottom;
position = "{145, 0}";
},
{
name = top;
position = "{458, 708}";
}
);
paths = (
{
closed = 1;
nodes = (
"-11 2 OFFCURVE",
"53 3 OFFCURVE",
"140 3 CURVE SMOOTH",
"219 3 OFFCURVE",
"278 2 OFFCURVE",
"324 0 CURVE",
"328 20 LINE",
"266 24 OFFCURVE",
"252 44 OFFCURVE",
"269 106 CURVE SMOOTH",
"419 647 LINE SMOOTH",
"425 667 OFFCURVE",
"430 688 OFFCURVE",
"457 688 CURVE SMOOTH",
"500 688 OFFCURVE",
"528 634 OFFCURVE",
"528 549 CURVE SMOOTH",
"528 406 OFFCURVE",
"448 298 OFFCURVE",
"341 298 CURVE SMOOTH",
"308 298 OFFCURVE",
"276 309 OFFCURVE",
"247 330 CURVE",
"242 310 LINE",
"286 281 OFFCURVE",
"324 271 OFFCURVE",
"387 271 CURVE SMOOTH",
"591 271 OFFCURVE",
"739 379 OFFCURVE",
"739 528 CURVE SMOOTH",
"739 646 OFFCURVE",
"647 707 OFFCURVE",
"467 707 CURVE SMOOTH",
"434 707 OFFCURVE",
"403 705 OFFCURVE",
"306 705 CURVE SMOOTH",
"226 705 OFFCURVE",
"169 706 OFFCURVE",
"150 708 CURVE",
"145 688 LINE",
"210 685 OFFCURVE",
"222 668 OFFCURVE",
"204 602 CURVE SMOOTH",
"66 106 LINE SMOOTH",
"46 35 OFFCURVE",
"34 25 OFFCURVE",
"-37 20 CURVE",
"-41 0 LINE"
);
}
);
};
guideLines = (
{
angle = 74.4;
position = "{66, 106}";
}
);
layerId = "DE547DD1-6B89-4C93-B672-7CF1D26AB89E";
paths = (
{
closed = 1;
nodes = (
"-11 2 OFFCURVE",
"54 3 OFFCURVE",
"147 3 CURVE SMOOTH",
"216 3 OFFCURVE",
"271 2 OFFCURVE",
"344 0 CURVE",
"348 20 LINE",
"268 24 OFFCURVE",
"251 42 OFFCURVE",
"269 106 CURVE SMOOTH",
"419 647 LINE SMOOTH",
"427 676 OFFCURVE",
"439 688 OFFCURVE",
"460 688 CURVE SMOOTH",
"508 688 OFFCURVE",
"538 640 OFFCURVE",
"538 561 CURVE SMOOTH",
"538 415 OFFCURVE",
"451 298 OFFCURVE",
"341 298 CURVE SMOOTH",
"308 298 OFFCURVE",
"273 309 OFFCURVE",
"244 320 CURVE",
"239 300 LINE",
"286 281 OFFCURVE",
"324 271 OFFCURVE",
"387 271 CURVE SMOOTH",
"591 271 OFFCURVE",
"739 379 OFFCURVE",
"739 528 CURVE SMOOTH",
"739 646 OFFCURVE",
"646 707 OFFCURVE",
"466 707 CURVE SMOOTH",
"437 707 OFFCURVE",
"394 705 OFFCURVE",
"322 705 CURVE SMOOTH",
"250 705 OFFCURVE",
"170 706 OFFCURVE",
"150 708 CURVE",
"145 688 LINE",
"211 685 OFFCURVE",
"223 667 OFFCURVE",
"204 602 CURVE SMOOTH",
"66 106 LINE SMOOTH",
"46 35 OFFCURVE",
"34 26 OFFCURVE",
"-37 20 CURVE",
"-41 0 LINE"
);
}
);
width = 687;
}
);
leftKerningGroup = I;
leftMetricsKey = I;
rightKerningGroup = P;
unicode = 0050;
},
{
glyphname = Thorn;
lastChange = "2019-04-12 12:55:54 +0000";
layers = (
{
background = {
components = (
{
name = I;
}
);
paths = (
{
closed = 1;
nodes = (
"251 550 LINE",
"296 553 OFFCURVE",
"308 556 OFFCURVE",
"367 556 CURVE SMOOTH",
"457 556 OFFCURVE",
"494 518 OFFCURVE",
"494 440 CURVE SMOOTH",
"494 291 OFFCURVE",
"426 172 OFFCURVE",
"228 172 CURVE SMOOTH",
"183 172 LINE",
"183 172 OFFCURVE",
"178 152 OFFCURVE",
"178 152 CURVE",
"218 152 LINE SMOOTH",
"442 152 OFFCURVE",
"595 267 OFFCURVE",
"595 424 CURVE SMOOTH",
"595 515 OFFCURVE",
"530 575 OFFCURVE",
"396 575 CURVE SMOOTH",
"346 575 OFFCURVE",
"298 573 OFFCURVE",
"250 573 CURVE"
);
}
);
};
components = (
{
name = I;
}
);
layerId = UUID0;
paths = (
{
closed = 1;
nodes = (
"455 138 OFFCURVE",
"587 245 OFFCURVE",
"587 386 CURVE SMOOTH",
"587 502 OFFCURVE",
"496 571 OFFCURVE",
"344 571 CURVE SMOOTH",
"316 571 OFFCURVE",
"286 568 OFFCURVE",
"264 564 CURVE",
"269 544 LINE",
"283 547 OFFCURVE",
"304 549 OFFCURVE",
"325 549 CURVE SMOOTH",
"428 549 OFFCURVE",
"486 492 OFFCURVE",
"486 388 CURVE SMOOTH",
"486 254 OFFCURVE",
"396 160 OFFCURVE",
"266 160 CURVE SMOOTH",
"221 160 OFFCURVE",
"175 169 OFFCURVE",
"155 183 CURVE",
"150 163 LINE",
"184 147 OFFCURVE",
"231 138 OFFCURVE",
"281 138 CURVE SMOOTH"
);
}
);
width = 589;
},
{
background = {
components = (
{
name = I;
}
);
paths = (
{
closed = 1;
nodes = (
"298 530 LINE",
"335 533 OFFCURVE",
"345 536 OFFCURVE",
"394 536 CURVE SMOOTH",
"456 536 OFFCURVE",
"491 486 OFFCURVE",
"491 420 CURVE SMOOTH",
"491 288 OFFCURVE",
"420 152 OFFCURVE",
"275 152 CURVE SMOOTH",
"230 152 LINE",
"230 152 OFFCURVE",
"225 132 OFFCURVE",
"225 132 CURVE",
"265 132 LINE SMOOTH",
"525 132 OFFCURVE",
"702 247 OFFCURVE",
"702 404 CURVE SMOOTH",
"702 495 OFFCURVE",
"619 555 OFFCURVE",
"443 555 CURVE SMOOTH",
"393 555 OFFCURVE",
"345 553 OFFCURVE",
"297 553 CURVE"
);
}
);
};
components = (
{
name = I;
}
);
layerId = "DE547DD1-6B89-4C93-B672-7CF1D26AB89E";
paths = (
{
closed = 1;
nodes = (
"554 138 OFFCURVE",
"697 238 OFFCURVE",
"697 382 CURVE SMOOTH",
"697 506 OFFCURVE",
"593 574 OFFCURVE",
"403 574 CURVE SMOOTH",
"351 574 OFFCURVE",
"318 569 OFFCURVE",
"280 555 CURVE",
"285 540 LINE",
"307 548 OFFCURVE",
"335 552 OFFCURVE",
"360 552 CURVE SMOOTH",
"446 552 OFFCURVE",
"494 495 OFFCURVE",
"494 395 CURVE SMOOTH",
"494 266 OFFCURVE",
"410 165 OFFCURVE",
"302 165 CURVE SMOOTH",
"268 165 OFFCURVE",
"236 176 OFFCURVE",
"205 197 CURVE",
"200 177 LINE",
"244 148 OFFCURVE",
"282 138 OFFCURVE",
"347 138 CURVE SMOOTH"
);
}
);
width = 686;
}
);
leftKerningGroup = I;
leftMetricsKey = I;
rightMetricsKey = P;
unicode = 00DE;
},
{
glyphname = Q;
lastChange = "2019-04-09 17:04:52 +0000";
layers = (
{
anchors = (
{
name = top;
position = "{483, 708}";
}
);
background = {
anchors = (
{
name = top;
position = "{483, 708}";
}
);
paths = (
{
closed = 1;
nodes = (
"406 243 OFFCURVE",
"494 330 OFFCURVE",
"494 429 CURVE SMOOTH",
"494 488 OFFCURVE",
"463 527 OFFCURVE",
"415 527 CURVE SMOOTH",
"375 527 OFFCURVE",
"346 501 OFFCURVE",
"346 466 CURVE SMOOTH",
"346 439 OFFCURVE",
"363 419 OFFCURVE",
"393 419 CURVE SMOOTH",
"422 419 OFFCURVE",
"453 436 OFFCURVE",
"467 464 CURVE",
"472 455 OFFCURVE",
"474 437 OFFCURVE",
"474 424 CURVE SMOOTH",
"474 353 OFFCURVE",
"409 266 OFFCURVE",
"317 266 CURVE SMOOTH",
"252 266 OFFCURVE",
"203 309 OFFCURVE",
"203 409 CURVE SMOOTH",
"203 552 OFFCURVE",
"303 704 OFFCURVE",
"457 704 CURVE SMOOTH",
"568 704 OFFCURVE",
"628 625 OFFCURVE",
"628 509 CURVE SMOOTH",
"628 295 OFFCURVE",
"414 65 OFFCURVE",
"209 -24 CURVE SMOOTH",
"154 -48 OFFCURVE",
"97 -65 OFFCURVE",
"50 -65 CURVE SMOOTH",
"-9 -65 OFFCURVE",
"-46 -48 OFFCURVE",
"-46 -6 CURVE SMOOTH",
"-46 35 OFFCURVE",
"-9 59 OFFCURVE",
"27 59 CURVE SMOOTH",
"142 59 OFFCURVE",
"224 -188 OFFCURVE",
"421 -188 CURVE SMOOTH",
"540 -188 OFFCURVE",
"677 -98 OFFCURVE",
"677 -7 CURVE SMOOTH",
"677 29 OFFCURVE",
"656 50 OFFCURVE",
"627 50 CURVE SMOOTH",
"593 50 OFFCURVE",
"568 21 OFFCURVE",
"568 -10 CURVE SMOOTH",
"568 -37 OFFCURVE",
"586 -58 OFFCURVE",
"617 -58 CURVE SMOOTH",
"627 -58 OFFCURVE",
"638 -56 OFFCURVE",
"648 -52 CURVE",
"616 -105 OFFCURVE",
"565 -120 OFFCURVE",
"504 -120 CURVE SMOOTH",
"282 -120 OFFCURVE",
"221 81 OFFCURVE",
"57 81 CURVE SMOOTH",
"-13 81 OFFCURVE",
"-65 45 OFFCURVE",
"-65 -8 CURVE SMOOTH",
"-65 -54 OFFCURVE",
"-27 -82 OFFCURVE",
"39 -82 CURVE SMOOTH",
"250 -82 OFFCURVE",
"732 220 OFFCURVE",
"732 515 CURVE SMOOTH",
"732 644 OFFCURVE",
"634 722 OFFCURVE",
"474 722 CURVE SMOOTH",
"287 722 OFFCURVE",
"101 595 OFFCURVE",
"101 418 CURVE SMOOTH",
"101 315 OFFCURVE",
"164 243 OFFCURVE",
"279 243 CURVE SMOOTH"
);
}
);
};
hints = (
{
horizontal = 1;
origin = "{0, 65}";
target = down;
type = TopGhost;
},
{
horizontal = 1;
origin = "{0, 71}";
target = up;
type = BottomGhost;
},
{
horizontal = 1;
origin = "{0, 53}";
target = down;
type = TopGhost;
},
{
horizontal = 1;
origin = "{0, 59}";
target = up;
type = BottomGhost;
},
{
horizontal = 1;
origin = "{0, 41}";
target = down;
type = TopGhost;
},
{
horizontal = 1;
origin = "{0, 35}";
target = up;
type = BottomGhost;
},
{
horizontal = 1;
origin = "{0, 5}";
target = down;
type = TopGhost;
}
);
layerId = UUID0;
paths = (
{
closed = 1;
nodes = (
"391 193 OFFCURVE",
"494 270 OFFCURVE",
"494 354 CURVE SMOOTH",
"494 389 OFFCURVE",
"477 410 OFFCURVE",
"449 410 CURVE SMOOTH",
"421 410 OFFCURVE",
"401 388 OFFCURVE",
"401 358 CURVE SMOOTH",
"401 340 OFFCURVE",
"408 309 OFFCURVE",
"408 288 CURVE SMOOTH",
"408 243 OFFCURVE",
"376 216 OFFCURVE",
"324 216 CURVE SMOOTH",
"246 216 OFFCURVE",
"203 274 OFFCURVE",
"203 379 CURVE SMOOTH",
"203 553 OFFCURVE",
"322 704 OFFCURVE",
"459 704 CURVE SMOOTH",
"564 704 OFFCURVE",
"628 619 OFFCURVE",
"628 478 CURVE SMOOTH",
"628 192 OFFCURVE",
"366 -65 OFFCURVE",
"76 -65 CURVE SMOOTH",
"-4 -65 OFFCURVE",
"-44 -45 OFFCURVE",
"-44 -5 CURVE SMOOTH",
"-44 27 OFFCURVE",
"-19 49 OFFCURVE",
"19 49 CURVE SMOOTH",
"144 49 OFFCURVE",
"223 -188 OFFCURVE",
"421 -188 CURVE SMOOTH",
"545 -188 OFFCURVE",
"677 -95 OFFCURVE",
"677 -7 CURVE SMOOTH",
"677 30 OFFCURVE",
"655 55 OFFCURVE",
"624 55 CURVE SMOOTH",
"596 55 OFFCURVE",
"575 35 OFFCURVE",
"575 7 CURVE SMOOTH",
"575 -30 OFFCURVE",
"611 -58 OFFCURVE",
"611 -81 CURVE SMOOTH",
"611 -105 OFFCURVE",
"574 -120 OFFCURVE",
"513 -120 CURVE SMOOTH",
"275 -120 OFFCURVE",
"221 81 OFFCURVE",
"50 81 CURVE SMOOTH",
"-20 81 OFFCURVE",
"-65 47 OFFCURVE",
"-65 -5 CURVE SMOOTH",
"-65 -56 OFFCURVE",
"-20 -82 OFFCURVE",
"68 -82 CURVE SMOOTH",
"376 -82 OFFCURVE",
"732 225 OFFCURVE",
"732 490 CURVE SMOOTH",
"732 632 OFFCURVE",
"633 722 OFFCURVE",
"477 722 CURVE SMOOTH",
"274 722 OFFCURVE",
"101 566 OFFCURVE",
"101 384 CURVE SMOOTH",
"101 268 OFFCURVE",
"172 193 OFFCURVE",
"280 193 CURVE SMOOTH"
);
}
);
width = 751;
},
{
anchors = (
{
name = top;
position = "{525, 708}";
}
);
background = {
anchors = (
{
name = top;
position = "{525, 708}";
}
);
paths = (
{
closed = 1;
nodes = (
"454 243 OFFCURVE",
"565 325 OFFCURVE",
"565 452 CURVE SMOOTH",
"565 524 OFFCURVE",
"529 571 OFFCURVE",
"468 571 CURVE SMOOTH",
"407 571 OFFCURVE",
"356 523 OFFCURVE",
"356 458 CURVE SMOOTH",
"356 405 OFFCURVE",
"390 365 OFFCURVE",
"444 365 CURVE SMOOTH",
"479 365 OFFCURVE",
"527 382 OFFCURVE",
"542 435 CURVE",
"541 417 OFFCURVE",
"537 399 OFFCURVE",
"530 382 CURVE SMOOTH",
"505 321 OFFCURVE",
"442 276 OFFCURVE",
"364 276 CURVE SMOOTH",
"285 276 OFFCURVE",
"269 322 OFFCURVE",
"269 387 CURVE SMOOTH",
"269 536 OFFCURVE",
"353 704 OFFCURVE",
"487 704 CURVE SMOOTH",
"576 704 OFFCURVE",
"624 629 OFFCURVE",
"624 496 CURVE SMOOTH",
"624 278 OFFCURVE",
"504 115 OFFCURVE",
"327 25 CURVE SMOOTH",
"241 -19 OFFCURVE",
"123 -65 OFFCURVE",
"56 -65 CURVE SMOOTH",
"0 -65 OFFCURVE",
"-31 -42 OFFCURVE",
"-31 -9 CURVE SMOOTH",
"-31 15 OFFCURVE",
"-14 29 OFFCURVE",
"19 29 CURVE SMOOTH",
"150 29 OFFCURVE",
"225 -188 OFFCURVE",
"473 -188 CURVE SMOOTH",
"656 -188 OFFCURVE",
"767 -70 OFFCURVE",
"767 37 CURVE SMOOTH",
"767 105 OFFCURVE",
"722 138 OFFCURVE",
"663 138 CURVE SMOOTH",
"598 138 OFFCURVE",
"552 97 OFFCURVE",
"552 38 CURVE SMOOTH",
"552 -20 OFFCURVE",
"596 -51 OFFCURVE",
"649 -51 CURVE SMOOTH",
"680 -51 OFFCURVE",
"711 -40 OFFCURVE",
"734 -18 CURVE",
"722 -47 OFFCURVE",
"693 -91 OFFCURVE",
"616 -91 CURVE SMOOTH",
"442 -91 OFFCURVE",
"273 131 OFFCURVE",
"98 131 CURVE SMOOTH",
"11 131 OFFCURVE",
"-54 76 OFFCURVE",
"-54 3 CURVE SMOOTH",
"-54 -57 OFFCURVE",
"-11 -82 OFFCURVE",
"50 -82 CURVE SMOOTH",
"285 -82 OFFCURVE",
"838 283 OFFCURVE",
"838 522 CURVE SMOOTH",
"838 642 OFFCURVE",
"699 722 OFFCURVE",
"511 722 CURVE SMOOTH",
"273 722 OFFCURVE",
"57 593 OFFCURVE",
"57 423 CURVE SMOOTH",
"57 305 OFFCURVE",
"162 243 OFFCURVE",
"298 243 CURVE SMOOTH"
);
}
);
};
layerId = "DE547DD1-6B89-4C93-B672-7CF1D26AB89E";
paths = (
{
closed = 1;
nodes = (
"442 163 OFFCURVE",
"535 230 OFFCURVE",
"535 321 CURVE SMOOTH",
"535 374 OFFCURVE",
"504 409 OFFCURVE",
"459 409 CURVE SMOOTH",
"421 409 OFFCURVE",
"396 384 OFFCURVE",
"396 344 CURVE SMOOTH",
"396 297 OFFCURVE",
"430 266 OFFCURVE",
"430 232 CURVE SMOOTH",
"430 209 OFFCURVE",
"414 196 OFFCURVE",
"384 196 CURVE SMOOTH",
"320 196 OFFCURVE",
"289 253 OFFCURVE",
"289 369 CURVE SMOOTH",
"289 559 OFFCURVE",
"372 704 OFFCURVE",
"481 704 CURVE SMOOTH",
"574 704 OFFCURVE",
"628 598 OFFCURVE",
"621 430 CURVE SMOOTH",
"609 128 OFFCURVE",
"413 -65 OFFCURVE",
"117 -65 CURVE SMOOTH",
"21 -65 OFFCURVE",
"-27 -45 OFFCURVE",
"-27 -6 CURVE SMOOTH",
"-27 17 OFFCURVE",
"-11 29 OFFCURVE",
"19 29 CURVE SMOOTH",
"146 29 OFFCURVE",
"231 -188 OFFCURVE",
"470 -188 CURVE SMOOTH",
"626 -188 OFFCURVE",
"767 -96 OFFCURVE",
"767 7 CURVE SMOOTH",
"767 59 OFFCURVE",
"732 98 OFFCURVE",
"684 98 CURVE SMOOTH",
"647 98 OFFCURVE",
"620 74 OFFCURVE",
"620 42 CURVE SMOOTH",
"620 -15 OFFCURVE",
"704 -49 OFFCURVE",
"701 -70 CURVE SMOOTH",
"700 -82 OFFCURVE",
"669 -91 OFFCURVE",
"627 -91 CURVE SMOOTH",
"416 -91 OFFCURVE",
"287 131 OFFCURVE",
"104 131 CURVE SMOOTH",
"15 131 OFFCURVE",
"-54 78 OFFCURVE",
"-54 10 CURVE SMOOTH",
"-54 -51 OFFCURVE",
"1 -82 OFFCURVE",
"109 -82 CURVE SMOOTH",
"444 -82 OFFCURVE",
"828 210 OFFCURVE",
"828 466 CURVE SMOOTH",
"828 618 OFFCURVE",
"695 722 OFFCURVE",
"500 722 CURVE SMOOTH",
"267 722 OFFCURVE",
"87 573 OFFCURVE",
"87 381 CURVE SMOOTH",
"87 246 OFFCURVE",
"174 163 OFFCURVE",
"314 163 CURVE SMOOTH"
);
}
);
width = 840;
}
);
leftKerningGroup = Q;
rightKerningGroup = Q;
unicode = 0051;
},
{
glyphname = R;
lastChange = "2019-04-16 15:13:40 +0000";
layers = (
{
anchors = (
{
name = bottom;
position = "{299, 0}";
},
{
name = top;
position = "{410, 708}";
}
);
background = {
anchors = (
{
name = bottom;
position = "{299, 0}";
},
{
name = top;
position = "{410, 708}";
}
);
paths = (
{
closed = 1;
nodes = (
"-6 2 OFFCURVE",
"37 3 OFFCURVE",
"97 3 CURVE SMOOTH",
"157 3 OFFCURVE",
"199 2 OFFCURVE",
"223 0 CURVE",
"229 20 LINE",
"145 23 OFFCURVE",
"157 51 OFFCURVE",
"172 106 CURVE SMOOTH",
"312 611 LINE SMOOTH",
"328 669 OFFCURVE",
"352 688 OFFCURVE",
"412 688 CURVE SMOOTH",
"497 688 OFFCURVE",
"538 644 OFFCURVE",
"538 554 CURVE SMOOTH",
"538 430 OFFCURVE",
"460 356 OFFCURVE",
"329 356 CURVE SMOOTH",
"193 356 LINE",
"189 342 LINE",
"335 342 LINE SMOOTH",
"512 342 OFFCURVE",
"638 429 OFFCURVE",
"638 552 CURVE SMOOTH",
"638 647 OFFCURVE",
"560 707 OFFCURVE",
"437 707 CURVE SMOOTH",
"414 707 OFFCURVE",
"357 705 OFFCURVE",
"280 705 CURVE SMOOTH",
"224 705 OFFCURVE",
"185 706 OFFCURVE",
"166 708 CURVE",
"160 688 LINE",
"227 685 OFFCURVE",
"236 671 OFFCURVE",
"217 602 CURVE SMOOTH",
"79 106 LINE SMOOTH",
"59 37 OFFCURVE",
"46 26 OFFCURVE",
"-26 20 CURVE",
"-32 0 LINE"
);
},
{
closed = 1;
nodes = (
"581 -14 OFFCURVE",
"596 39 OFFCURVE",
"603 63 CURVE SMOOTH",
"631 162 LINE",
"608 162 LINE",
"584 78 LINE SMOOTH",
"574 43 OFFCURVE",
"556 23 OFFCURVE",
"533 23 CURVE SMOOTH",
"512 23 OFFCURVE",
"503 41 OFFCURVE",
"504 77 CURVE SMOOTH",
"508 207 LINE SMOOTH",
"512 349 OFFCURVE",
"435 349 OFFCURVE",
"316 349 CURVE SMOOTH",
"207 349 LINE",
"203 336 LINE",
"341 336 LINE SMOOTH",
"404 336 OFFCURVE",
"422 309 OFFCURVE",
"416 221 CURVE SMOOTH",
"408 94 LINE SMOOTH",
"404 24 OFFCURVE",
"435 -14 OFFCURVE",
"500 -14 CURVE SMOOTH"
);
}
);
};
guideLines = (
{
angle = 74.4;
position = "{79, 106}";
},
{
position = "{-53, 162}";
},
{
angle = 74.4;
position = "{617, 108}";
}
);
layerId = UUID0;
paths = (
{
closed = 1;
nodes = (
"-6 2 OFFCURVE",
"37 3 OFFCURVE",
"97 3 CURVE SMOOTH",
"157 3 OFFCURVE",
"199 2 OFFCURVE",
"223 0 CURVE",
"229 20 LINE",
"145 23 OFFCURVE",
"157 51 OFFCURVE",
"172 106 CURVE SMOOTH",
"312 611 LINE SMOOTH",
"328 669 OFFCURVE",
"352 688 OFFCURVE",
"412 688 CURVE SMOOTH",
"497 688 OFFCURVE",
"538 644 OFFCURVE",
"538 554 CURVE SMOOTH",
"538 430 OFFCURVE",
"460 356 OFFCURVE",
"329 356 CURVE SMOOTH",
"193 356 LINE",
"189 342 LINE",
"335 342 LINE SMOOTH",
"512 342 OFFCURVE",
"638 429 OFFCURVE",
"638 552 CURVE SMOOTH",
"638 647 OFFCURVE",
"560 707 OFFCURVE",
"437 707 CURVE SMOOTH",
"414 707 OFFCURVE",
"357 705 OFFCURVE",
"280 705 CURVE SMOOTH",
"224 705 OFFCURVE",
"185 706 OFFCURVE",
"166 708 CURVE",
"160 688 LINE",
"227 685 OFFCURVE",
"236 671 OFFCURVE",
"217 602 CURVE SMOOTH",
"79 106 LINE SMOOTH",
"59 37 OFFCURVE",
"46 26 OFFCURVE",
"-26 20 CURVE",
"-32 0 LINE"
);
},
{
closed = 1;
nodes = (
"581 -14 OFFCURVE",
"596 39 OFFCURVE",
"603 63 CURVE SMOOTH",
"631 162 LINE",
"608 162 LINE",
"584 78 LINE SMOOTH",
"574 43 OFFCURVE",
"556 23 OFFCURVE",
"533 23 CURVE SMOOTH",
"512 23 OFFCURVE",
"498 41 OFFCURVE",
"500 77 CURVE SMOOTH",
"508 207 LINE SMOOTH",
"517 349 OFFCURVE",
"435 349 OFFCURVE",
"316 349 CURVE SMOOTH",
"207 349 LINE",
"203 336 LINE",
"341 336 LINE SMOOTH",
"404 336 OFFCURVE",
"422 309 OFFCURVE",
"416 221 CURVE SMOOTH",
"408 94 LINE SMOOTH",
"404 24 OFFCURVE",
"435 -14 OFFCURVE",
"500 -14 CURVE SMOOTH"
);
}
);
width = 670;
},
{
anchors = (
{
name = bottom;
position = "{333, 0}";
},
{
name = top;
position = "{424, 708}";
}
);
background = {
anchors = (
{
name = bottom;
position = "{333, 0}";
},
{
name = top;
position = "{424, 708}";
}
);
paths = (
{
closed = 1;
nodes = (
"-15 2 OFFCURVE",
"44 3 OFFCURVE",
"130 3 CURVE SMOOTH",
"211 3 OFFCURVE",
"267 2 OFFCURVE",
"298 0 CURVE",
"304 20 LINE",
"234 23 OFFCURVE",
"241 47 OFFCURVE",
"257 106 CURVE SMOOTH",
"395 602 LINE SMOOTH",
"405 637 OFFCURVE",
"419 688 OFFCURVE",
"480 688 CURVE SMOOTH",
"527 688 OFFCURVE",
"549 657 OFFCURVE",
"549 588 CURVE SMOOTH",
"549 454 OFFCURVE",
"471 356 OFFCURVE",
"364 356 CURVE SMOOTH",
"238 356 LINE",
"234 342 LINE",
"370 342 LINE SMOOTH",
"604 342 OFFCURVE",
"734 416 OFFCURVE",
"734 548 CURVE SMOOTH",
"734 654 OFFCURVE",
"651 707 OFFCURVE",
"484 707 CURVE SMOOTH",
"451 707 OFFCURVE",
"409 705 OFFCURVE",
"302 705 CURVE SMOOTH",
"223 705 OFFCURVE",
"171 706 OFFCURVE",
"151 708 CURVE",
"145 688 LINE",
"205 685 OFFCURVE",
"212 673 OFFCURVE",
"192 602 CURVE SMOOTH",
"54 106 LINE SMOOTH",
"36 42 OFFCURVE",
"32 25 OFFCURVE",
"-41 20 CURVE",
"-47 0 LINE"
);
},
{
closed = 1;
nodes = (
"620 -14 OFFCURVE",
"675 15 OFFCURVE",
"693 80 CURVE SMOOTH",
"716 162 LINE",
"693 162 LINE",
"669 79 LINE SMOOTH",
"661 51 OFFCURVE",
"649 43 OFFCURVE",
"635 43 CURVE SMOOTH",
"617 43 OFFCURVE",
"610 63 OFFCURVE",
"613 105 CURVE SMOOTH",
"621 209 LINE SMOOTH",
"630 323 OFFCURVE",
"530 349 OFFCURVE",
"353 349 CURVE SMOOTH",
"242 349 LINE",
"238 336 LINE",
"366 336 LINE SMOOTH",
"418 336 OFFCURVE",
"431 312 OFFCURVE",
"421 234 CURVE SMOOTH",
"407 124 LINE SMOOTH",
"395 30 OFFCURVE",
"437 -14 OFFCURVE",
"540 -14 CURVE SMOOTH"
);
}
);
};
guideLines = (
{
angle = 74.4;
position = "{54, 106}";
},
{
position = "{-63, 162}";
},
{
angle = 74.4;
position = "{691, 108}";
}
);
layerId = "DE547DD1-6B89-4C93-B672-7CF1D26AB89E";
paths = (
{
closed = 1;
nodes = (
"-15 2 OFFCURVE",
"44 3 OFFCURVE",
"130 3 CURVE SMOOTH",
"211 3 OFFCURVE",
"267 2 OFFCURVE",
"298 0 CURVE",
"304 20 LINE",
"234 23 OFFCURVE",
"241 47 OFFCURVE",
"257 106 CURVE SMOOTH",
"403 631 LINE SMOOTH",
"413 667 OFFCURVE",
"436 688 OFFCURVE",
"466 688 CURVE SMOOTH",
"508 688 OFFCURVE",
"533 645 OFFCURVE",
"533 574 CURVE SMOOTH",
"533 452 OFFCURVE",
"459 356 OFFCURVE",
"364 356 CURVE SMOOTH",
"238 356 LINE",
"234 342 LINE",
"370 342 LINE SMOOTH",
"592 342 OFFCURVE",
"724 419 OFFCURVE",
"724 549 CURVE SMOOTH",
"724 653 OFFCURVE",
"641 707 OFFCURVE",
"483 707 CURVE SMOOTH",
"452 707 OFFCURVE",
"410 705 OFFCURVE",
"300 705 CURVE SMOOTH",
"221 705 OFFCURVE",
"171 706 OFFCURVE",
"151 708 CURVE",
"145 688 LINE",
"203 685 OFFCURVE",
"211 671 OFFCURVE",
"192 602 CURVE SMOOTH",
"54 106 LINE SMOOTH",
"36 42 OFFCURVE",
"32 25 OFFCURVE",
"-41 20 CURVE",
"-47 0 LINE"
);
},
{
closed = 1;
nodes = (
"624 -14 OFFCURVE",
"676 18 OFFCURVE",
"693 80 CURVE SMOOTH",
"716 162 LINE",
"693 162 LINE",
"669 79 LINE SMOOTH",
"662 56 OFFCURVE",
"650 43 OFFCURVE",
"633 43 CURVE SMOOTH",
"611 43 OFFCURVE",
"603 63 OFFCURVE",
"608 105 CURVE SMOOTH",
"621 209 LINE SMOOTH",
"633 307 OFFCURVE",
"553 349 OFFCURVE",
"353 349 CURVE SMOOTH",
"242 349 LINE",
"238 336 LINE",
"366 336 LINE SMOOTH",
"418 336 OFFCURVE",
"431 312 OFFCURVE",
"421 234 CURVE SMOOTH",
"407 124 LINE SMOOTH",
"403 91 OFFCURVE",
"387 -14 OFFCURVE",
"540 -14 CURVE SMOOTH"
);
}
);
width = 737;
}
);
leftKerningGroup = I;
leftMetricsKey = I;
rightKerningGroup = R;
unicode = 0052;
},
{
glyphname = S;
lastChange = "2019-04-12 13:52:39 +0000";
layers = (
{
anchors = (
{
name = bottom;
position = "{215, 0}";
},
{
name = top;
position = "{384, 708}";
}
);
background = {
anchors = (
{
name = bottom;
position = "{215, 0}";
},
{
name = top;
position = "{384, 708}";
}
);
paths = (
{
closed = 1;
nodes = (
"553 715 LINE",
"538 678 OFFCURVE",
"526 662 OFFCURVE",
"514 662 CURVE SMOOTH",
"491 662 OFFCURVE",
"460 722 OFFCURVE",
"356 722 CURVE SMOOTH",
"232 722 OFFCURVE",
"140 638 OFFCURVE",
"140 525 CURVE SMOOTH",
"140 345 OFFCURVE",
"371 297 OFFCURVE",
"371 130 CURVE SMOOTH",
"371 52 OFFCURVE",
"320 6 OFFCURVE",
"236 6 CURVE SMOOTH",
"120 6 OFFCURVE",
"58 93 OFFCURVE",
"73 233 CURVE",
"50 233 LINE",
"26 125 OFFCURVE",
"6 55 OFFCURVE",
"-18 -7 CURVE",
"5 -7 LINE",
"22 32 OFFCURVE",
"35 47 OFFCURVE",
"52 47 CURVE SMOOTH",
"77 47 OFFCURVE",
"135 -14 OFFCURVE",
"238 -14 CURVE SMOOTH",
"371 -14 OFFCURVE",
"474 71 OFFCURVE",
"474 180 CURVE SMOOTH",
"474 352 OFFCURVE",
"221 420 OFFCURVE",
"221 580 CURVE SMOOTH",
"221 654 OFFCURVE",
"275 703 OFFCURVE",
"355 703 CURVE SMOOTH",
"455 703 OFFCURVE",
"508 629 OFFCURVE",
"494 511 CURVE",
"517 511 LINE",
"532 592 OFFCURVE",
"552 662 OFFCURVE",
"576 715 CURVE"
);
}
);
};
hints = (
{
horizontal = 1;
origin = "{0, 6}";
target = down;
type = TopGhost;
},
{
horizontal = 1;
origin = "{0, 29}";
target = up;
type = BottomGhost;
}
);
layerId = UUID0;
paths = (
{
closed = 1;
nodes = (
"550 708 LINE",
"536 676 OFFCURVE",
"525 662 OFFCURVE",
"514 662 CURVE SMOOTH",
"491 662 OFFCURVE",
"460 722 OFFCURVE",
"356 722 CURVE SMOOTH",
"232 722 OFFCURVE",
"140 638 OFFCURVE",
"140 526 CURVE SMOOTH",
"140 355 OFFCURVE",
"386 296 OFFCURVE",
"386 131 CURVE SMOOTH",
"386 53 OFFCURVE",
"330 6 OFFCURVE",
"239 6 CURVE SMOOTH",
"120 6 OFFCURVE",
"58 91 OFFCURVE",
"73 233 CURVE",
"50 233 LINE",
"27 130 OFFCURVE",
"8 62 OFFCURVE",
"-15 0 CURVE",
"8 0 LINE",
"24 33 OFFCURVE",
"36 47 OFFCURVE",
"50 47 CURVE SMOOTH",
"80 47 OFFCURVE",
"131 -14 OFFCURVE",
"241 -14 CURVE SMOOTH",
"371 -14 OFFCURVE",
"474 72 OFFCURVE",
"474 180 CURVE SMOOTH",
"474 352 OFFCURVE",
"221 421 OFFCURVE",
"221 580 CURVE SMOOTH",
"221 654 OFFCURVE",
"275 703 OFFCURVE",
"355 703 CURVE SMOOTH",
"455 703 OFFCURVE",
"508 629 OFFCURVE",
"494 511 CURVE",
"517 511 LINE",
"532 591 OFFCURVE",
"551 659 OFFCURVE",
"573 708 CURVE"
);
}
);
width = 534;
},
{
anchors = (
{
name = bottom;
position = "{238, 0}";
},
{
name = top;
position = "{407, 708}";
}
);
background = {
anchors = (
{
name = bottom;
position = "{238, 0}";
},
{
name = top;
position = "{407, 708}";
}
);
paths = (
{
closed = 1;
nodes = (
"626 715 LINE",
"611 681 OFFCURVE",
"595 662 OFFCURVE",
"582 662 CURVE SMOOTH",
"557 662 OFFCURVE",
"511 722 OFFCURVE",
"393 722 CURVE SMOOTH",
"238 722 OFFCURVE",
"123 634 OFFCURVE",
"123 516 CURVE SMOOTH",
"123 360 OFFCURVE",
"324 263 OFFCURVE",
"324 106 CURVE SMOOTH",
"324 41 OFFCURVE",
"289 9 OFFCURVE",
"218 9 CURVE SMOOTH",
"106 9 OFFCURVE",
"47 90 OFFCURVE",
"56 233 CURVE",
"33 233 LINE",
"9 127 OFFCURVE",
"-11 57 OFFCURVE",
"-35 -7 CURVE",
"-12 -7 LINE",
"11 36 OFFCURVE",
"22 47 OFFCURVE",
"40 47 CURVE SMOOTH",
"63 47 OFFCURVE",
"117 -14 OFFCURVE",
"246 -14 CURVE SMOOTH",
"422 -14 OFFCURVE",
"547 71 OFFCURVE",
"547 190 CURVE SMOOTH",
"547 350 OFFCURVE",
"324 459 OFFCURVE",
"324 600 CURVE SMOOTH",
"324 659 OFFCURVE",
"363 695 OFFCURVE",
"428 695 CURVE SMOOTH",
"519 695 OFFCURVE",
"572 625 OFFCURVE",
"567 511 CURVE",
"590 511 LINE",
"602 578 OFFCURVE",
"622 645 OFFCURVE",
"649 715 CURVE"
);
}
);
};
layerId = "DE547DD1-6B89-4C93-B672-7CF1D26AB89E";
paths = (
{
closed = 1;
nodes = (
"623 708 LINE",
"609 678 OFFCURVE",
"594 662 OFFCURVE",
"581 662 CURVE SMOOTH",
"556 662 OFFCURVE",
"514 722 OFFCURVE",
"390 722 CURVE SMOOTH",
"240 722 OFFCURVE",
"123 633 OFFCURVE",
"123 519 CURVE SMOOTH",
"123 361 OFFCURVE",
"354 271 OFFCURVE",
"354 114 CURVE SMOOTH",
"354 45 OFFCURVE",
"310 9 OFFCURVE",
"226 9 CURVE SMOOTH",
"105 9 OFFCURVE",
"48 85 OFFCURVE",
"56 233 CURVE",
"33 233 LINE",
"10 131 OFFCURVE",
"-9 62 OFFCURVE",
"-32 0 CURVE",
"-9 0 LINE",
"14 37 OFFCURVE",
"23 47 OFFCURVE",
"37 47 CURVE SMOOTH",
"69 47 OFFCURVE",
"110 -14 OFFCURVE",
"251 -14 CURVE SMOOTH",
"420 -14 OFFCURVE",
"547 73 OFFCURVE",
"547 190 CURVE SMOOTH",
"547 348 OFFCURVE",
"314 449 OFFCURVE",
"314 592 CURVE SMOOTH",
"314 655 OFFCURVE",
"359 695 OFFCURVE",
"428 695 CURVE SMOOTH",
"519 695 OFFCURVE",
"572 625 OFFCURVE",
"567 511 CURVE",
"590 511 LINE",
"600 569 OFFCURVE",
"618 634 OFFCURVE",
"646 708 CURVE"
);
}
);
width = 589;
}
);
leftKerningGroup = S;
rightKerningGroup = S;
unicode = 0053;
},
{
color = 0;
glyphname = Germandbls;
lastChange = "2019-04-09 21:15:38 +0000";
layers = (
{
background = {
paths = (
{
closed = 1;
nodes = (
"-16 2 OFFCURVE",
"28 3 OFFCURVE",
"77 3 CURVE SMOOTH",
"136 3 OFFCURVE",
"200 0 OFFCURVE",
"239 0 CURVE SMOOTH",
"423 0 OFFCURVE",
"540 68 OFFCURVE",
"576 196 CURVE SMOOTH",
"604 296 OFFCURVE",
"558 354 OFFCURVE",
"423 387 CURVE",
"423 375 LINE",
"678 688 LINE",
"684 708 LINE",
"615 706 OFFCURVE",
"551 705 OFFCURVE",
"456 705 CURVE SMOOTH",
"330 705 OFFCURVE",
"224 706 OFFCURVE",
"166 708 CURVE",
"160 688 LINE",
"229 685 OFFCURVE",
"237 673 OFFCURVE",
"217 602 CURVE SMOOTH",
"79 106 LINE SMOOTH",
"59 35 OFFCURVE",
"45 23 OFFCURVE",
"-26 20 CURVE",
"-32 0 LINE"
);
},
{
closed = 1;
nodes = (
"177 20 OFFCURVE",
"154 44 OFFCURVE",
"172 106 CURVE SMOOTH",
"310 602 LINE SMOOTH",
"330 673 OFFCURVE",
"344 685 OFFCURVE",
"414 685 CURVE SMOOTH",
"581 685 LINE",
"357 410 LINE",
"351 390 LINE",
"469 371 OFFCURVE",
"508 311 OFFCURVE",
"476 196 CURVE SMOOTH",
"443 78 OFFCURVE",
"369 20 OFFCURVE",
"253 20 CURVE SMOOTH"
);
}
);
};
layerId = UUID0;
paths = (
{
closed = 1;
nodes = (
"-21 2 OFFCURVE",
"12 3 OFFCURVE",
"65 3 CURVE SMOOTH",
"147 3 OFFCURVE",
"197 0 OFFCURVE",
"236 0 CURVE SMOOTH",
"446 0 OFFCURVE",
"584 86 OFFCURVE",
"584 216 CURVE SMOOTH",
"584 297 OFFCURVE",
"532 352 OFFCURVE",
"423 387 CURVE",
"423 375 LINE",
"678 688 LINE",
"684 708 LINE",
"555 706 OFFCURVE",
"510 705 OFFCURVE",
"434 705 CURVE SMOOTH",
"300 705 OFFCURVE",
"207 706 OFFCURVE",
"166 708 CURVE",
"160 688 LINE",
"228 686 OFFCURVE",
"237 673 OFFCURVE",
"217 602 CURVE SMOOTH",
"79 106 LINE SMOOTH",
"59 36 OFFCURVE",
"46 25 OFFCURVE",
"-26 20 CURVE",
"-32 0 LINE"
);
},
{
closed = 1;
nodes = (
"165 20 OFFCURVE",
"154 40 OFFCURVE",
"172 106 CURVE SMOOTH",
"310 602 LINE SMOOTH",
"328 668 OFFCURVE",
"341 685 OFFCURVE",
"414 685 CURVE SMOOTH",
"581 685 LINE",
"357 410 LINE",
"351 390 LINE",
"444 359 OFFCURVE",
"487 304 OFFCURVE",
"487 218 CURVE SMOOTH",
"487 97 OFFCURVE",
"400 20 OFFCURVE",
"263 20 CURVE SMOOTH"
);
}
);
width = 655;
},
{
background = {
paths = (
{
closed = 1;
nodes = (
"-19 2 OFFCURVE",
"39 3 OFFCURVE",
"101 3 CURVE SMOOTH",
"183 3 OFFCURVE",
"189 0 OFFCURVE",
"360 0 CURVE SMOOTH",
"546 0 OFFCURVE",
"671 71 OFFCURVE",
"706 195 CURVE SMOOTH",
"734 296 OFFCURVE",
"682 351 OFFCURVE",
"534 378 CURVE",
"534 341 LINE",
"808 688 LINE",
"814 708 LINE",
"756 706 OFFCURVE",
"670 705 OFFCURVE",
"554 705 CURVE SMOOTH",
"345 705 OFFCURVE",
"204 706 OFFCURVE",
"151 708 CURVE",
"145 688 LINE",
"206 685 OFFCURVE",
"212 674 OFFCURVE",
"192 602 CURVE SMOOTH",
"54 106 LINE SMOOTH",
"34 35 OFFCURVE",
"21 23 OFFCURVE",
"-41 20 CURVE",
"-47 0 LINE"
);
},
{
closed = 1;
nodes = (
"248 20 OFFCURVE",
"238 39 OFFCURVE",
"257 106 CURVE SMOOTH",
"401 622 LINE SMOOTH",
"416 676 OFFCURVE",
"426 685 OFFCURVE",
"479 685 CURVE SMOOTH",
"601 685 LINE",
"377 400 LINE",
"371 380 LINE",
"484 361 OFFCURVE",
"525 300 OFFCURVE",
"495 192 CURVE SMOOTH",
"465 85 OFFCURVE",
"392 20 OFFCURVE",
"302 20 CURVE SMOOTH"
);
}
);
};
layerId = "DE547DD1-6B89-4C93-B672-7CF1D26AB89E";
paths = (
{
closed = 1;
nodes = (
"-24 2 OFFCURVE",
"30 3 OFFCURVE",
"95 3 CURVE SMOOTH",
"189 3 OFFCURVE",
"186 0 OFFCURVE",
"360 0 CURVE SMOOTH",
"572 0 OFFCURVE",
"713 84 OFFCURVE",
"713 209 CURVE SMOOTH",
"713 293 OFFCURVE",
"654 349 OFFCURVE",
"534 378 CURVE",
"539 341 LINE",
"808 688 LINE",
"814 708 LINE",
"747 706 OFFCURVE",
"663 705 OFFCURVE",
"527 705 CURVE SMOOTH",
"334 705 OFFCURVE",
"198 706 OFFCURVE",
"151 708 CURVE",
"145 688 LINE",
"201 685 OFFCURVE",
"213 673 OFFCURVE",
"193 602 CURVE SMOOTH",
"54 106 LINE SMOOTH",
"36 40 OFFCURVE",
"26 25 OFFCURVE",
"-41 20 CURVE",
"-47 0 LINE"
);
},
{
closed = 1;
nodes = (
"251 20 OFFCURVE",
"238 40 OFFCURVE",
"257 106 CURVE SMOOTH",
"401 622 LINE SMOOTH",
"416 676 OFFCURVE",
"428 685 OFFCURVE",
"479 685 CURVE SMOOTH",
"597 685 LINE",
"377 400 LINE",
"371 380 LINE",
"472 333 OFFCURVE",
"504 293 OFFCURVE",
"504 215 CURVE SMOOTH",
"504 101 OFFCURVE",
"425 20 OFFCURVE",
"312 20 CURVE SMOOTH"
);
}
);
width = 765;
}
);
leftKerningGroup = germandbls.cap;
leftMetricsKey = I;
rightKerningGroup = germandbls.cap;
rightMetricsKey = B;
unicode = 1E9E;
},
{
color = 6;
glyphname = Schwa;
lastChange = "2019-04-16 18:45:36 +0000";
layers = (
{
anchors = (
{
name = bottom;
position = "{305, 0}";
},
{
name = top;
position = "{471, 708}";
}
);
background = {
anchors = (
{
name = bottom;
position = "{305, 0}";
},
{
name = top;
position = "{471, 708}";
}
);
paths = (
{
closed = 1;
nodes = (
"551 -14 OFFCURVE",
"708 274 OFFCURVE",
"708 481 CURVE SMOOTH",
"708 632 OFFCURVE",
"625 722 OFFCURVE",
"463 722 CURVE SMOOTH",
"379 722 OFFCURVE",
"331 698 OFFCURVE",
"255 657 CURVE SMOOTH",
"246 652 OFFCURVE",
"237 649 OFFCURVE",
"232 649 CURVE SMOOTH",
"223 649 OFFCURVE",
"219 657 OFFCURVE",
"219 674 CURVE SMOOTH",
"219 683 OFFCURVE",
"220 696 OFFCURVE",
"222 708 CURVE",
"199 708 LINE",
"185 624 OFFCURVE",
"172 564 OFFCURVE",
"144 468 CURVE",
"167 468 LINE",
"198 549 OFFCURVE",
"220 593 OFFCURVE",
"256 626 CURVE SMOOTH",
"304 670 OFFCURVE",
"374 696 OFFCURVE",
"435 696 CURVE SMOOTH",
"537 696 OFFCURVE",
"602 622 OFFCURVE",
"602 481 CURVE SMOOTH",
"602 268 OFFCURVE",
"454 4 OFFCURVE",
"300 4 CURVE SMOOTH",
"216 4 OFFCURVE",
"161 82 OFFCURVE",
"161 220 CURVE SMOOTH",
"161 262 OFFCURVE",
"166 305 OFFCURVE",
"175 347 CURVE",
"611 347 LINE",
"615 366 LINE",
"75 366 LINE",
"63 321 OFFCURVE",
"55 276 OFFCURVE",
"55 229 CURVE SMOOTH",
"55 71 OFFCURVE",
"144 -14 OFFCURVE",
"287 -14 CURVE SMOOTH"
);
}
);
};
guideLines = (
{
position = "{29, 366}";
}
);
hints = (
{
horizontal = 1;
place = "{704, 18}";
type = Stem;
},
{
horizontal = 1;
place = "{-14, 18}";
type = Stem;
},
{
horizontal = 1;
origin = "{1, 0}";
target = "{0, 34}";
type = Stem;
}
);
layerId = UUID0;
paths = (
{
closed = 1;
nodes = (
"529 -14 OFFCURVE",
"703 191 OFFCURVE",
"703 439 CURVE SMOOTH",
"703 617 OFFCURVE",
"613 722 OFFCURVE",
"459 722 CURVE SMOOTH",
"331 722 OFFCURVE",
"259 649 OFFCURVE",
"233 649 CURVE SMOOTH",
"220 649 OFFCURVE",
"216 669 OFFCURVE",
"222 708 CURVE",
"199 708 LINE",
"184 620 OFFCURVE",
"171 560 OFFCURVE",
"144 468 CURVE",
"167 468 LINE",
"209 610 OFFCURVE",
"309 696 OFFCURVE",
"431 696 CURVE SMOOTH",
"546 696 OFFCURVE",
"603 620 OFFCURVE",
"603 465 CURVE SMOOTH",
"603 223 OFFCURVE",
"467 4 OFFCURVE",
"317 4 CURVE SMOOTH",
"226 4 OFFCURVE",
"176 85 OFFCURVE",
"176 234 CURVE SMOOTH",
"176 274 OFFCURVE",
"179 313 OFFCURVE",
"185 347 CURVE",
"611 347 LINE",
"615 366 LINE",
"85 366 LINE",
"79 335 OFFCURVE",
"76 303 OFFCURVE",
"76 270 CURVE SMOOTH",
"76 92 OFFCURVE",
"166 -14 OFFCURVE",
"318 -14 CURVE SMOOTH"
);
}
);
width = 727;
},
{
anchors = (
{
name = bottom;
position = "{323, 0}";
},
{
name = top;
position = "{491, 708}";
}
);
background = {
anchors = (
{
name = bottom;
position = "{323, 0}";
},
{
name = top;
position = "{491, 708}";
}
);
paths = (
{
closed = 1;
nodes = (
"581 -14 OFFCURVE",
"778 257 OFFCURVE",
"778 472 CURVE SMOOTH",
"778 628 OFFCURVE",
"674 723 OFFCURVE",
"480 723 CURVE SMOOTH",
"338 723 OFFCURVE",
"263 673 OFFCURVE",
"231 657 CURVE SMOOTH",
"219 651 OFFCURVE",
"213 649 OFFCURVE",
"208 649 CURVE SMOOTH",
"200 649 OFFCURVE",
"196 657 OFFCURVE",
"196 673 CURVE SMOOTH",
"196 681 OFFCURVE",
"197 690 OFFCURVE",
"199 708 CURVE",
"176 708 LINE",
"166 637 OFFCURVE",
"147 556 OFFCURVE",
"120 468 CURVE",
"143 468 LINE",
"177 566 OFFCURVE",
"217 629 OFFCURVE",
"283 662 CURVE SMOOTH",
"317 679 OFFCURVE",
"357 687 OFFCURVE",
"397 687 CURVE SMOOTH",
"514 687 OFFCURVE",
"559 617 OFFCURVE",
"559 481 CURVE SMOOTH",
"559 248 OFFCURVE",
"426 4 OFFCURVE",
"316 4 CURVE SMOOTH",
"263 4 OFFCURVE",
"235 87 OFFCURVE",
"235 208 CURVE SMOOTH",
"235 255 OFFCURVE",
"241 301 OFFCURVE",
"252 347 CURVE",
"604 347 LINE",
"606 366 LINE",
"48 366 LINE",
"33 319 OFFCURVE",
"25 266 OFFCURVE",
"25 226 CURVE SMOOTH",
"25 77 OFFCURVE",
"129 -14 OFFCURVE",
"287 -14 CURVE SMOOTH"
);
}
);
};
guideLines = (
{
position = "{12, 366}";
}
);
layerId = "DE547DD1-6B89-4C93-B672-7CF1D26AB89E";
paths = (
{
closed = 1;
nodes = (
"600 -14 OFFCURVE",
"784 174 OFFCURVE",
"784 416 CURVE SMOOTH",
"784 610 OFFCURVE",
"667 722 OFFCURVE",
"466 722 CURVE SMOOTH",
"303 722 OFFCURVE",
"230 649 OFFCURVE",
"207 649 CURVE SMOOTH",
"192 649 OFFCURVE",
"196 679 OFFCURVE",
"199 708 CURVE",
"176 708 LINE",
"166 641 OFFCURVE",
"147 560 OFFCURVE",
"120 468 CURVE",
"143 468 LINE",
"193 618 OFFCURVE",
"271 687 OFFCURVE",
"393 687 CURVE SMOOTH",
"521 687 OFFCURVE",
"587 602 OFFCURVE",
"587 436 CURVE SMOOTH",
"587 220 OFFCURVE",
"473 5 OFFCURVE",
"358 5 CURVE SMOOTH",
"298 5 OFFCURVE",
"267 67 OFFCURVE",
"267 188 CURVE SMOOTH",
"267 236 OFFCURVE",
"272 289 OFFCURVE",
"282 347 CURVE",
"604 347 LINE",
"606 366 LINE",
"77 366 LINE",
"73 341 OFFCURVE",
"71 316 OFFCURVE",
"71 290 CURVE SMOOTH",
"71 100 OFFCURVE",
"181 -14 OFFCURVE",
"365 -14 CURVE SMOOTH"
);
}
);
width = 805;
}
);
leftKerningGroup = Schwa;
leftMetricsKey = O;
rightKerningGroup = O;
rightMetricsKey = O;
unicode = 018F;
},
{
glyphname = T;
lastChange = "2019-04-10 21:06:22 +0000";
layers = (
{
anchors = (
{
name = bottom;
position = "{270, 0}";
},
{
name = center;
position = "{358, 354}";
},
{
name = top;
position = "{462, 708}";
}
);
background = {
anchors = (
{
name = bottom;
position = "{272, 0}";
},
{
name = center;
position = "{360, 354}";
},
{
name = top;
position = "{464, 708}";
}
);
paths = (
{
closed = 1;
nodes = (
"149 2 OFFCURVE",
"210 3 OFFCURVE",
"271 3 CURVE SMOOTH",
"324 3 OFFCURVE",
"377 2 OFFCURVE",
"410 0 CURVE",
"414 20 LINE",
"324 22 OFFCURVE",
"319 45 OFFCURVE",
"339 116 CURVE SMOOTH",
"491 660 LINE",
"454 669 LINE",
"406 690 LINE",
"246 116 LINE SMOOTH",
"225 39 OFFCURVE",
"203 25 OFFCURVE",
"119 20 CURVE",
"115 0 LINE"
);
},
{
closed = 1;
nodes = (
"227 581 OFFCURVE",
"170 704 OFFCURVE",
"302 704 CURVE SMOOTH",
"401 704 OFFCURVE",
"457 633 OFFCURVE",
"595 633 CURVE SMOOTH",
"699 633 OFFCURVE",
"781 671 OFFCURVE",
"781 719 CURVE SMOOTH",
"781 742 OFFCURVE",
"766 756 OFFCURVE",
"742 756 CURVE SMOOTH",
"680 756 OFFCURVE",
"700 651 OFFCURVE",
"577 651 CURVE SMOOTH",
"469 651 OFFCURVE",
"407 722 OFFCURVE",
"281 722 CURVE SMOOTH",
"182 722 OFFCURVE",
"110 680 OFFCURVE",
"110 622 CURVE SMOOTH",
"110 596 OFFCURVE",
"125 581 OFFCURVE",
"150 581 CURVE SMOOTH"
);
}
);
};
guideLines = (
{
angle = 74.4;
position = "{244, 116}";
}
);
hints = (
{
horizontal = 1;
origin = "{0, 17}";
target = "{0, 16}";
type = Stem;
}
);
layerId = UUID0;
paths = (
{
closed = 1;
nodes = (
"147 2 OFFCURVE",
"208 3 OFFCURVE",
"269 3 CURVE SMOOTH",
"322 3 OFFCURVE",
"375 2 OFFCURVE",
"408 0 CURVE",
"412 20 LINE",
"322 22 OFFCURVE",
"317 45 OFFCURVE",
"337 116 CURVE SMOOTH",
"489 660 LINE",
"452 669 LINE",
"404 690 LINE",
"244 116 LINE SMOOTH",
"223 39 OFFCURVE",
"201 25 OFFCURVE",
"117 20 CURVE",
"113 0 LINE"
);
},
{
closed = 1;
nodes = (
"227 581 OFFCURVE",
"170 704 OFFCURVE",
"302 704 CURVE SMOOTH",
"401 704 OFFCURVE",
"457 633 OFFCURVE",
"595 633 CURVE SMOOTH",
"699 633 OFFCURVE",
"781 671 OFFCURVE",
"781 719 CURVE SMOOTH",
"781 742 OFFCURVE",
"766 756 OFFCURVE",
"742 756 CURVE SMOOTH",
"680 756 OFFCURVE",
"700 651 OFFCURVE",
"577 651 CURVE SMOOTH",
"469 651 OFFCURVE",
"407 722 OFFCURVE",
"281 722 CURVE SMOOTH",
"182 722 OFFCURVE",
"110 680 OFFCURVE",
"110 622 CURVE SMOOTH",
"110 596 OFFCURVE",
"125 581 OFFCURVE",
"150 581 CURVE SMOOTH"
);
}
);
width = 659;
},
{
anchors = (
{
name = bottom;
position = "{298, 0}";
},
{
name = center;
position = "{374, 354}";
},
{
name = top;
position = "{484, 708}";
}
);
background = {
anchors = (
{
name = bottom;
position = "{298, 0}";
},
{
name = center;
position = "{384, 354}";
},
{
name = top;
position = "{484, 708}";
}
);
paths = (
{
closed = 1;
nodes = (
"121 2 OFFCURVE",
"206 3 OFFCURVE",
"291 3 CURVE SMOOTH",
"364 3 OFFCURVE",
"437 2 OFFCURVE",
"480 0 CURVE",
"484 20 LINE",
"383 25 OFFCURVE",
"396 70 OFFCURVE",
"409 116 CURVE SMOOTH",
"555 639 LINE",
"502 648 LINE",
"370 703 LINE",
"206 116 LINE SMOOTH",
"188 52 OFFCURVE",
"174 34 OFFCURVE",
"79 20 CURVE",
"75 0 LINE"
);
},
{
closed = 1;
nodes = (
"251 547 OFFCURVE",
"214 700 OFFCURVE",
"336 700 CURVE SMOOTH",
"430 700 OFFCURVE",
"512 614 OFFCURVE",
"666 614 CURVE SMOOTH",
"760 614 OFFCURVE",
"816 647 OFFCURVE",
"816 702 CURVE SMOOTH",
"816 736 OFFCURVE",
"795 756 OFFCURVE",
"760 756 CURVE SMOOTH",
"677 756 OFFCURVE",
"674 646 OFFCURVE",
"566 646 CURVE SMOOTH",
"476 646 OFFCURVE",
"430 722 OFFCURVE",
"288 722 CURVE SMOOTH",
"176 722 OFFCURVE",
"99 674 OFFCURVE",
"99 605 CURVE SMOOTH",
"99 568 OFFCURVE",
"121 547 OFFCURVE",
"156 547 CURVE SMOOTH"
);
}
);
};
guideLines = (
{
angle = 74.4;
position = "{206, 116}";
}
);
layerId = "DE547DD1-6B89-4C93-B672-7CF1D26AB89E";
paths = (
{
closed = 1;
nodes = (
"121 2 OFFCURVE",
"206 3 OFFCURVE",
"291 3 CURVE SMOOTH",
"364 3 OFFCURVE",
"437 2 OFFCURVE",
"480 0 CURVE",
"484 20 LINE",
"383 25 OFFCURVE",
"396 70 OFFCURVE",
"409 116 CURVE SMOOTH",
"555 639 LINE",
"502 658 LINE",
"370 703 LINE",
"206 116 LINE SMOOTH",
"188 52 OFFCURVE",
"174 37 OFFCURVE",
"79 20 CURVE",
"75 0 LINE"
);
},
{
closed = 1;
nodes = (
"288 532 OFFCURVE",
"186 702 OFFCURVE",
"318 702 CURVE SMOOTH",
"413 702 OFFCURVE",
"519 614 OFFCURVE",
"667 614 CURVE SMOOTH",
"759 614 OFFCURVE",
"816 648 OFFCURVE",
"816 703 CURVE SMOOTH",
"816 736 OFFCURVE",
"795 756 OFFCURVE",
"761 756 CURVE SMOOTH",
"681 756 OFFCURVE",
"681 648 OFFCURVE",
"590 648 CURVE SMOOTH",
"514 648 OFFCURVE",
"424 722 OFFCURVE",
"286 722 CURVE SMOOTH",
"174 722 OFFCURVE",
"99 673 OFFCURVE",
"99 600 CURVE SMOOTH",
"99 558 OFFCURVE",
"127 532 OFFCURVE",
"171 532 CURVE SMOOTH"
);
}
);
width = 695;
}
);
leftKerningGroup = T;
rightKerningGroup = T;
unicode = 0054;
},
{
glyphname = Tbar;
lastChange = "2019-04-10 21:06:22 +0000";
layers = (
{
background = {
components = (
{
name = T;
transform = "{1, 0, 0, 1, 2, 0}";
}
);
paths = (
{
closed = 1;
nodes = (
"173 366 LINE",
"168 346 LINE",
"582 346 LINE",
"587 366 LINE"
);
}
);
};
components = (
{
name = T;
},
{
name = strokeshortoverlaycomb.case;
transform = "{1, 0, 0, 1, 105, -13}";
}
);
layerId = UUID0;
width = 659;
},
{
background = {
components = (
{
name = T;
}
);
paths = (
{
closed = 1;
nodes = (
"190 366 LINE",
"185 346 LINE",
"649 346 LINE",
"654 366 LINE"
);
}
);
};
components = (
{
name = T;
},
{
name = strokeshortoverlaycomb.case;
transform = "{1, 0, 0, 1, 113, -4}";
}
);
layerId = "DE547DD1-6B89-4C93-B672-7CF1D26AB89E";
width = 695;
}
);
leftKerningGroup = T;
rightKerningGroup = T;
unicode = 0166;
},
{
glyphname = U;
lastChange = "2019-04-12 01:43:58 +0000";
layers = (
{
anchors = (
{
name = bottom;
position = "{299, 0}";
},
{
name = ogonek;
position = "{390, 0}";
},
{
name = top;
position = "{484, 708}";
}
);
background = {
anchors = (
{
name = bottom;
position = "{293, 0}";
},
{
name = ogonek;
position = "{367, 0}";
},
{
name = top;
position = "{484, 708}";
}
);
paths = (
{
closed = 1;
nodes = (
"519 -14 OFFCURVE",
"558 191 OFFCURVE",
"581 273 CURVE SMOOTH",
"669 592 LINE SMOOTH",
"690 668 OFFCURVE",
"707 684 OFFCURVE",
"775 688 CURVE",
"780 708 LINE",
"763 706 OFFCURVE",
"730 705 OFFCURVE",
"686 705 CURVE SMOOTH",
"635 705 OFFCURVE",
"600 706 OFFCURVE",
"585 708 CURVE",
"580 688 LINE",
"650 685 OFFCURVE",
"666 662 OFFCURVE",
"647 592 CURVE SMOOTH",
"560 280 LINE SMOOTH",
"541 212 OFFCURVE",
"505 21 OFFCURVE",
"334 21 CURVE SMOOTH",
"206 21 OFFCURVE",
"168 131 OFFCURVE",
"225 334 CURVE SMOOTH",
"300 602 LINE SMOOTH",
"320 675 OFFCURVE",
"333 685 OFFCURVE",
"403 688 CURVE",
"409 708 LINE",
"382 706 OFFCURVE",
"338 705 OFFCURVE",
"280 705 CURVE SMOOTH",
"218 705 OFFCURVE",
"174 706 OFFCURVE",
"154 708 CURVE",
"148 688 LINE",
"216 685 OFFCURVE",
"226 671 OFFCURVE",
"207 602 CURVE SMOOTH",
"127 315 LINE SMOOTH",
"70 111 OFFCURVE",
"137 -14 OFFCURVE",
"304 -14 CURVE SMOOTH"
);
}
);
};
guideLines = (
{
angle = 74.4;
position = "{119, 288}";
},
{
angle = 74.4;
position = "{647, 592}";
},
{
angle = 74.4;
position = "{669, 592}";
}
);
hints = (
{
horizontal = 1;
origin = "{0, 35}";
target = "{0, 36}";
type = Stem;
},
{
horizontal = 1;
origin = "{0, 43}";
target = up;
type = BottomGhost;
}
);
layerId = UUID0;
paths = (
{
closed = 1;
nodes = (
"446 -14 OFFCURVE",
"528 75 OFFCURVE",
"569 228 CURVE SMOOTH",
"669 592 LINE SMOOTH",
"690 668 OFFCURVE",
"707 683 OFFCURVE",
"775 688 CURVE",
"780 708 LINE",
"763 706 OFFCURVE",
"732 705 OFFCURVE",
"684 705 CURVE SMOOTH",
"633 705 OFFCURVE",
"600 706 OFFCURVE",
"585 708 CURVE",
"580 688 LINE",
"650 685 OFFCURVE",
"666 662 OFFCURVE",
"647 592 CURVE SMOOTH",
"545 226 LINE SMOOTH",
"507 91 OFFCURVE",
"435 21 OFFCURVE",
"335 21 CURVE SMOOTH",
"206 21 OFFCURVE",
"168 131 OFFCURVE",
"225 334 CURVE SMOOTH",
"300 602 LINE SMOOTH",
"321 675 OFFCURVE",
"333 685 OFFCURVE",
"403 688 CURVE",
"409 708 LINE",
"382 706 OFFCURVE",
"339 705 OFFCURVE",
"280 705 CURVE SMOOTH",
"216 705 OFFCURVE",
"174 706 OFFCURVE",
"154 708 CURVE",
"148 688 LINE",
"216 685 OFFCURVE",
"226 670 OFFCURVE",
"207 602 CURVE SMOOTH",
"127 315 LINE SMOOTH",
"70 111 OFFCURVE",
"137 -14 OFFCURVE",
"304 -14 CURVE SMOOTH"
);
}
);
width = 683;
},
{
anchors = (
{
name = bottom;
position = "{338, 0}";
},
{
name = ogonek;
position = "{428, 0}";
},
{
name = top;
position = "{510, 708}";
}
);
background = {
anchors = (
{
name = bottom;
position = "{338, 0}";
},
{
name = ogonek;
position = "{415, 0}";
},
{
name = top;
position = "{510, 708}";
}
);
paths = (
{
closed = 1;
nodes = (
"564 -14 OFFCURVE",
"597 173 OFFCURVE",
"630 291 CURVE SMOOTH",
"697 532 LINE SMOOTH",
"729 649 OFFCURVE",
"747 674 OFFCURVE",
"809 688 CURVE",
"815 708 LINE",
"796 706 OFFCURVE",
"766 705 OFFCURVE",
"723 705 CURVE SMOOTH",
"673 705 OFFCURVE",
"635 706 OFFCURVE",
"620 708 CURVE",
"614 688 LINE",
"716 674 OFFCURVE",
"702 626 OFFCURVE",
"670 512 CURVE SMOOTH",
"592 234 LINE SMOOTH",
"553 95 OFFCURVE",
"482 21 OFFCURVE",
"389 21 CURVE SMOOTH",
"284 21 OFFCURVE",
"261 115 OFFCURVE",
"311 299 CURVE SMOOTH",
"394 602 LINE SMOOTH",
"414 674 OFFCURVE",
"425 684 OFFCURVE",
"497 688 CURVE",
"503 708 LINE",
"452 706 OFFCURVE",
"391 705 OFFCURVE",
"315 705 CURVE SMOOTH",
"229 705 OFFCURVE",
"167 706 OFFCURVE",
"138 708 CURVE",
"132 688 LINE",
"200 685 OFFCURVE",
"210 670 OFFCURVE",
"191 602 CURVE SMOOTH",
"117 333 LINE SMOOTH",
"55 108 OFFCURVE",
"135 -14 OFFCURVE",
"328 -14 CURVE SMOOTH"
);
}
);
};
guideLines = (
{
angle = 74.4;
position = "{604, 276}";
},
{
angle = 74.4;
position = "{697, 532}";
},
{
angle = 74.4;
position = "{104, 288}";
}
);
layerId = "DE547DD1-6B89-4C93-B672-7CF1D26AB89E";
paths = (
{
closed = 1;
nodes = (
"486 -14 OFFCURVE",
"569 67 OFFCURVE",
"613 228 CURVE SMOOTH",
"697 532 LINE SMOOTH",
"730 651 OFFCURVE",
"746 673 OFFCURVE",
"809 688 CURVE",
"815 708 LINE",
"794 706 OFFCURVE",
"765 705 OFFCURVE",
"721 705 CURVE SMOOTH",
"669 705 OFFCURVE",
"634 706 OFFCURVE",
"620 708 CURVE",
"614 688 LINE",
"716 674 OFFCURVE",
"702 626 OFFCURVE",
"670 512 CURVE SMOOTH",
"592 234 LINE SMOOTH",
"553 95 OFFCURVE",
"482 21 OFFCURVE",
"389 21 CURVE SMOOTH",
"285 21 OFFCURVE",
"260 111 OFFCURVE",
"311 299 CURVE SMOOTH",
"394 602 LINE SMOOTH",
"414 674 OFFCURVE",
"425 683 OFFCURVE",
"497 688 CURVE",
"503 708 LINE",
"450 706 OFFCURVE",
"388 705 OFFCURVE",
"311 705 CURVE SMOOTH",
"225 705 OFFCURVE",
"165 706 OFFCURVE",
"138 708 CURVE",
"132 688 LINE",
"199 685 OFFCURVE",
"210 669 OFFCURVE",
"191 602 CURVE SMOOTH",
"117 333 LINE SMOOTH",
"56 112 OFFCURVE",
"132 -14 OFFCURVE",
"326 -14 CURVE SMOOTH"
);
}
);
width = 702;
}
);
leftKerningGroup = U;
rightKerningGroup = U;
unicode = 0055;
},
{
glyphname = Uhorn;
lastChange = "2019-04-12 13:22:06 +0000";
layers = (
{
anchors = (
{
name = bottom;
position = "{293, 0}";
},
{
name = ogonek;
position = "{367, 0}";
},
{
name = top;
position = "{484, 708}";
}
);
background = {
anchors = (
{
name = bottom;
position = "{293, 0}";
},
{
name = ogonek;
position = "{367, 0}";
},
{
name = top;
position = "{484, 708}";
}
);
paths = (
{
closed = 1;
nodes = (
"369 -14 OFFCURVE",
"440 23 OFFCURVE",
"488 79 CURVE SMOOTH",
"530 128 OFFCURVE",
"562 198 OFFCURVE",
"586 291 CURVE SMOOTH",
"691 696 LINE",
"681 686 LINE",
"712 687 OFFCURVE",
"744 696 OFFCURVE",
"784 720 CURVE SMOOTH",
"821 742 OFFCURVE",
"849 773 OFFCURVE",
"849 808 CURVE SMOOTH",
"849 838 OFFCURVE",
"830 864 OFFCURVE",
"793 864 CURVE SMOOTH",
"754 864 OFFCURVE",
"735 835 OFFCURVE",
"735 804 CURVE SMOOTH",
"735 774 OFFCURVE",
"756 749 OFFCURVE",
"776 734 CURVE",
"777 739 LINE",
"734 705 OFFCURVE",
"690 705 OFFCURVE",
"654 705 CURVE SMOOTH",
"628 705 OFFCURVE",
"599 706 OFFCURVE",
"580 708 CURVE",
"575 688 LINE",
"607 685 OFFCURVE",
"640 684 OFFCURVE",
"672 686 CURVE",
"668 697 LINE",
"560 280 LINE SMOOTH",
"521 131 OFFCURVE",
"449 21 OFFCURVE",
"305 21 CURVE SMOOTH",
"172 21 OFFCURVE",
"165 116 OFFCURVE",
"206 271 CURVE SMOOTH",
"294 602 LINE SMOOTH",
"313 675 OFFCURVE",
"328 685 OFFCURVE",
"397 688 CURVE",
"403 708 LINE",
"371 706 OFFCURVE",
"325 705 OFFCURVE",
"276 705 CURVE SMOOTH",
"227 705 OFFCURVE",
"176 706 OFFCURVE",
"149 708 CURVE",
"143 688 LINE",
"211 685 OFFCURVE",
"220 671 OFFCURVE",
"202 602 CURVE SMOOTH",
"119 288 LINE SMOOTH",
"91 183 OFFCURVE",
"77 98 OFFCURVE",
"129 40 CURVE SMOOTH",
"166 -1 OFFCURVE",
"223 -14 OFFCURVE",
"277 -14 CURVE SMOOTH"
);
}
);
};
guideLines = (
{
angle = 74.4;
position = "{569, 228}";
},
{
angle = 74.4;
position = "{127, 315}";
}
);
hints = (
{
horizontal = 1;
place = "{708, 20}";
type = Stem;
},
{
horizontal = 1;
place = "{-14, 21}";
target = up;
type = BottomGhost;
}
);
layerId = UUID0;
paths = (
{
closed = 1;
nodes = (
"445 -14 OFFCURVE",
"527 76 OFFCURVE",
"569 228 CURVE SMOOTH",
"699 695 LINE",
"677 695 LINE",
"545 226 LINE SMOOTH",
"507 91 OFFCURVE",
"435 21 OFFCURVE",
"335 21 CURVE SMOOTH",
"189 21 OFFCURVE",
"176 160 OFFCURVE",
"225 334 CURVE SMOOTH",
"300 602 LINE SMOOTH",
"318 666 OFFCURVE",
"324 685 OFFCURVE",
"403 688 CURVE",
"409 708 LINE",
"382 706 OFFCURVE",
"339 705 OFFCURVE",
"280 705 CURVE SMOOTH",
"216 705 OFFCURVE",
"174 706 OFFCURVE",
"154 708 CURVE",
"148 688 LINE",
"230 685 OFFCURVE",
"222 656 OFFCURVE",
"207 602 CURVE SMOOTH",
"127 315 LINE SMOOTH",
"74 125 OFFCURVE",
"125 -14 OFFCURVE",
"304 -14 CURVE SMOOTH"
);
},
{
closed = 1;
nodes = (
"753 685 OFFCURVE",
"837 729 OFFCURVE",
"837 793 CURVE SMOOTH",
"837 824 OFFCURVE",
"817 844 OFFCURVE",
"784 844 CURVE SMOOTH",
"747 844 OFFCURVE",
"719 820 OFFCURVE",
"719 788 CURVE SMOOTH",
"719 760 OFFCURVE",
"742 749 OFFCURVE",
"742 734 CURVE SMOOTH",
"742 715 OFFCURVE",
"702 703 OFFCURVE",
"637 703 CURVE SMOOTH",
"616 703 OFFCURVE",
"594 704 OFFCURVE",
"561 708 CURVE",
"553 690 LINE",
"579 687 OFFCURVE",
"606 685 OFFCURVE",
"630 685 CURVE SMOOTH"
);
}
);
width = 693;
},
{
anchors = (
{
name = bottom;
position = "{337, 0}";
},
{
name = ogonek;
position = "{414, 0}";
},
{
name = top;
position = "{509, 708}";
}
);
background = {
anchors = (
{
name = bottom;
position = "{337, 0}";
},
{
name = ogonek;
position = "{414, 0}";
},
{
name = top;
position = "{509, 708}";
}
);
paths = (
{
closed = 1;
nodes = (
"416 -14 OFFCURVE",
"484 23 OFFCURVE",
"532 79 CURVE SMOOTH",
"580 135 OFFCURVE",
"608 211 OFFCURVE",
"629 291 CURVE SMOOTH",
"733 690 LINE",
"725 685 LINE",
"758 687 OFFCURVE",
"792 696 OFFCURVE",
"826 713 CURVE SMOOTH",
"862 731 OFFCURVE",
"888 760 OFFCURVE",
"888 801 CURVE SMOOTH",
"888 851 OFFCURVE",
"850 882 OFFCURVE",
"808 882 CURVE SMOOTH",
"767 882 OFFCURVE",
"731 853 OFFCURVE",
"731 806 CURVE SMOOTH",
"731 762 OFFCURVE",
"765 732 OFFCURVE",
"799 717 CURVE",
"802 725 LINE",
"770 707 OFFCURVE",
"737 704 OFFCURVE",
"686 704 CURVE SMOOTH",
"656 704 OFFCURVE",
"643 706 OFFCURVE",
"613 708 CURVE",
"608 688 LINE",
"641 684 OFFCURVE",
"677 684 OFFCURVE",
"712 684 CURVE",
"710 690 LINE",
"604 280 LINE SMOOTH",
"567 136 OFFCURVE",
"489 21 OFFCURVE",
"364 21 CURVE SMOOTH",
"273 21 OFFCURVE",
"250 82 OFFCURVE",
"300 271 CURVE SMOOTH",
"388 602 LINE SMOOTH",
"407 675 OFFCURVE",
"422 685 OFFCURVE",
"491 688 CURVE",
"497 708 LINE",
"450 706 OFFCURVE",
"389 705 OFFCURVE",
"318 705 CURVE SMOOTH",
"247 705 OFFCURVE",
"172 706 OFFCURVE",
"133 708 CURVE",
"127 688 LINE",
"194 685 OFFCURVE",
"205 675 OFFCURVE",
"186 602 CURVE SMOOTH",
"103 288 LINE SMOOTH",
"80 201 OFFCURVE",
"76 132 OFFCURVE",
"105 81 CURVE SMOOTH",
"137 25 OFFCURVE",
"211 -14 OFFCURVE",
"315 -14 CURVE SMOOTH"
);
}
);
};
guideLines = (
{
angle = 74.4;
position = "{612, 228}";
},
{
angle = 74.4;
position = "{116, 333}";
}
);
layerId = "DE547DD1-6B89-4C93-B672-7CF1D26AB89E";
paths = (
{
closed = 1;
nodes = (
"499 -14 OFFCURVE",
"571 83 OFFCURVE",
"612 228 CURVE SMOOTH",
"742 693 LINE",
"720 690 LINE",
"591 234 LINE SMOOTH",
"552 96 OFFCURVE",
"481 21 OFFCURVE",
"388 21 CURVE SMOOTH",
"262 21 OFFCURVE",
"269 153 OFFCURVE",
"310 299 CURVE SMOOTH",
"394 602 LINE SMOOTH",
"412 665 OFFCURVE",
"416 682 OFFCURVE",
"497 688 CURVE",
"503 708 LINE",
"450 706 OFFCURVE",
"388 705 OFFCURVE",
"311 705 CURVE SMOOTH",
"225 705 OFFCURVE",
"165 706 OFFCURVE",
"138 708 CURVE",
"132 688 LINE",
"199 685 OFFCURVE",
"210 669 OFFCURVE",
"191 602 CURVE SMOOTH",
"116 333 LINE SMOOTH",
"58 125 OFFCURVE",
"119 -14 OFFCURVE",
"325 -14 CURVE SMOOTH"
);
},
{
closed = 1;
nodes = (
"798 684 OFFCURVE",
"891 746 OFFCURVE",
"891 814 CURVE SMOOTH",
"891 845 OFFCURVE",
"868 865 OFFCURVE",
"834 865 CURVE SMOOTH",
"795 865 OFFCURVE",
"765 839 OFFCURVE",
"765 805 CURVE SMOOTH",
"765 777 OFFCURVE",
"785 768 OFFCURVE",
"785 746 CURVE SMOOTH",
"785 718 OFFCURVE",
"755 703 OFFCURVE",
"699 703 CURVE SMOOTH",
"680 703 OFFCURVE",
"656 705 OFFCURVE",
"634 708 CURVE",
"626 689 LINE",
"644 686 OFFCURVE",
"674 684 OFFCURVE",
"697 684 CURVE SMOOTH"
);
}
);
width = 716;
}
);
leftKerningGroup = U;
leftMetricsKey = U;
rightKerningGroup = Uhorn;
unicode = 01AF;
},
{
glyphname = V;
lastChange = "2019-04-12 14:53:24 +0000";
layers = (
{
anchors = (
{
name = bottom;
position = "{271, 0}";
},
{
name = top;
position = "{447, 708}";
}
);
background = {
paths = (
{
closed = 1;
nodes = (
"229 -5 OFFCURVE",
"238 -5 OFFCURVE",
"242 -5 CURVE",
"647 601 LINE SMOOTH",
"686 661 OFFCURVE",
"723 682 OFFCURVE",
"750 688 CURVE",
"756 708 LINE",
"735 706 OFFCURVE",
"714 705 OFFCURVE",
"680 705 CURVE SMOOTH",
"645 705 OFFCURVE",
"603 706 OFFCURVE",
"566 708 CURVE",
"560 688 LINE",
"647 686 OFFCURVE",
"656 649 OFFCURVE",
"587 546 CURVE SMOOTH",
"288 96 LINE",
"308 111 LINE",
"259 604 LINE SMOOTH",
"253 673 OFFCURVE",
"273 684 OFFCURVE",
"342 688 CURVE",
"348 708 LINE",
"319 706 OFFCURVE",
"271 705 OFFCURVE",
"219 705 CURVE SMOOTH",
"181 705 OFFCURVE",
"139 706 OFFCURVE",
"113 708 CURVE",
"107 688 LINE",
"128 687 OFFCURVE",
"152 675 OFFCURVE",
"158 624 CURVE SMOOTH",
"226 -5 LINE"
);
}
);
};
hints = (
{
horizontal = 1;
place = "{708, 20}";
type = Stem;
},
{
horizontal = 1;
place = "{-5, 21}";
target = up;
type = BottomGhost;
}
);
layerId = UUID0;
paths = (
{
closed = 1;
nodes = (
"231 -5 OFFCURVE",
"237 -5 OFFCURVE",
"242 -5 CURVE",
"647 601 LINE SMOOTH",
"687 660 OFFCURVE",
"723 683 OFFCURVE",
"750 688 CURVE",
"756 708 LINE",
"735 706 OFFCURVE",
"714 705 OFFCURVE",
"680 705 CURVE SMOOTH",
"645 705 OFFCURVE",
"603 706 OFFCURVE",
"566 708 CURVE",
"560 688 LINE",
"657 686 OFFCURVE",
"648 637 OFFCURVE",
"587 546 CURVE SMOOTH",
"285 94 LINE",
"307 107 LINE",
"253 604 LINE SMOOTH",
"247 663 OFFCURVE",
"257 684 OFFCURVE",
"336 688 CURVE",
"342 708 LINE",
"314 706 OFFCURVE",
"269 705 OFFCURVE",
"219 705 CURVE SMOOTH",
"181 705 OFFCURVE",
"139 706 OFFCURVE",
"108 708 CURVE",
"102 688 LINE",
"128 687 OFFCURVE",
"152 675 OFFCURVE",
"158 624 CURVE SMOOTH",
"226 -5 LINE"
);
}
);
width = 624;
},
{
anchors = (
{
name = bottom;
position = "{299, 0}";
},
{
name = top;
position = "{476, 708}";
}
);
background = {
anchors = (
{
name = bottom;
position = "{299, 0}";
},
{
name = top;
position = "{476, 708}";
}
);
paths = (
{
closed = 1;
nodes = (
"278 -5 OFFCURVE",
"284 -5 OFFCURVE",
"289 -5 CURVE",
"684 548 LINE SMOOTH",
"740 626 OFFCURVE",
"785 671 OFFCURVE",
"823 688 CURVE",
"829 708 LINE",
"811 706 OFFCURVE",
"782 705 OFFCURVE",
"751 705 CURVE SMOOTH",
"714 705 OFFCURVE",
"686 706 OFFCURVE",
"621 708 CURVE",
"615 688 LINE",
"705 685 OFFCURVE",
"695 600 OFFCURVE",
"590 450 CURVE SMOOTH",
"411 198 LINE",
"441 218 LINE",
"370 604 LINE SMOOTH",
"362 650 OFFCURVE",
"376 685 OFFCURVE",
"452 688 CURVE",
"458 708 LINE",
"424 706 OFFCURVE",
"364 705 OFFCURVE",
"289 705 CURVE SMOOTH",
"216 705 OFFCURVE",
"151 706 OFFCURVE",
"108 708 CURVE",
"102 688 LINE",
"121 687 OFFCURVE",
"134 666 OFFCURVE",
"143 624 CURVE SMOOTH",
"273 -5 LINE"
);
}
);
};
layerId = "DE547DD1-6B89-4C93-B672-7CF1D26AB89E";
paths = (
{
closed = 1;
nodes = (
"278 -5 OFFCURVE",
"284 -5 OFFCURVE",
"289 -5 CURVE",
"684 548 LINE SMOOTH",
"743 631 OFFCURVE",
"789 673 OFFCURVE",
"823 688 CURVE",
"829 708 LINE",
"808 706 OFFCURVE",
"777 705 OFFCURVE",
"751 705 CURVE SMOOTH",
"705 705 OFFCURVE",
"670 706 OFFCURVE",
"621 708 CURVE",
"615 688 LINE",
"694 685 OFFCURVE",
"711 619 OFFCURVE",
"591 450 CURVE SMOOTH",
"411 198 LINE",
"431 214 LINE",
"350 604 LINE SMOOTH",
"335 674 OFFCURVE",
"365 684 OFFCURVE",
"432 688 CURVE",
"438 708 LINE",
"405 706 OFFCURVE",
"349 705 OFFCURVE",
"289 705 CURVE SMOOTH",
"223 705 OFFCURVE",
"155 706 OFFCURVE",
"98 708 CURVE",
"92 688 LINE",
"120 687 OFFCURVE",
"134 669 OFFCURVE",
"143 624 CURVE SMOOTH",
"273 -5 LINE"
);
}
);
width = 684;
}
);
leftKerningGroup = V;
leftMetricsKey = "=|A";
rightKerningGroup = V;
rightMetricsKey = "=|A";
unicode = 0056;
},
{
glyphname = W;
lastChange = "2019-04-12 14:53:27 +0000";
layers = (
{
anchors = (
{
name = bottom;
position = "{407, 0}";
},
{
name = top;
position = "{592, 708}";
}
);
background = {
anchors = (
{
name = bottom;
position = "{407, 0}";
},
{
name = top;
position = "{592, 708}";
}
);
paths = (
{
closed = 1;
nodes = (
"1006 706 OFFCURVE",
"985 705 OFFCURVE",
"951 705 CURVE SMOOTH",
"916 705 OFFCURVE",
"874 706 OFFCURVE",
"837 708 CURVE",
"831 688 LINE",
"928 686 OFFCURVE",
"916 637 OFFCURVE",
"862 546 CURVE SMOOTH",
"617 131 LINE",
"630 134 LINE",
"609 604 LINE SMOOTH",
"607 673 OFFCURVE",
"619 685 OFFCURVE",
"691 688 CURVE",
"697 708 LINE",
"668 706 OFFCURVE",
"620 705 OFFCURVE",
"568 705 CURVE SMOOTH",
"534 705 OFFCURVE",
"495 706 OFFCURVE",
"462 708 CURVE",
"456 688 LINE",
"484 687 OFFCURVE",
"505 676 OFFCURVE",
"507 624 CURVE SMOOTH",
"543 -5 LINE",
"546 -5 OFFCURVE",
"555 -5 OFFCURVE",
"559 -5 CURVE",
"918 601 LINE SMOOTH",
"954 662 OFFCURVE",
"994 682 OFFCURVE",
"1021 688 CURVE",
"1027 708 LINE"
);
},
{
closed = 1;
nodes = (
"303 706 OFFCURVE",
"263 705 OFFCURVE",
"219 705 CURVE SMOOTH",
"181 705 OFFCURVE",
"139 706 OFFCURVE",
"113 708 CURVE",
"107 688 LINE",
"128 687 OFFCURVE",
"155 676 OFFCURVE",
"158 624 CURVE SMOOTH",
"194 -5 LINE",
"197 -5 OFFCURVE",
"206 -5 OFFCURVE",
"210 -5 CURVE",
"536 548 LINE",
"535 584 LINE",
"253 106 LINE",
"283 131 LINE",
"260 604 LINE SMOOTH",
"258 657 OFFCURVE",
"261 684 OFFCURVE",
"322 688 CURVE",
"328 708 LINE"
);
}
);
};
hints = (
{
horizontal = 1;
place = "{708, 20}";
type = Stem;
},
{
horizontal = 1;
place = "{-5, 21}";
target = up;
type = BottomGhost;
}
);
layerId = UUID0;
paths = (
{
closed = 1;
nodes = (
"1006 706 OFFCURVE",
"985 705 OFFCURVE",
"951 705 CURVE SMOOTH",
"916 705 OFFCURVE",
"874 706 OFFCURVE",
"837 708 CURVE",
"831 688 LINE",
"928 686 OFFCURVE",
"916 637 OFFCURVE",
"862 546 CURVE SMOOTH",
"617 131 LINE",
"628 134 LINE",
"601 604 LINE SMOOTH",
"597 673 OFFCURVE",
"611 685 OFFCURVE",
"683 688 CURVE",
"689 708 LINE",
"662 706 OFFCURVE",
"616 705 OFFCURVE",
"568 705 CURVE SMOOTH",
"534 705 OFFCURVE",
"495 706 OFFCURVE",
"462 708 CURVE",
"456 688 LINE",
"484 687 OFFCURVE",
"505 676 OFFCURVE",
"507 624 CURVE SMOOTH",
"543 -5 LINE",
"546 -5 OFFCURVE",
"555 -5 OFFCURVE",
"559 -5 CURVE",
"918 601 LINE SMOOTH",
"954 662 OFFCURVE",
"994 682 OFFCURVE",
"1021 688 CURVE",
"1027 708 LINE"
);
},
{
closed = 1;
nodes = (
"297 706 OFFCURVE",
"259 705 OFFCURVE",
"219 705 CURVE SMOOTH",
"181 705 OFFCURVE",
"139 706 OFFCURVE",
"108 708 CURVE",
"102 688 LINE",
"128 687 OFFCURVE",
"155 676 OFFCURVE",
"158 624 CURVE SMOOTH",
"194 -5 LINE",
"197 -5 OFFCURVE",
"206 -5 OFFCURVE",
"210 -5 CURVE",
"536 548 LINE",
"535 584 LINE",
"253 107 LINE",
"279 131 LINE",
"252 604 LINE SMOOTH",
"249 657 OFFCURVE",
"253 684 OFFCURVE",
"314 688 CURVE",
"320 708 LINE"
);
}
);
width = 895;
},
{
anchors = (
{
name = bottom;
position = "{446, 0}";
},
{
name = top;
position = "{651, 705}";
}
);
background = {
anchors = (
{
name = bottom;
position = "{446, 0}";
},
{
name = top;
position = "{651, 705}";
}
);
paths = (
{
closed = 1;
nodes = (
"1123 706 OFFCURVE",
"1094 705 OFFCURVE",
"1063 705 CURVE SMOOTH",
"1026 705 OFFCURVE",
"998 706 OFFCURVE",
"933 708 CURVE",
"927 688 LINE",
"1017 685 OFFCURVE",
"1014 601 OFFCURVE",
"914 450 CURVE SMOOTH",
"755 210 LINE",
"795 249 LINE",
"745 604 LINE SMOOTH",
"738 657 OFFCURVE",
"764 685 OFFCURVE",
"806 688 CURVE",
"812 708 LINE",
"782 706 OFFCURVE",
"731 705 OFFCURVE",
"666 705 CURVE SMOOTH",
"596 705 OFFCURVE",
"534 706 OFFCURVE",
"484 708 CURVE",
"478 688 LINE",
"511 686 OFFCURVE",
"521 673 OFFCURVE",
"526 641 CURVE SMOOTH",
"624 -5 LINE",
"629 -5 OFFCURVE",
"635 -5 OFFCURVE",
"640 -5 CURVE",
"1003 548 LINE SMOOTH",
"1055 627 OFFCURVE",
"1097 671 OFFCURVE",
"1135 688 CURVE",
"1141 708 LINE"
);
},
{
closed = 1;
nodes = (
"389 706 OFFCURVE",
"344 705 OFFCURVE",
"284 705 CURVE SMOOTH",
"215 705 OFFCURVE",
"148 706 OFFCURVE",
"108 708 CURVE",
"102 688 LINE",
"122 687 OFFCURVE",
"136 664 OFFCURVE",
"143 624 CURVE SMOOTH",
"248 -5 LINE",
"253 -5 OFFCURVE",
"259 -5 OFFCURVE",
"264 -5 CURVE",
"599 459 LINE",
"594 487 LINE",
"382 193 LINE",
"428 237 LINE",
"370 604 LINE SMOOTH",
"362 653 OFFCURVE",
"370 681 OFFCURVE",
"412 688 CURVE",
"418 708 LINE"
);
}
);
};
layerId = "DE547DD1-6B89-4C93-B672-7CF1D26AB89E";
paths = (
{
closed = 1;
nodes = (
"1123 706 OFFCURVE",
"1094 705 OFFCURVE",
"1063 705 CURVE SMOOTH",
"1026 705 OFFCURVE",
"998 706 OFFCURVE",
"933 708 CURVE",
"927 688 LINE",
"1017 685 OFFCURVE",
"1016 602 OFFCURVE",
"916 450 CURVE SMOOTH",
"758 210 LINE",
"789 247 LINE",
"735 604 LINE SMOOTH",
"727 657 OFFCURVE",
"754 685 OFFCURVE",
"796 688 CURVE",
"802 708 LINE",
"774 706 OFFCURVE",
"727 705 OFFCURVE",
"666 705 CURVE SMOOTH",
"596 705 OFFCURVE",
"534 706 OFFCURVE",
"484 708 CURVE",
"478 688 LINE",
"511 686 OFFCURVE",
"521 673 OFFCURVE",
"526 641 CURVE SMOOTH",
"624 -5 LINE",
"629 -5 OFFCURVE",
"635 -5 OFFCURVE",
"640 -5 CURVE",
"1003 548 LINE SMOOTH",
"1055 627 OFFCURVE",
"1097 671 OFFCURVE",
"1135 688 CURVE",
"1141 708 LINE"
);
},
{
closed = 1;
nodes = (
"373 706 OFFCURVE",
"335 705 OFFCURVE",
"284 705 CURVE SMOOTH",
"215 705 OFFCURVE",
"148 706 OFFCURVE",
"98 708 CURVE",
"92 688 LINE",
"122 687 OFFCURVE",
"136 664 OFFCURVE",
"143 624 CURVE SMOOTH",
"248 -5 LINE",
"253 -5 OFFCURVE",
"259 -5 OFFCURVE",
"264 -5 CURVE",
"599 459 LINE",
"596 487 LINE",
"384 193 LINE",
"413 221 LINE",
"350 604 LINE SMOOTH",
"342 653 OFFCURVE",
"350 681 OFFCURVE",
"392 688 CURVE",
"398 708 LINE"
);
}
);
width = 996;
}
);
leftKerningGroup = V;
leftMetricsKey = "=|A";
rightKerningGroup = V;
rightMetricsKey = "=|A";
unicode = 0057;
},
{
glyphname = X;
lastChange = "2019-04-12 13:29:48 +0000";
layers = (
{
anchors = (
{
name = bottom;
position = "{287, 0}";
},
{
name = top;
position = "{463, 708}";
}
);
background = {
anchors = (
{
name = bottom;
position = "{287, 0}";
},
{
name = top;
position = "{463, 708}";
}
);
paths = (
{
closed = 1;
nodes = (
"542 -14 OFFCURVE",
"586 19 OFFCURVE",
"607 93 CURVE SMOOTH",
"629 170 LINE",
"609 170 LINE",
"594 119 LINE SMOOTH",
"578 64 OFFCURVE",
"556 41 OFFCURVE",
"516 41 CURVE SMOOTH",
"463 41 OFFCURVE",
"444 93 OFFCURVE",
"437 155 CURVE SMOOTH",
"389 566 LINE SMOOTH",
"380 639 OFFCURVE",
"355 722 OFFCURVE",
"258 722 CURVE SMOOTH",
"201 722 OFFCURVE",
"156 689 OFFCURVE",
"136 615 CURVE SMOOTH",
"115 538 LINE",
"135 538 LINE",
"149 589 LINE SMOOTH",
"164 644 OFFCURVE",
"187 667 OFFCURVE",
"227 667 CURVE SMOOTH",
"280 667 OFFCURVE",
"299 615 OFFCURVE",
"306 553 CURVE SMOOTH",
"354 142 LINE SMOOTH",
"363 69 OFFCURVE",
"388 -14 OFFCURVE",
"485 -14 CURVE SMOOTH"
);
},
{
closed = 1;
nodes = (
"58 -14 OFFCURVE",
"89 -2 OFFCURVE",
"119 21 CURVE SMOOTH",
"195 75 OFFCURVE",
"294 202 OFFCURVE",
"345 320 CURVE",
"361 396 LINE",
"276 195 OFFCURVE",
"169 73 OFFCURVE",
"100 28 CURVE SMOOTH",
"81 15 OFFCURVE",
"62 8 OFFCURVE",
"37 7 CURVE SMOOTH",
"36 7 OFFCURVE",
"34 7 OFFCURVE",
"33 7 CURVE",
"51 23 OFFCURVE",
"63 47 OFFCURVE",
"65 66 CURVE SMOOTH",
"67 87 OFFCURVE",
"57 109 OFFCURVE",
"27 109 CURVE SMOOTH",
"-12 109 OFFCURVE",
"-29 72 OFFCURVE",
"-32 45 CURVE SMOOTH",
"-35 14 OFFCURVE",
"-21 -14 OFFCURVE",
"27 -14 CURVE SMOOTH"
);
},
{
closed = 1;
nodes = (
"449 494 OFFCURVE",
"552 632 OFFCURVE",
"618 680 CURVE SMOOTH",
"637 694 OFFCURVE",
"656 701 OFFCURVE",
"682 701 CURVE SMOOTH",
"683 701 OFFCURVE",
"684 701 OFFCURVE",
"685 701 CURVE",
"667 685 OFFCURVE",
"655 661 OFFCURVE",
"653 642 CURVE SMOOTH",
"651 621 OFFCURVE",
"661 599 OFFCURVE",
"691 599 CURVE SMOOTH",
"730 599 OFFCURVE",
"747 636 OFFCURVE",
"750 663 CURVE SMOOTH",
"753 694 OFFCURVE",
"739 722 OFFCURVE",
"691 722 CURVE SMOOTH",
"660 722 OFFCURVE",
"629 710 OFFCURVE",
"599 687 CURVE SMOOTH",
"526 627 OFFCURVE",
"432 484 OFFCURVE",
"383 354 CURVE",
"367 278 LINE"
);
}
);
};
guideLines = (
{
angle = 74.4;
position = "{136, 615}";
},
{
angle = 74.4;
position = "{607, 93}";
}
);
hints = (
{
horizontal = 1;
origin = "{0, 15}";
target = down;
type = TopGhost;
},
{
horizontal = 1;
place = "{-14, 21}";
target = up;
type = BottomGhost;
}
);
layerId = UUID0;
paths = (
{
closed = 1;
nodes = (
"540 -14 OFFCURVE",
"586 19 OFFCURVE",
"607 93 CURVE SMOOTH",
"629 170 LINE",
"606 170 LINE",
"591 119 LINE SMOOTH",
"577 70 OFFCURVE",
"559 41 OFFCURVE",
"516 41 CURVE SMOOTH",
"460 41 OFFCURVE",
"444 97 OFFCURVE",
"437 155 CURVE SMOOTH",
"389 566 LINE SMOOTH",
"381 632 OFFCURVE",
"359 722 OFFCURVE",
"258 722 CURVE SMOOTH",
"203 722 OFFCURVE",
"156 689 OFFCURVE",
"136 615 CURVE SMOOTH",
"115 538 LINE",
"138 538 LINE",
"152 589 LINE SMOOTH",
"167 644 OFFCURVE",
"187 667 OFFCURVE",
"227 667 CURVE SMOOTH",
"283 667 OFFCURVE",
"299 611 OFFCURVE",
"306 553 CURVE SMOOTH",
"354 142 LINE SMOOTH",
"362 76 OFFCURVE",
"384 -14 OFFCURVE",
"485 -14 CURVE SMOOTH"
);
},
{
closed = 1;
nodes = (
"144 -14 OFFCURVE",
"244 102 OFFCURVE",
"345 316 CURVE",
"347 366 LINE",
"286 213 OFFCURVE",
"177 46 OFFCURVE",
"120 46 CURVE SMOOTH",
"86 46 OFFCURVE",
"69 91 OFFCURVE",
"26 91 CURVE SMOOTH",
"-3 91 OFFCURVE",
"-28 71 OFFCURVE",
"-28 41 CURVE SMOOTH",
"-28 8 OFFCURVE",
"3 -14 OFFCURVE",
"47 -14 CURVE SMOOTH"
);
},
{
closed = 1;
nodes = (
"454 495 OFFCURVE",
"563 662 OFFCURVE",
"620 662 CURVE SMOOTH",
"654 662 OFFCURVE",
"671 617 OFFCURVE",
"714 617 CURVE SMOOTH",
"743 617 OFFCURVE",
"768 637 OFFCURVE",
"768 667 CURVE SMOOTH",
"768 700 OFFCURVE",
"737 722 OFFCURVE",
"693 722 CURVE SMOOTH",
"599 722 OFFCURVE",
"496 606 OFFCURVE",
"395 392 CURVE",
"393 342 LINE"
);
}
);
width = 685;
},
{
anchors = (
{
name = bottom;
position = "{301, 0}";
},
{
name = top;
position = "{478, 708}";
}
);
background = {
anchors = (
{
name = bottom;
position = "{301, 0}";
},
{
name = top;
position = "{478, 708}";
}
);
paths = (
{
closed = 1;
nodes = (
"554 -14 OFFCURVE",
"611 11 OFFCURVE",
"633 93 CURVE SMOOTH",
"654 170 LINE",
"634 170 LINE",
"620 119 LINE SMOOTH",
"609 79 OFFCURVE",
"589 67 OFFCURVE",
"563 67 CURVE SMOOTH",
"538 67 OFFCURVE",
"525 80 OFFCURVE",
"521 105 CURVE SMOOTH",
"465 566 LINE SMOOTH",
"452 673 OFFCURVE",
"410 722 OFFCURVE",
"305 722 CURVE SMOOTH",
"228 722 OFFCURVE",
"165 695 OFFCURVE",
"142 615 CURVE SMOOTH",
"120 538 LINE",
"140 538 LINE",
"155 589 LINE SMOOTH",
"167 630 OFFCURVE",
"188 648 OFFCURVE",
"214 648 CURVE SMOOTH",
"238 648 OFFCURVE",
"250 637 OFFCURVE",
"254 608 CURVE SMOOTH",
"312 142 LINE SMOOTH",
"325 42 OFFCURVE",
"363 -14 OFFCURVE",
"483 -14 CURVE SMOOTH"
);
},
{
closed = 1;
nodes = (
"77 -14 OFFCURVE",
"108 -3 OFFCURVE",
"138 19 CURVE SMOOTH",
"211 78 OFFCURVE",
"296 203 OFFCURVE",
"343 320 CURVE",
"358 396 LINE",
"282 200 OFFCURVE",
"177 71 OFFCURVE",
"117 28 CURVE SMOOTH",
"94 13 OFFCURVE",
"73 3 OFFCURVE",
"49 3 CURVE SMOOTH",
"36 3 OFFCURVE",
"28 6 OFFCURVE",
"23 11 CURVE",
"84 25 OFFCURVE",
"127 74 OFFCURVE",
"127 134 CURVE SMOOTH",
"127 187 OFFCURVE",
"95 218 OFFCURVE",
"45 218 CURVE SMOOTH",
"-15 218 OFFCURVE",
"-64 173 OFFCURVE",
"-64 102 CURVE SMOOTH",
"-64 37 OFFCURVE",
"-22 -14 OFFCURVE",
"44 -14 CURVE SMOOTH"
);
},
{
closed = 1;
nodes = (
"495 492 OFFCURVE",
"587 632 OFFCURVE",
"644 680 CURVE SMOOTH",
"666 696 OFFCURVE",
"688 705 OFFCURVE",
"710 705 CURVE SMOOTH",
"723 705 OFFCURVE",
"731 702 OFFCURVE",
"736 697 CURVE",
"675 683 OFFCURVE",
"632 634 OFFCURVE",
"632 574 CURVE SMOOTH",
"632 521 OFFCURVE",
"664 490 OFFCURVE",
"714 490 CURVE SMOOTH",
"774 490 OFFCURVE",
"823 535 OFFCURVE",
"823 606 CURVE SMOOTH",
"823 671 OFFCURVE",
"781 722 OFFCURVE",
"715 722 CURVE SMOOTH",
"683 722 OFFCURVE",
"654 710 OFFCURVE",
"624 686 CURVE SMOOTH",
"559 626 OFFCURVE",
"477 483 OFFCURVE",
"434 354 CURVE",
"423 278 LINE"
);
}
);
};
guideLines = (
{
angle = 74.4;
position = "{132, 615}";
},
{
angle = 74.4;
position = "{643, 93}";
}
);
layerId = "DE547DD1-6B89-4C93-B672-7CF1D26AB89E";
paths = (
{
closed = 1;
nodes = (
"571 -14 OFFCURVE",
"624 22 OFFCURVE",
"643 93 CURVE SMOOTH",
"664 170 LINE",
"641 170 LINE",
"627 119 LINE SMOOTH",
"618 86 OFFCURVE",
"603 67 OFFCURVE",
"576 67 CURVE SMOOTH",
"549 67 OFFCURVE",
"536 84 OFFCURVE",
"529 125 CURVE SMOOTH",
"455 566 LINE SMOOTH",
"437 672 OFFCURVE",
"391 722 OFFCURVE",
"293 722 CURVE SMOOTH",
"207 722 OFFCURVE",
"152 686 OFFCURVE",
"132 615 CURVE SMOOTH",
"110 538 LINE",
"133 538 LINE",
"148 589 LINE SMOOTH",
"159 627 OFFCURVE",
"176 648 OFFCURVE",
"204 648 CURVE SMOOTH",
"228 648 OFFCURVE",
"239 635 OFFCURVE",
"247 588 CURVE SMOOTH",
"322 142 LINE SMOOTH",
"340 37 OFFCURVE",
"389 -14 OFFCURVE",
"489 -14 CURVE SMOOTH"
);
},
{
closed = 1;
nodes = (
"170 -14 OFFCURVE",
"246 91 OFFCURVE",
"333 300 CURVE",
"333 343 LINE",
"254 163 OFFCURVE",
"224 105 OFFCURVE",
"164 105 CURVE SMOOTH",
"125 105 OFFCURVE",
"106 150 OFFCURVE",
"59 150 CURVE SMOOTH",
"11 150 OFFCURVE",
"-24 116 OFFCURVE",
"-24 69 CURVE SMOOTH",
"-24 20 OFFCURVE",
"14 -14 OFFCURVE",
"69 -14 CURVE SMOOTH"
);
},
{
closed = 1;
nodes = (
"525 546 OFFCURVE",
"554 603 OFFCURVE",
"613 603 CURVE SMOOTH",
"652 603 OFFCURVE",
"671 558 OFFCURVE",
"718 558 CURVE SMOOTH",
"766 558 OFFCURVE",
"801 592 OFFCURVE",
"801 639 CURVE SMOOTH",
"801 688 OFFCURVE",
"763 722 OFFCURVE",
"708 722 CURVE SMOOTH",
"607 722 OFFCURVE",
"532 618 OFFCURVE",
"445 408 CURVE",
"444 365 LINE"
);
}
);
width = 724;
}
);
leftKerningGroup = X;
rightKerningGroup = X;
unicode = 0058;
},
{
glyphname = Y;
lastChange = "2019-04-15 18:54:48 +0000";
layers = (
{
anchors = (
{
name = bottom;
position = "{271, 0}";
},
{
name = top;
position = "{449, 708}";
}
);
background = {
anchors = (
{
name = bottom;
position = "{271, 0}";
},
{
name = top;
position = "{469, 708}";
}
);
paths = (
{
closed = 1;
nodes = (
"432 416 LINE",
"398 336 LINE",
"365 317 LINE",
"330 380 LINE",
"253 106 LINE SMOOTH",
"233 34 OFFCURVE",
"218 23 OFFCURVE",
"150 20 CURVE",
"145 0 LINE",
"174 2 OFFCURVE",
"224 3 OFFCURVE",
"276 3 CURVE SMOOTH",
"322 3 OFFCURVE",
"370 2 OFFCURVE",
"400 0 CURVE",
"405 20 LINE",
"337 23 OFFCURVE",
"326 34 OFFCURVE",
"346 106 CURVE SMOOTH"
);
},
{
closed = 1;
nodes = (
"697 701 OFFCURVE",
"698 701 OFFCURVE",
"699 701 CURVE",
"682 685 OFFCURVE",
"668 663 OFFCURVE",
"667 642 CURVE SMOOTH",
"666 621 OFFCURVE",
"674 599 OFFCURVE",
"705 599 CURVE SMOOTH",
"744 599 OFFCURVE",
"762 636 OFFCURVE",
"764 663 CURVE SMOOTH",
"766 692 OFFCURVE",
"753 722 OFFCURVE",
"708 722 CURVE SMOOTH",
"665 722 OFFCURVE",
"621 688 OFFCURVE",
"590 657 CURVE SMOOTH",
"521 588 OFFCURVE",
"454 488 OFFCURVE",
"403 360 CURVE",
"379 580 OFFCURVE",
"346 722 OFFCURVE",
"236 722 CURVE SMOOTH",
"179 722 OFFCURVE",
"158 693 OFFCURVE",
"138 635 CURVE SMOOTH",
"105 538 LINE",
"105 538 OFFCURVE",
"127 538 OFFCURVE",
"127 538 CURVE",
"155 620 LINE SMOOTH",
"167 654 OFFCURVE",
"180 667 OFFCURVE",
"203 667 CURVE SMOOTH",
"285 667 OFFCURVE",
"313 417 OFFCURVE",
"327 265 CURVE",
"386 270 LINE",
"473 509 OFFCURVE",
"575 630 OFFCURVE",
"641 679 CURVE SMOOTH",
"657 691 OFFCURVE",
"675 701 OFFCURVE",
"696 701 CURVE SMOOTH"
);
}
);
};
guideLines = (
{
angle = 74.4;
position = "{253, 106}";
},
{
angle = 74.4;
position = "{138, 635}";
}
);
hints = (
{
horizontal = 1;
origin = "{0, 18}";
target = down;
type = TopGhost;
},
{
horizontal = 1;
origin = "{1, 18}";
target = "{1, 17}";
type = Stem;
}
);
layerId = UUID0;
paths = (
{
closed = 1;
nodes = (
"386 270 LINE",
"426 382 OFFCURVE",
"471 485 OFFCURVE",
"495 525 CURVE SMOOTH",
"545 609 OFFCURVE",
"570 627 OFFCURVE",
"641 627 CURVE SMOOTH",
"685 627 OFFCURVE",
"719 649 OFFCURVE",
"719 680 CURVE SMOOTH",
"719 707 OFFCURVE",
"699 722 OFFCURVE",
"664 722 CURVE SMOOTH",
"579 722 OFFCURVE",
"504 621 OFFCURVE",
"402 370 CURVE",
"373 633 OFFCURVE",
"331 722 OFFCURVE",
"235 722 CURVE SMOOTH",
"185 722 OFFCURVE",
"154 694 OFFCURVE",
"138 635 CURVE SMOOTH",
"111 538 LINE",
"131 538 LINE",
"154 620 LINE SMOOTH",
"163 652 OFFCURVE",
"178 667 OFFCURVE",
"200 667 CURVE SMOOTH",
"260 667 OFFCURVE",
"302 534 OFFCURVE",
"327 265 CURVE"
);
},
{
closed = 1;
nodes = (
"171 2 OFFCURVE",
"218 3 OFFCURVE",
"276 3 CURVE SMOOTH",
"328 3 OFFCURVE",
"373 2 OFFCURVE",
"400 0 CURVE",
"405 20 LINE",
"336 23 OFFCURVE",
"327 36 OFFCURVE",
"346 106 CURVE SMOOTH",
"432 416 LINE",
"398 336 LINE",
"365 317 LINE",
"330 380 LINE",
"253 106 LINE SMOOTH",
"233 35 OFFCURVE",
"221 24 OFFCURVE",
"150 20 CURVE",
"145 0 LINE"
);
}
);
width = 620;
},
{
anchors = (
{
name = bottom;
position = "{283, 0}";
},
{
name = top;
position = "{475, 708}";
}
);
background = {
anchors = (
{
name = bottom;
position = "{283, 0}";
},
{
name = top;
position = "{475, 708}";
}
);
paths = (
{
closed = 1;
nodes = (
"497 416 LINE",
"463 336 LINE",
"370 317 LINE",
"285 380 LINE",
"209 106 LINE SMOOTH",
"189 33 OFFCURVE",
"174 23 OFFCURVE",
"106 20 CURVE",
"101 0 LINE",
"140 2 OFFCURVE",
"210 3 OFFCURVE",
"282 3 CURVE SMOOTH",
"352 3 OFFCURVE",
"444 2 OFFCURVE",
"486 0 CURVE",
"491 20 LINE",
"423 23 OFFCURVE",
"392 33 OFFCURVE",
"412 106 CURVE SMOOTH"
);
},
{
closed = 1;
nodes = (
"740 705 OFFCURVE",
"749 702 OFFCURVE",
"754 697 CURVE",
"695 687 OFFCURVE",
"650 644 OFFCURVE",
"650 584 CURVE SMOOTH",
"650 537 OFFCURVE",
"685 510 OFFCURVE",
"739 510 CURVE SMOOTH",
"801 510 OFFCURVE",
"851 551 OFFCURVE",
"851 615 CURVE SMOOTH",
"851 675 OFFCURVE",
"805 722 OFFCURVE",
"734 722 CURVE SMOOTH",
"684 722 OFFCURVE",
"646 698 OFFCURVE",
"615 662 CURVE SMOOTH",
"559 597 OFFCURVE",
"508 495 OFFCURVE",
"467 369 CURVE",
"441 597 OFFCURVE",
"414 722 OFFCURVE",
"260 722 CURVE SMOOTH",
"190 722 OFFCURVE",
"121 694 OFFCURVE",
"91 602 CURVE SMOOTH",
"70 538 LINE",
"70 538 OFFCURVE",
"92 538 OFFCURVE",
"92 538 CURVE",
"109 589 LINE SMOOTH",
"116 610 OFFCURVE",
"128 636 OFFCURVE",
"154 636 CURVE SMOOTH",
"219 636 OFFCURVE",
"259 421 OFFCURVE",
"272 265 CURVE",
"460 270 LINE",
"517 496 OFFCURVE",
"615 645 OFFCURVE",
"665 681 CURVE SMOOTH",
"690 699 OFFCURVE",
"708 705 OFFCURVE",
"729 705 CURVE SMOOTH"
);
}
);
};
guideLines = (
{
angle = 74.4;
position = "{209, 106}";
},
{
angle = 74.4;
position = "{91, 602}";
}
);
layerId = "DE547DD1-6B89-4C93-B672-7CF1D26AB89E";
paths = (
{
closed = 1;
nodes = (
"456 270 LINE",
"479 355 OFFCURVE",
"507 429 OFFCURVE",
"536 491 CURVE SMOOTH",
"571 566 OFFCURVE",
"633 540 OFFCURVE",
"689 540 CURVE SMOOTH",
"747 540 OFFCURVE",
"814 572 OFFCURVE",
"814 645 CURVE SMOOTH",
"814 689 OFFCURVE",
"787 722 OFFCURVE",
"734 722 CURVE SMOOTH",
"611 722 OFFCURVE",
"544 583 OFFCURVE",
"467 369 CURVE",
"441 597 OFFCURVE",
"414 722 OFFCURVE",
"260 722 CURVE SMOOTH",
"190 722 OFFCURVE",
"117 694 OFFCURVE",
"91 602 CURVE SMOOTH",
"73 538 LINE",
"93 538 LINE",
"108 589 LINE SMOOTH",
"114 610 OFFCURVE",
"128 636 OFFCURVE",
"154 636 CURVE SMOOTH",
"219 636 OFFCURVE",
"259 421 OFFCURVE",
"272 265 CURVE"
);
},
{
closed = 1;
nodes = (
"140 2 OFFCURVE",
"210 3 OFFCURVE",
"282 3 CURVE SMOOTH",
"352 3 OFFCURVE",
"444 2 OFFCURVE",
"486 0 CURVE",
"491 20 LINE",
"423 23 OFFCURVE",
"392 33 OFFCURVE",
"412 106 CURVE SMOOTH",
"497 416 LINE",
"463 336 LINE",
"370 317 LINE",
"285 380 LINE",
"209 106 LINE SMOOTH",
"189 33 OFFCURVE",
"174 23 OFFCURVE",
"106 20 CURVE",
"101 0 LINE"
);
}
);
width = 696;
}
);
leftKerningGroup = Y;
rightKerningGroup = Y;
unicode = 0059;
},
